{"glyphs":{"0":{"ha":1015,"x_min":92,"x_max":922,"o":"m 922 521 q 876 256 922 378 q 733 57 829 135 q 510 -21 638 -21 q 286 57 383 -21 q 140 256 189 135 q 92 521 92 378 q 207 901 92 740 q 511 1063 322 1063 q 811 903 700 1063 q 922 521 922 743 m 510 154 q 559 154 510 154 q 667 262 608 154 q 725 520 725 369 q 667 778 725 671 q 510 886 608 886 q 351 777 413 886 q 289 520 289 668 q 351 263 289 372 q 510 154 413 154 z "},"1":{"ha":708,"x_min":28,"x_max":535,"o":"m 326 136 l 335 492 q 333 575 335 539 q 332 785 332 681 q 247 672 286 729 q 189 594 207 615 q 119 557 157 557 q 54 581 81 557 q 28 644 28 606 q 51 719 28 683 q 122 810 74 754 q 206 915 169 865 q 265 988 243 964 q 319 1033 286 1011 q 388 1056 353 1056 q 531 872 531 1056 l 524 514 l 535 136 q 431 -14 535 -14 q 326 136 326 -14 z "},"2":{"ha":856,"x_min":71,"x_max":778,"o":"m 438 169 l 664 178 q 747 153 715 178 q 778 85 778 128 q 747 17 778 43 q 664 -8 715 -8 l 438 0 l 197 -8 q 71 96 71 -8 q 108 193 71 133 q 181 297 144 253 q 284 415 218 340 q 377 522 350 490 q 446 608 404 554 q 524 766 524 710 q 490 854 524 822 q 417 886 456 886 q 355 871 378 886 q 316 834 332 856 q 283 792 300 813 q 200 739 246 739 q 128 765 154 739 q 101 825 101 790 q 190 981 101 899 q 417 1063 278 1063 q 638 979 556 1063 q 719 774 719 896 q 633 563 719 679 q 457 344 575 482 q 321 171 347 211 q 438 169 357 169 z "},"3":{"ha":871,"x_min":86,"x_max":792,"o":"m 443 1042 l 631 1047 q 753 944 753 1047 q 617 747 753 899 q 544 665 551 674 q 726 535 660 622 q 792 340 792 447 q 692 89 792 197 q 419 -19 592 -19 q 186 53 286 -19 q 86 199 86 126 q 106 255 86 231 q 156 279 125 279 q 216 260 188 279 q 268 217 244 240 q 333 175 292 194 q 418 156 374 156 q 545 208 496 156 q 594 335 594 260 q 547 458 594 410 q 433 518 500 507 q 358 461 390 476 q 281 446 326 446 q 208 474 236 446 q 181 544 181 501 q 219 627 181 588 q 336 688 258 667 q 493 872 425 786 q 450 874 479 874 l 226 864 q 144 889 175 864 q 113 956 113 914 q 144 1024 113 999 q 226 1050 175 1050 l 443 1042 z "},"4":{"ha":907,"x_min":42,"x_max":846,"o":"m 514 489 l 515 665 q 514 779 515 740 q 294 489 443 697 l 514 489 m 708 933 l 703 493 q 744 496 731 496 q 817 471 788 496 q 846 406 846 446 q 708 315 846 315 q 714 136 714 199 q 608 -14 714 -14 q 503 136 503 -14 q 508 317 503 203 l 150 317 q 71 344 100 317 q 42 410 42 372 q 69 494 42 449 q 175 633 96 539 l 435 950 q 590 1056 515 1056 q 674 1027 639 1056 q 708 933 708 999 z "},"5":{"ha":894,"x_min":96,"x_max":814,"o":"m 429 1042 l 646 1050 q 728 1024 697 1050 q 760 956 760 999 q 728 889 760 914 q 646 864 697 864 l 429 872 q 318 871 350 872 q 322 763 322 779 l 318 675 q 465 713 382 713 q 722 611 631 713 q 814 357 814 510 q 711 92 814 204 q 436 -21 608 -21 q 194 64 292 -21 q 96 219 96 149 q 121 283 96 257 q 182 308 146 308 q 238 294 218 308 q 276 253 257 281 q 444 156 344 156 q 567 217 518 156 q 617 358 617 278 q 574 490 617 438 q 460 542 532 542 q 321 500 389 542 q 218 458 253 458 q 117 554 117 458 q 126 656 117 589 q 136 757 136 722 q 128 851 136 792 q 119 944 119 911 q 242 1047 119 1047 l 429 1042 z "},"6":{"ha":896,"x_min":93,"x_max":815,"o":"m 481 697 q 725 592 635 697 q 815 343 815 486 q 721 90 815 200 q 458 -19 626 -19 q 191 99 289 -19 q 93 397 93 218 q 161 726 93 576 q 354 965 229 875 q 632 1054 479 1054 q 732 1031 697 1054 q 767 968 767 1007 q 730 901 767 929 q 625 874 693 874 q 333 660 436 874 q 481 697 411 697 m 303 341 q 303 303 303 341 q 345 210 303 265 q 456 156 388 156 q 572 209 525 156 q 618 340 618 263 q 575 469 618 417 q 463 522 532 522 q 349 469 394 522 q 303 341 303 417 z "},"7":{"ha":776,"x_min":50,"x_max":735,"o":"m 389 1042 l 624 1050 q 705 1023 675 1050 q 735 951 735 996 q 710 853 735 906 q 628 693 686 800 q 493 414 569 586 q 376 94 417 242 q 338 13 361 39 q 276 -12 315 -12 q 210 15 238 -12 q 182 83 182 43 q 307 456 182 161 q 500 871 356 571 q 389 872 468 872 l 164 864 q 81 889 113 864 q 50 956 50 914 q 81 1024 50 999 q 164 1050 113 1050 l 389 1042 z "},"8":{"ha":922,"x_min":89,"x_max":833,"o":"m 833 297 q 729 73 833 165 q 461 -19 625 -19 q 193 73 297 -19 q 89 297 89 165 q 274 581 89 468 q 140 801 140 674 q 231 985 140 908 q 460 1063 322 1063 q 690 985 599 1063 q 782 794 782 908 q 656 581 782 679 q 833 297 833 465 m 638 297 q 461 481 638 404 q 285 297 285 404 q 335 194 285 233 q 461 156 386 156 q 587 194 536 156 q 638 297 638 233 m 589 800 q 550 861 589 836 q 462 886 511 886 q 373 861 413 886 q 333 800 333 836 q 464 674 333 740 q 589 800 589 738 z "},"9":{"ha":892,"x_min":78,"x_max":799,"o":"m 411 346 q 167 454 257 346 q 78 706 78 563 q 175 956 78 849 q 438 1063 272 1063 q 701 943 603 1063 q 799 640 799 824 q 646 170 799 361 q 260 -21 493 -21 q 161 5 196 -21 q 126 69 126 31 q 155 134 126 107 q 247 164 183 161 q 434 228 351 169 q 561 383 517 286 q 411 346 489 346 m 434 886 q 400 886 434 886 q 319 833 365 886 q 274 703 274 781 q 315 574 274 626 q 428 522 356 522 q 547 580 500 522 q 593 712 593 638 q 548 836 593 786 q 434 886 503 886 z "}," ":{"ha":435,"x_min":0,"x_max":0,"o":""},"!":{"ha":436,"x_min":111,"x_max":325,"o":"m 311 640 l 313 433 q 287 347 313 379 q 217 315 261 315 q 148 347 174 315 q 122 433 122 379 q 125 640 122 433 l 115 919 q 142 1020 115 985 q 218 1056 169 1056 q 294 1020 267 1056 q 321 919 321 985 l 311 640 m 222 207 q 245 207 222 207 q 297 176 269 207 q 325 99 325 144 q 293 16 325 53 q 213 -21 261 -21 q 138 11 165 -21 q 111 89 111 43 q 142 171 111 135 q 222 207 174 207 z "},"\"":{"ha":657,"x_min":83,"x_max":574,"o":"m 238 721 q 228 706 238 721 q 178 690 218 690 q 118 721 138 690 q 99 786 99 751 q 91 869 99 821 q 83 957 83 917 q 109 1026 83 997 q 178 1056 135 1056 q 247 1026 221 1056 q 272 957 272 997 q 265 869 272 917 q 257 786 257 821 q 238 721 257 751 m 539 721 q 529 706 539 721 q 479 690 519 690 q 419 721 439 690 q 400 786 400 751 q 392 869 400 821 q 385 957 385 917 q 410 1026 385 997 q 479 1056 436 1056 q 548 1026 522 1056 q 574 957 574 997 q 566 869 574 917 q 558 786 558 821 q 539 721 558 751 z "},"#":{"ha":1203,"x_min":74,"x_max":1129,"o":"m 485 397 l 682 399 q 715 576 708 528 l 519 576 q 499 471 511 528 q 485 397 488 414 m 246 738 l 378 733 q 391 804 383 756 q 407 890 399 853 q 506 989 428 989 q 568 960 547 989 q 589 899 589 931 q 575 813 589 868 q 556 729 561 757 l 742 729 q 755 803 747 751 q 771 892 763 854 q 869 990 792 990 q 932 961 911 990 q 953 901 953 932 q 939 814 953 869 q 919 732 925 758 l 1018 736 q 1101 713 1072 736 q 1129 651 1129 690 q 1018 569 1129 569 l 882 572 q 865 488 876 543 q 849 403 853 432 l 957 406 q 1069 324 1069 406 q 1041 262 1069 285 q 957 239 1013 239 l 821 243 q 808 167 815 217 q 796 88 801 118 q 701 -10 778 -10 q 644 15 669 -10 q 619 83 619 39 q 632 164 619 111 q 649 246 644 217 l 463 246 q 447 167 457 219 q 431 75 438 114 q 338 -12 413 -12 q 278 13 304 -12 q 253 73 253 38 q 266 161 253 108 q 285 244 279 214 l 185 240 q 102 263 131 240 q 74 325 74 286 q 185 407 74 407 l 321 404 q 338 489 326 433 q 354 574 350 544 l 246 571 q 133 653 133 571 q 162 715 133 692 q 246 738 190 738 z "},"$":{"ha":869,"x_min":79,"x_max":792,"o":"m 596 274 q 526 363 596 324 l 526 178 q 576 218 556 192 q 596 274 596 244 m 353 825 q 301 752 301 799 q 358 665 301 706 q 353 825 354 800 m 358 167 l 361 458 q 203 566 253 519 q 133 655 153 613 q 113 744 113 697 q 178 901 113 832 q 349 993 244 969 q 444 1114 357 1114 q 539 994 531 1114 q 683 935 625 976 q 740 850 740 894 q 718 783 740 806 q 668 761 696 761 q 618 769 640 761 q 569 792 596 778 q 535 808 543 806 q 532 569 532 736 q 771 369 726 464 q 792 274 792 325 q 723 101 792 176 q 540 -1 654 26 q 445 -131 532 -131 q 350 -10 358 -131 q 160 67 242 10 q 79 176 79 124 q 103 238 79 214 q 162 263 126 263 q 255 220 197 263 q 358 167 313 178 z "},"%":{"ha":1301,"x_min":74,"x_max":1229,"o":"m 922 946 q 844 786 922 874 l 596 67 q 494 -21 565 -21 q 436 4 460 -21 q 413 63 413 29 q 449 192 413 97 q 544 442 485 288 q 642 721 603 597 q 594 717 628 717 q 538 725 560 717 q 471 545 535 618 q 304 472 407 472 q 138 544 201 472 q 74 729 74 617 q 140 917 74 842 q 307 993 206 993 q 468 935 368 993 q 633 876 568 876 q 688 886 658 876 q 744 1022 719 993 q 817 1054 774 1054 q 892 1024 861 1054 q 922 946 922 994 m 997 500 q 1049 500 997 500 q 1165 428 1101 500 q 1229 243 1229 356 q 1163 55 1229 131 q 993 -21 1097 -21 q 825 52 889 -21 q 761 238 761 125 q 827 425 761 350 q 997 500 893 500 m 358 652 q 367 668 358 652 q 376 732 376 683 q 358 813 376 781 q 307 844 340 844 q 254 813 274 844 q 235 733 235 781 q 254 653 235 685 q 306 621 274 621 q 358 652 339 621 m 1047 158 q 1056 173 1047 158 q 1065 238 1065 189 q 1047 318 1065 286 q 996 350 1029 350 q 943 318 963 350 q 924 238 924 286 q 943 158 924 190 q 995 126 963 126 q 1047 158 1028 126 z "},"&":{"ha":1167,"x_min":75,"x_max":1129,"o":"m 663 544 l 756 542 q 938 631 938 542 q 914 686 938 663 q 861 722 890 710 q 808 755 832 733 q 785 810 785 776 q 808 867 785 843 q 879 890 832 890 q 1049 810 968 890 q 1129 622 1129 731 q 1049 450 1129 514 q 854 376 969 386 q 865 294 865 332 q 758 75 865 171 q 478 -21 650 -21 q 190 83 306 -21 q 75 342 75 186 q 111 499 75 422 q 210 633 147 576 q 140 811 140 715 q 215 985 140 907 q 426 1063 290 1063 q 587 1016 513 1063 q 661 922 661 969 q 635 851 661 874 q 578 829 610 829 q 501 858 546 829 q 419 886 456 886 q 358 864 383 886 q 332 797 332 842 q 375 718 332 751 q 425 721 403 721 q 514 694 479 721 q 549 620 549 667 q 511 547 549 574 q 431 521 474 521 q 358 529 389 521 q 269 353 269 467 q 327 210 269 264 q 478 156 385 156 q 624 204 572 156 q 676 310 676 253 q 668 365 676 336 q 603 339 639 339 q 543 365 568 339 q 518 438 518 392 q 558 514 518 483 q 663 544 599 544 z "},"'":{"ha":356,"x_min":83,"x_max":272,"o":"m 238 721 q 228 706 238 721 q 178 690 218 690 q 118 721 138 690 q 99 786 99 751 q 91 869 99 821 q 83 957 83 917 q 109 1026 83 997 q 178 1056 135 1056 q 247 1026 221 1056 q 272 957 272 997 q 265 869 272 917 q 257 786 257 821 q 238 721 257 751 z "},"(":{"ha":506,"x_min":72,"x_max":471,"o":"m 192 77 q 167 120 192 77 q 107 290 142 164 q 72 551 72 415 q 124 834 72 688 q 248 1070 175 981 q 382 1160 321 1160 q 447 1131 424 1160 q 471 1067 471 1103 q 438 981 471 1031 q 367 881 406 931 q 297 728 329 831 q 264 506 264 626 q 294 283 264 385 q 360 125 324 182 q 427 20 397 68 q 457 -53 457 -28 q 438 -98 457 -79 q 383 -117 418 -117 q 294 -63 347 -117 q 192 77 242 -10 z "},")":{"ha":506,"x_min":35,"x_max":433,"o":"m 258 1070 q 294 1025 258 1070 q 382 834 331 981 q 433 551 433 688 q 399 290 433 415 q 314 77 364 164 q 211 -63 264 -10 q 123 -117 158 -117 q 68 -98 88 -117 q 49 -53 49 -79 q 78 20 49 -28 q 145 125 108 68 q 212 283 182 182 q 242 506 242 385 q 209 728 242 626 q 138 881 176 831 q 67 981 100 931 q 35 1067 35 1031 q 58 1131 35 1103 q 124 1160 82 1160 q 258 1070 185 1160 z "},"*":{"ha":642,"x_min":94,"x_max":547,"o":"m 547 897 q 490 815 547 846 q 547 733 547 785 q 520 676 547 699 q 466 653 493 653 q 414 663 439 653 q 387 595 413 621 q 320 569 361 569 q 253 595 279 569 q 228 663 228 621 q 176 653 204 653 q 122 676 149 653 q 94 733 94 699 q 151 815 94 786 q 94 897 94 844 q 121 955 94 932 q 176 978 147 978 q 228 967 206 978 q 253 1036 228 1010 q 320 1063 279 1063 q 388 1036 361 1063 q 414 967 414 1010 q 465 978 436 978 q 521 955 494 978 q 547 897 547 932 z "},"+":{"ha":822,"x_min":74,"x_max":751,"o":"m 326 604 l 322 739 q 347 818 322 789 q 413 847 371 847 q 479 817 454 847 q 504 738 504 788 l 500 604 l 651 607 q 723 582 694 607 q 751 520 751 557 q 723 459 751 483 q 661 435 694 435 q 500 438 628 435 l 504 286 q 480 206 504 236 q 413 175 456 175 q 347 206 371 175 q 322 288 322 238 l 326 439 l 175 436 q 102 460 131 436 q 74 522 74 485 q 103 583 74 558 q 165 607 132 607 q 326 604 199 607 z "},",":{"ha":367,"x_min":46,"x_max":278,"o":"m 78 -4 l 64 101 q 95 185 64 149 q 174 221 126 221 q 250 188 222 221 q 278 107 278 154 q 218 -87 278 13 q 108 -187 158 -187 q 61 -168 76 -187 q 46 -127 46 -149 q 62 -69 46 -106 q 78 -4 78 -32 z "},"-":{"ha":694,"x_min":99,"x_max":596,"o":"m 349 600 l 496 607 q 567 582 539 607 q 596 521 596 557 q 567 460 596 485 q 496 435 539 435 l 349 442 l 200 436 q 128 460 157 436 q 99 521 99 485 q 128 581 99 557 q 200 606 157 606 l 349 600 z "},".":{"ha":399,"x_min":85,"x_max":313,"o":"m 202 228 q 227 228 202 228 q 283 194 253 228 q 313 113 313 161 q 278 25 313 64 q 194 -14 244 -14 q 114 20 143 -14 q 85 103 85 54 q 118 190 85 151 q 202 228 151 228 z "},"/":{"ha":628,"x_min":85,"x_max":542,"o":"m 99 69 q 107 97 99 69 q 151 254 114 124 q 219 517 188 385 q 333 1031 250 650 q 444 1165 365 1165 q 515 1137 488 1165 q 542 1071 542 1108 q 528 980 542 1033 q 476 794 514 926 q 293 18 413 567 q 275 -44 285 -19 q 241 -93 265 -69 q 178 -117 217 -117 q 112 -88 139 -117 q 85 -22 85 -60 q 99 69 85 15 z "},":":{"ha":425,"x_min":99,"x_max":326,"o":"m 216 228 q 241 228 216 228 q 297 194 267 228 q 326 113 326 161 q 292 25 326 64 q 208 -14 258 -14 q 128 20 157 -14 q 99 103 99 54 q 132 190 99 151 q 216 228 165 228 m 216 700 q 241 700 216 700 q 297 667 267 700 q 326 585 326 633 q 292 497 326 536 q 208 458 258 458 q 128 492 157 458 q 99 575 99 526 q 132 662 99 624 q 216 700 165 700 z "},";":{"ha":428,"x_min":72,"x_max":322,"o":"m 212 700 q 237 700 212 700 q 292 667 263 700 q 322 585 322 633 q 288 497 322 536 q 203 458 254 458 q 124 492 153 458 q 94 575 94 526 q 128 662 94 624 q 212 700 161 700 m 104 -4 l 90 101 q 122 185 90 149 q 201 221 153 221 q 276 188 249 221 q 304 107 304 154 q 244 -87 304 13 q 135 -187 185 -187 q 88 -168 103 -187 q 72 -127 72 -149 q 88 -69 72 -106 q 104 -4 104 -32 z "},"<":{"ha":867,"x_min":106,"x_max":804,"o":"m 411 567 q 394 560 411 567 q 356 541 376 553 q 335 523 335 529 q 356 505 335 517 q 411 478 376 493 q 486 449 446 464 q 569 418 526 433 q 647 392 613 403 q 706 372 681 381 q 732 363 731 363 q 804 276 804 333 q 781 219 804 242 q 728 197 757 197 q 665 208 699 197 q 600 231 632 218 q 502 274 568 244 q 397 319 436 303 q 316 350 357 335 q 255 374 275 365 q 206 395 235 382 q 163 419 176 408 q 133 447 149 431 q 106 510 106 475 q 111 565 106 546 q 133 599 117 583 q 163 626 149 615 q 206 651 176 638 q 255 673 235 665 q 316 697 275 681 q 397 728 357 713 q 502 774 436 744 q 600 817 568 803 q 719 850 682 850 q 781 828 757 850 q 804 771 804 806 q 732 685 804 714 q 706 676 731 685 q 647 656 681 667 q 569 629 613 644 q 486 598 526 614 q 411 567 446 582 z "},"=":{"ha":922,"x_min":115,"x_max":807,"o":"m 463 751 l 707 758 q 778 733 750 758 q 807 672 807 708 q 778 611 807 636 q 707 586 750 586 l 463 593 l 217 588 q 144 612 174 588 q 115 672 115 636 q 144 733 115 708 q 217 757 174 757 l 463 751 m 463 450 l 707 457 q 778 432 750 457 q 807 371 807 407 q 778 310 807 335 q 707 285 750 285 l 463 292 l 217 286 q 144 310 174 286 q 115 371 115 335 q 144 431 115 407 q 217 456 174 456 l 463 450 z "},">":{"ha":867,"x_min":63,"x_max":761,"o":"m 456 478 q 473 486 456 478 q 511 505 490 493 q 532 523 532 517 q 511 541 532 529 q 456 567 490 553 q 381 598 421 582 q 297 629 340 614 q 220 656 254 644 q 161 676 186 667 q 135 685 136 685 q 63 771 63 714 q 86 828 63 806 q 139 850 110 850 q 201 840 168 850 q 267 816 235 829 q 365 774 299 803 q 470 728 431 744 q 551 697 510 713 q 612 673 592 681 q 661 651 632 665 q 704 626 690 638 q 733 600 718 615 q 761 522 761 572 q 740 453 761 475 q 704 419 718 431 q 661 395 690 408 q 612 374 632 382 q 551 350 592 365 q 470 319 510 335 q 365 274 431 303 q 267 231 299 244 q 147 197 185 197 q 86 219 110 197 q 63 276 63 242 q 135 363 63 333 q 161 372 136 363 q 220 392 186 381 q 297 418 254 403 q 381 449 340 433 q 456 478 421 464 z "},"?":{"ha":760,"x_min":75,"x_max":683,"o":"m 683 789 q 643 669 683 731 q 554 565 603 607 q 425 401 425 454 q 333 285 425 285 q 265 315 292 285 q 238 397 238 346 q 263 494 238 449 q 325 574 289 539 q 397 643 361 610 q 486 789 486 724 q 451 859 486 832 q 370 886 415 886 q 291 859 325 886 q 227 805 257 832 q 160 778 197 778 q 99 803 122 778 q 75 864 75 829 q 165 997 75 929 q 364 1064 256 1064 q 594 985 506 1064 q 683 789 683 906 m 331 207 q 355 207 331 207 q 407 176 379 207 q 435 99 435 144 q 403 16 435 53 q 323 -21 371 -21 q 248 11 275 -21 q 221 89 221 43 q 252 171 221 135 q 331 207 283 207 z "},"@":{"ha":1360,"x_min":75,"x_max":1271,"o":"m 1271 511 q 1183 267 1271 365 q 976 169 1096 169 q 796 246 856 169 q 628 169 724 169 q 508 199 561 169 q 426 276 456 229 q 368 475 368 371 q 455 708 368 610 q 675 807 542 807 q 775 776 725 807 q 850 807 801 807 q 942 671 942 807 q 928 572 942 654 q 915 438 915 490 q 982 339 915 339 q 1056 381 1024 339 q 1089 514 1089 422 q 970 796 1089 699 q 677 893 851 893 q 383 773 503 893 q 264 472 264 653 q 368 188 264 292 q 617 85 472 85 q 722 100 663 85 q 815 115 781 115 q 872 97 849 115 q 894 47 894 78 q 817 -41 894 -6 q 613 -76 739 -76 q 230 76 385 -76 q 75 471 75 228 q 248 888 75 714 q 678 1063 421 1063 q 1103 914 936 1063 q 1271 511 1271 765 m 750 457 l 750 614 q 668 644 713 644 q 587 597 624 644 q 550 484 550 550 q 571 374 550 418 q 636 331 592 331 q 750 457 694 331 z "},"A":{"ha":961,"x_min":71,"x_max":899,"o":"m 631 307 q 451 313 522 313 q 326 310 381 313 q 285 181 310 267 q 249 60 261 96 q 157 -14 224 -14 q 94 10 118 -14 q 71 76 71 33 q 143 306 71 118 q 71 389 71 322 q 200 479 71 479 q 275 694 219 539 q 347 898 331 850 q 372 967 363 946 q 396 1011 381 988 q 483 1056 425 1056 q 560 1029 526 1056 q 597 965 581 1013 q 631 865 614 917 q 669 758 649 813 q 724 599 689 703 q 765 479 760 494 q 790 481 772 481 q 868 453 838 481 q 899 388 899 426 q 821 303 899 324 q 899 69 899 101 q 873 12 899 38 q 806 -14 847 -14 q 714 56 743 -14 q 631 307 707 72 m 376 469 q 479 467 411 467 q 582 469 547 467 q 481 797 492 797 q 400 551 471 797 l 376 469 z "},"B":{"ha":1011,"x_min":89,"x_max":938,"o":"m 938 307 q 812 68 938 157 q 498 -21 686 -21 q 199 19 310 -21 q 89 119 89 58 q 150 196 89 185 q 154 526 154 335 q 150 822 154 717 q 93 896 93 849 q 138 976 93 943 q 249 1026 183 1008 q 479 1063 379 1063 q 658 1035 579 1063 q 781 964 736 1008 q 867 781 867 878 q 760 571 867 661 q 888 457 838 528 q 938 307 938 386 m 351 164 q 501 154 404 154 q 668 195 597 154 q 739 315 739 236 q 681 414 739 374 q 556 468 624 454 q 433 449 482 449 q 344 451 383 449 q 351 164 347 210 m 678 779 q 628 854 678 821 q 497 888 579 888 q 347 871 414 888 l 347 642 q 444 647 400 647 q 539 636 488 647 q 630 680 582 642 q 678 779 678 718 z "},"C":{"ha":978,"x_min":88,"x_max":915,"o":"m 915 168 q 810 42 915 104 q 556 -21 704 -21 q 221 138 354 -21 q 88 522 88 296 q 222 906 88 749 q 557 1063 356 1063 q 787 1010 685 1063 q 889 890 889 957 q 863 826 889 850 q 795 801 836 801 q 693 844 754 801 q 557 886 632 886 q 362 778 439 886 q 285 523 285 671 q 361 265 285 375 q 551 154 438 154 q 764 214 664 154 q 842 242 810 242 q 895 221 875 242 q 915 168 915 200 z "},"D":{"ha":1076,"x_min":90,"x_max":990,"o":"m 160 521 l 153 838 q 96 917 96 854 q 156 993 96 958 q 294 1044 217 1028 q 442 1060 372 1060 q 685 1014 578 1060 q 858 892 793 968 q 990 517 990 735 q 863 150 990 307 q 695 26 800 72 q 446 -21 590 -21 q 196 21 301 -21 q 90 125 90 63 q 156 203 90 188 l 160 521 m 794 522 q 703 779 794 672 q 442 886 613 886 q 353 874 394 886 q 349 526 349 789 q 354 164 349 264 q 454 154 399 154 q 646 208 567 154 q 794 522 794 313 z "},"E":{"ha":874,"x_min":72,"x_max":814,"o":"m 481 0 l 269 -8 q 184 25 218 -8 q 150 114 150 58 l 158 463 q 72 553 72 475 q 96 614 72 590 q 157 644 119 638 l 150 899 q 135 967 135 928 q 267 1050 135 1050 l 478 1042 l 696 1050 q 780 1024 749 1050 q 811 956 811 999 q 780 888 811 913 q 696 864 749 864 l 478 872 q 347 868 403 872 l 347 638 q 407 636 369 636 l 631 646 q 713 620 681 646 q 744 552 744 594 q 713 485 744 510 q 631 461 681 461 l 411 469 l 392 469 q 347 468 372 468 q 350 172 347 275 q 481 169 388 169 l 699 178 q 783 153 751 178 q 814 86 814 129 q 783 17 814 43 q 699 -8 751 -8 l 481 0 z "},"F":{"ha":861,"x_min":72,"x_max":811,"o":"m 147 136 l 158 463 q 72 553 72 475 q 96 614 72 590 q 157 644 119 638 l 150 899 q 135 967 135 928 q 267 1050 135 1050 q 478 1042 267 1050 l 696 1050 q 780 1024 749 1050 q 811 956 811 999 q 780 888 811 913 q 696 864 749 864 l 478 872 q 347 868 403 872 l 347 638 q 393 636 364 636 l 617 646 q 699 620 667 646 q 731 551 731 594 q 699 485 731 508 q 617 461 668 461 l 397 469 l 383 469 q 347 468 368 468 q 358 136 358 235 q 253 -14 358 -14 q 147 136 147 -14 z "},"G":{"ha":1064,"x_min":89,"x_max":990,"o":"m 556 590 l 714 582 l 876 590 q 958 558 926 590 q 990 478 990 526 q 869 115 990 250 q 551 -21 747 -21 q 222 138 356 -21 q 89 522 89 296 q 226 906 89 749 q 574 1063 364 1063 q 818 1004 708 1063 q 928 878 928 946 q 903 816 928 839 q 839 793 878 793 q 765 816 800 793 q 685 863 731 839 q 574 886 639 886 q 367 779 449 886 q 286 524 286 672 q 363 265 286 375 q 558 154 440 154 q 710 222 647 154 q 785 411 772 289 q 710 413 769 413 l 556 406 q 472 431 504 406 q 440 499 440 457 q 472 566 440 542 q 556 590 504 590 z "},"H":{"ha":1078,"x_min":68,"x_max":1011,"o":"m 729 629 l 721 904 q 826 1056 721 1056 q 931 904 931 1056 q 921 636 931 818 q 987 601 963 628 q 1011 539 1011 575 q 988 476 1011 503 q 921 444 964 450 l 931 136 q 826 -14 931 -14 q 721 136 721 -14 l 729 451 l 536 456 l 349 451 l 358 136 q 253 -14 358 -14 q 147 136 147 -14 l 157 444 q 91 477 114 450 q 68 540 68 504 q 92 601 68 575 q 157 636 117 628 l 149 903 q 254 1054 149 1054 q 360 903 360 1054 q 350 629 360 814 l 536 625 q 729 629 631 625 z "},"I":{"ha":681,"x_min":58,"x_max":626,"o":"m 174 1050 l 343 1042 l 513 1050 q 595 1025 564 1050 q 626 958 626 1000 q 595 890 626 915 q 513 865 564 865 l 447 869 q 438 520 438 664 q 447 171 438 376 q 513 176 497 176 q 595 151 564 176 q 626 84 626 126 q 595 17 626 42 q 513 -8 564 -8 l 343 0 l 174 -10 q 90 15 121 -10 q 58 83 58 40 q 90 151 58 126 q 174 175 121 175 l 239 169 q 249 519 249 375 q 239 869 249 664 q 159 865 197 865 q 90 890 121 865 q 58 957 58 914 q 90 1025 58 1000 q 174 1050 121 1050 z "},"J":{"ha":832,"x_min":60,"x_max":768,"o":"m 461 1042 l 654 1050 q 737 1025 706 1050 q 768 957 768 1000 q 679 865 768 882 q 678 365 678 761 q 649 183 678 261 q 569 63 619 106 q 347 -21 472 -21 q 140 33 221 -21 q 60 143 60 86 q 85 206 60 182 q 145 229 110 229 q 233 192 181 229 q 344 156 286 156 q 446 213 403 156 q 489 393 489 269 l 486 871 l 294 863 q 211 888 242 863 q 181 956 181 913 q 212 1024 181 999 q 294 1050 243 1050 l 461 1042 z "},"K":{"ha":974,"x_min":142,"x_max":947,"o":"m 353 903 q 343 649 353 882 q 406 651 390 651 q 476 644 421 651 q 578 774 531 690 q 654 947 625 857 q 758 1056 688 1056 q 823 1030 796 1056 q 850 965 850 1004 q 782 753 850 883 q 629 532 714 624 q 778 281 696 392 q 893 153 860 169 q 917 147 901 149 q 940 138 933 144 q 947 113 947 132 q 913 26 947 67 q 828 -14 879 -14 q 734 20 776 -14 q 633 143 692 54 q 453 443 574 232 q 378 435 403 435 q 343 438 354 435 l 353 138 q 247 -14 353 -14 q 142 138 142 -14 l 153 528 l 142 903 q 247 1054 142 1054 q 353 903 353 1054 z "},"L":{"ha":826,"x_min":142,"x_max":779,"o":"m 474 169 l 664 178 q 748 153 717 178 q 779 86 779 129 q 748 17 779 43 q 664 -8 717 -8 l 474 0 l 264 -8 q 178 25 213 -8 q 144 114 144 58 l 153 528 l 142 904 q 247 1056 142 1056 q 353 904 353 1056 l 342 528 q 351 172 342 457 q 474 169 424 169 z "},"M":{"ha":1258,"x_min":143,"x_max":1124,"o":"m 1113 519 l 1124 139 q 1018 -11 1124 -11 q 913 139 913 -11 q 919 347 913 197 q 925 568 925 497 l 726 225 q 633 156 689 156 q 540 222 576 156 l 342 565 l 354 136 q 249 -14 354 -14 q 143 136 143 -14 l 154 517 l 147 942 q 177 1026 147 996 q 249 1056 207 1056 q 346 986 310 1056 q 635 439 624 439 q 853 851 646 439 l 921 989 q 1018 1058 957 1058 q 1090 1028 1060 1058 q 1119 944 1119 999 l 1113 519 z "},"N":{"ha":1063,"x_min":146,"x_max":921,"o":"m 910 528 l 914 111 q 810 -14 914 -14 q 714 43 749 -14 l 350 653 q 347 542 347 619 l 357 136 q 251 -14 357 -14 q 146 136 146 -14 l 157 514 q 151 701 157 565 q 146 932 146 838 q 249 1056 146 1056 q 351 1000 319 1056 l 722 364 l 721 528 l 710 906 q 815 1056 710 1056 q 921 906 921 1056 l 910 528 z "},"O":{"ha":1143,"x_min":88,"x_max":1056,"o":"m 572 154 q 633 154 572 154 q 776 265 694 154 q 858 523 858 376 q 777 778 858 669 q 572 888 696 888 q 366 778 447 888 q 285 523 285 669 q 367 265 285 376 q 572 154 449 154 m 573 1063 q 676 1063 573 1063 q 917 905 779 1063 q 1056 522 1056 747 q 917 138 1056 296 q 572 -21 778 -21 q 226 138 365 -21 q 88 522 88 296 q 227 905 88 747 q 573 1063 367 1063 z "},"P":{"ha":913,"x_min":86,"x_max":889,"o":"m 135 136 l 146 514 q 136 821 146 578 q 86 910 86 849 q 128 985 86 953 q 232 1033 169 1017 q 449 1063 349 1063 q 776 960 664 1063 q 889 711 889 858 q 777 461 889 564 q 489 358 665 358 q 338 364 383 358 l 346 136 q 240 -14 346 -14 q 135 136 135 -14 m 335 547 q 495 532 417 532 q 633 581 574 532 q 692 709 692 631 q 629 837 692 788 q 456 886 567 886 q 342 869 394 886 q 335 547 335 699 z "},"Q":{"ha":1146,"x_min":86,"x_max":1060,"o":"m 1060 519 q 1003 269 1060 385 q 851 79 947 154 q 911 -44 911 -6 q 888 -107 911 -83 q 829 -131 864 -131 q 766 -102 794 -131 q 704 -4 738 -74 q 571 -21 649 -21 q 225 137 364 -21 q 86 520 86 294 q 226 904 86 746 q 574 1063 365 1063 q 921 905 782 1063 q 1060 519 1060 747 m 863 519 q 780 778 863 668 q 572 888 697 888 q 365 778 447 888 q 283 522 283 668 q 366 265 283 376 q 572 154 449 154 q 613 157 588 154 q 558 247 567 225 q 550 294 550 268 q 574 344 550 321 q 632 368 599 368 q 692 342 665 368 q 751 240 719 317 q 833 365 804 292 q 863 519 863 439 z "},"R":{"ha":971,"x_min":86,"x_max":940,"o":"m 142 136 l 153 514 q 144 828 153 619 q 86 908 86 851 q 128 978 86 947 q 233 1028 171 1010 q 450 1063 358 1063 q 764 967 657 1063 q 871 735 871 872 q 821 576 871 654 q 688 449 771 497 q 890 151 826 172 q 910 145 899 149 q 924 140 921 142 q 932 137 926 139 q 939 131 938 135 q 940 108 940 121 q 902 20 940 56 q 817 -15 864 -15 q 671 81 742 -15 q 504 389 600 178 q 424 386 468 386 q 342 394 381 386 q 353 136 353 206 q 247 -14 353 -14 q 142 136 142 -14 m 342 582 q 447 596 388 596 q 567 578 506 596 q 639 636 604 593 q 674 726 674 679 q 618 843 674 800 q 457 886 563 886 q 349 869 410 886 q 342 582 342 613 z "},"S":{"ha":844,"x_min":69,"x_max":776,"o":"m 776 296 q 675 70 776 161 q 413 -21 574 -21 q 176 41 283 -21 q 69 171 69 103 q 95 233 69 208 q 159 257 121 257 q 234 231 197 257 q 315 180 271 206 q 422 154 358 154 q 533 192 485 154 q 581 296 581 231 q 461 436 581 365 q 384 481 438 450 q 303 528 331 511 q 230 578 275 544 q 161 642 185 613 q 103 797 103 714 q 197 984 103 906 q 417 1063 290 1063 q 635 1014 544 1063 q 725 904 725 965 q 700 842 725 864 q 638 819 675 819 q 540 853 600 819 q 428 888 481 888 q 338 862 376 888 q 300 797 300 836 q 353 717 300 756 q 462 647 394 686 q 558 591 529 608 q 637 536 588 574 q 711 468 686 499 q 756 392 736 438 q 776 296 776 346 z "},"T":{"ha":840,"x_min":44,"x_max":803,"o":"m 524 514 l 535 136 q 429 -14 535 -14 q 324 136 324 -14 l 335 514 q 325 872 335 628 l 160 864 q 76 889 107 864 q 44 957 44 914 q 76 1025 44 1000 q 160 1050 107 1050 l 424 1042 l 688 1050 q 772 1025 740 1050 q 803 957 803 1000 q 772 889 803 914 q 688 864 740 864 l 531 872 q 524 514 524 689 z "},"U":{"ha":1032,"x_min":119,"x_max":911,"o":"m 911 906 l 897 356 q 798 90 897 200 q 515 -21 699 -21 q 233 89 332 -21 q 133 354 133 199 l 119 904 q 225 1056 119 1056 q 331 904 331 1056 l 321 458 q 418 178 321 238 q 516 154 458 154 q 613 178 574 154 q 672 247 653 203 q 710 460 710 331 l 700 906 q 806 1057 700 1057 q 911 906 911 1057 z "},"V":{"ha":925,"x_min":42,"x_max":888,"o":"m 585 88 q 531 10 567 33 q 459 -14 496 -14 q 386 12 422 -14 q 332 92 350 38 q 162 589 224 418 q 78 822 100 760 q 42 958 42 922 q 65 1025 42 994 q 133 1056 89 1056 q 235 969 207 1056 q 328 672 267 869 q 460 274 450 274 q 544 494 471 274 q 689 958 617 715 q 788 1056 718 1056 q 860 1026 833 1056 q 888 965 888 997 q 857 847 888 933 q 744 538 826 760 q 585 88 663 317 z "},"W":{"ha":1324,"x_min":44,"x_max":1275,"o":"m 1000 69 q 958 6 983 26 q 888 -14 932 -14 q 772 88 807 -14 q 731 232 754 139 q 669 443 676 443 q 638 359 661 443 q 607 250 614 275 q 557 73 583 160 q 444 -14 531 -14 q 332 65 358 -14 q 233 359 314 104 q 121 706 153 614 q 75 838 89 799 q 44 966 44 924 q 71 1032 44 1008 q 138 1056 97 1056 q 243 957 213 1056 q 342 633 272 856 q 453 297 447 297 q 531 558 464 297 l 553 646 q 665 776 585 776 q 744 744 717 776 q 789 646 772 711 q 896 300 885 300 q 1085 947 910 300 q 1178 1056 1115 1056 q 1250 1027 1225 1056 q 1275 969 1275 999 q 1267 905 1275 940 q 1248 838 1258 869 q 1215 741 1238 807 q 1172 607 1193 675 q 1111 418 1150 539 q 1000 69 1031 163 z "},"X":{"ha":983,"x_min":53,"x_max":931,"o":"m 367 546 q 167 836 232 761 q 89 883 135 876 q 69 889 76 886 q 53 940 53 897 q 84 1021 53 983 q 161 1058 115 1058 q 308 960 246 1058 l 474 700 q 560 842 515 763 q 626 960 604 922 q 679 1027 649 999 q 745 1056 710 1056 q 806 1028 781 1056 q 832 966 832 1001 q 810 893 832 931 q 717 754 788 856 q 579 538 647 653 q 817 204 738 296 q 894 156 849 164 q 914 151 907 154 q 931 100 931 143 q 899 19 931 57 q 822 -18 868 -18 q 676 81 744 -18 l 469 383 q 368 215 428 321 q 281 67 308 108 q 175 -12 228 -12 q 112 15 138 -12 q 86 76 86 42 q 115 160 86 111 q 222 319 144 208 q 367 546 299 431 z "},"Y":{"ha":836,"x_min":28,"x_max":808,"o":"m 310 136 q 319 407 310 203 q 197 627 275 497 q 74 840 119 757 q 28 962 28 922 q 52 1028 28 1001 q 115 1056 76 1056 q 174 1042 153 1056 q 218 991 194 1029 q 263 910 242 953 q 421 608 347 733 q 550 850 500 747 q 623 991 600 953 q 666 1042 646 1029 q 723 1056 686 1056 q 784 1027 760 1056 q 808 962 808 999 q 761 841 808 925 q 635 627 714 757 q 511 406 556 497 q 521 136 521 221 q 415 -14 521 -14 q 310 136 310 -14 z "},"Z":{"ha":857,"x_min":57,"x_max":804,"o":"m 464 169 l 690 178 q 773 153 742 178 q 804 85 804 128 q 773 17 804 43 q 690 -8 742 -8 l 464 0 l 168 -8 q 57 81 57 -8 q 122 228 57 135 q 353 586 235 388 l 522 871 q 411 872 490 872 l 186 864 q 103 889 135 864 q 72 956 72 914 q 103 1024 72 999 q 186 1050 135 1050 l 411 1042 l 674 1050 q 785 964 785 1050 q 763 878 785 919 q 663 725 740 836 q 515 496 586 614 l 321 171 q 464 169 365 169 z "},"[":{"ha":628,"x_min":113,"x_max":585,"o":"m 317 54 l 469 60 q 552 35 519 60 q 585 -30 585 11 q 553 -95 585 -71 q 469 -119 521 -119 l 347 -115 l 219 -121 q 143 -92 172 -121 q 114 -15 114 -64 l 121 521 l 113 1060 q 142 1138 113 1111 q 219 1165 171 1165 l 347 1160 l 469 1164 q 552 1139 519 1164 q 585 1074 585 1114 q 552 1010 585 1035 q 469 985 519 985 l 317 989 q 308 526 308 758 q 317 54 308 294 z "},"\\":{"ha":628,"x_min":86,"x_max":543,"o":"m 294 1031 q 409 517 378 650 q 477 254 440 385 q 528 69 514 124 q 543 -22 543 15 q 516 -88 543 -60 q 450 -117 489 -117 q 387 -93 411 -117 q 353 -44 363 -69 q 302 169 343 -19 q 225 509 261 357 q 151 794 189 661 q 100 980 114 926 q 86 1071 86 1033 q 113 1137 86 1108 q 183 1165 140 1165 q 294 1031 263 1165 z "},"]":{"ha":628,"x_min":43,"x_max":515,"o":"m 281 -115 l 158 -119 q 75 -95 107 -119 q 43 -30 43 -71 q 76 35 43 11 q 158 60 108 60 l 311 54 q 319 526 319 294 q 311 989 319 758 q 158 985 311 989 q 76 1010 108 985 q 43 1074 43 1035 q 76 1139 43 1114 q 158 1164 108 1164 l 281 1160 l 408 1165 q 486 1138 457 1165 q 515 1060 515 1111 l 507 521 l 514 -15 q 485 -92 514 -64 q 408 -121 456 -121 l 281 -115 z "},"^":{"ha":821,"x_min":71,"x_max":754,"o":"m 282 975 q 413 1057 325 1057 q 540 980 500 1057 q 619 843 581 903 q 681 748 657 783 q 713 699 704 713 q 733 661 721 685 q 754 589 754 624 q 731 529 754 554 q 677 504 707 504 q 628 515 647 504 q 592 551 608 526 q 564 600 576 575 q 413 858 443 858 q 331 740 394 858 q 278 637 307 699 q 233 550 249 575 q 160 504 201 504 q 94 529 118 504 q 71 580 71 554 q 75 622 71 606 q 92 662 79 639 q 113 699 104 685 q 144 747 121 713 q 282 975 233 881 z "},"_":{"ha":869,"x_min":74,"x_max":793,"o":"m 435 -14 l 693 -7 q 765 -32 736 -7 q 793 -93 793 -57 q 765 -154 793 -129 q 693 -179 736 -179 l 435 -172 l 175 -178 q 103 -153 132 -178 q 74 -93 74 -129 q 103 -33 74 -57 q 175 -8 132 -8 l 435 -14 z "},"`":{"ha":475,"x_min":108,"x_max":371,"o":"m 108 940 q 131 1006 108 976 q 185 1036 153 1036 q 235 1030 218 1036 q 263 1010 251 1024 q 281 985 275 996 q 297 952 288 975 q 310 923 307 929 q 342 874 314 917 q 371 808 371 832 q 353 767 371 785 q 303 750 335 750 q 181 811 253 750 q 108 940 108 872 z "},"a":{"ha":1122,"x_min":86,"x_max":1036,"o":"m 836 1063 q 926 1016 893 1063 q 958 899 958 969 q 919 508 958 829 q 935 310 919 433 q 978 169 951 188 q 1014 149 1003 153 q 1029 142 1025 144 q 1036 114 1036 135 q 1000 21 1036 61 q 906 -19 964 -19 q 811 30 849 -19 q 760 156 774 79 q 457 -21 631 -21 q 290 27 364 -21 q 174 153 217 75 q 86 504 86 311 q 208 897 86 732 q 525 1063 331 1063 q 742 1001 639 1063 q 836 1063 763 1063 m 744 496 l 738 801 q 525 886 639 886 q 356 777 429 886 q 283 514 283 668 q 331 258 283 360 q 465 156 379 156 q 638 269 550 156 q 744 496 726 383 z "},"b":{"ha":1011,"x_min":89,"x_max":938,"o":"m 938 307 q 812 68 938 157 q 498 -21 686 -21 q 199 19 310 -21 q 89 119 89 58 q 150 196 89 185 q 154 526 154 335 q 150 822 154 717 q 93 896 93 849 q 138 976 93 943 q 249 1026 183 1008 q 479 1063 379 1063 q 658 1035 579 1063 q 781 964 736 1008 q 867 781 867 878 q 760 571 867 661 q 888 457 838 528 q 938 307 938 386 m 351 164 q 501 154 404 154 q 668 195 597 154 q 739 315 739 236 q 681 414 739 374 q 556 468 624 454 q 433 449 482 449 q 344 451 383 449 q 351 164 347 210 m 678 779 q 628 854 678 821 q 497 888 579 888 q 347 871 414 888 l 347 642 q 444 647 400 647 q 539 636 488 647 q 630 680 582 642 q 678 779 678 718 z "},"c":{"ha":978,"x_min":88,"x_max":915,"o":"m 915 168 q 810 42 915 104 q 556 -21 704 -21 q 221 138 354 -21 q 88 522 88 296 q 222 906 88 749 q 557 1063 356 1063 q 787 1010 685 1063 q 889 890 889 957 q 863 826 889 850 q 795 801 836 801 q 693 844 754 801 q 557 886 632 886 q 362 778 439 886 q 285 523 285 671 q 361 265 285 375 q 551 154 438 154 q 764 214 664 154 q 842 242 810 242 q 895 221 875 242 q 915 168 915 200 z "},"d":{"ha":1076,"x_min":90,"x_max":990,"o":"m 160 521 l 153 838 q 96 917 96 854 q 156 993 96 958 q 294 1044 217 1028 q 442 1060 372 1060 q 685 1014 578 1060 q 858 892 793 968 q 990 517 990 735 q 863 150 990 307 q 695 26 800 72 q 446 -21 590 -21 q 196 21 301 -21 q 90 125 90 63 q 156 203 90 188 l 160 521 m 794 522 q 703 779 794 672 q 442 886 613 886 q 353 874 394 886 q 349 526 349 789 q 354 164 349 264 q 454 154 399 154 q 646 208 567 154 q 794 522 794 313 z "},"e":{"ha":1033,"x_min":58,"x_max":974,"o":"m 776 753 q 736 844 776 803 q 621 886 696 886 q 453 803 522 886 q 357 603 385 719 q 544 583 440 583 q 712 628 647 583 q 776 753 776 672 m 942 168 q 839 47 942 114 q 619 -21 736 -21 q 419 20 503 -21 q 281 131 335 61 q 153 468 167 274 q 58 583 58 506 q 84 647 58 622 q 147 671 110 671 q 172 667 158 671 q 338 951 221 839 q 610 1063 454 1063 q 870 973 767 1063 q 974 759 974 883 q 911 556 974 635 q 546 411 793 411 q 356 429 464 411 q 443 233 376 313 q 596 154 510 154 q 800 219 692 154 q 867 242 836 242 q 919 221 897 242 q 942 168 942 200 z "},"f":{"ha":861,"x_min":72,"x_max":811,"o":"m 147 136 l 158 463 q 72 553 72 475 q 96 614 72 590 q 157 644 119 638 l 150 899 q 135 967 135 928 q 267 1050 135 1050 q 478 1042 267 1050 l 696 1050 q 780 1024 749 1050 q 811 956 811 999 q 780 888 811 913 q 696 864 749 864 l 478 872 q 347 868 403 872 l 347 638 q 393 636 364 636 l 617 646 q 699 620 667 646 q 731 551 731 594 q 699 485 731 508 q 617 461 668 461 l 397 469 l 383 469 q 347 468 368 468 q 358 136 358 235 q 253 -14 358 -14 q 147 136 147 -14 z "},"g":{"ha":1064,"x_min":89,"x_max":990,"o":"m 556 590 l 714 582 l 876 590 q 958 558 926 590 q 990 478 990 526 q 869 115 990 250 q 551 -21 747 -21 q 222 138 356 -21 q 89 522 89 296 q 226 906 89 749 q 574 1063 364 1063 q 818 1004 708 1063 q 928 878 928 946 q 903 816 928 839 q 839 793 878 793 q 765 816 800 793 q 685 863 731 839 q 574 886 639 886 q 367 779 449 886 q 286 524 286 672 q 363 265 286 375 q 558 154 440 154 q 710 222 647 154 q 785 411 772 289 q 710 413 769 413 l 556 406 q 472 431 504 406 q 440 499 440 457 q 472 566 440 542 q 556 590 504 590 z "},"h":{"ha":1078,"x_min":68,"x_max":1011,"o":"m 729 629 l 721 904 q 826 1056 721 1056 q 931 904 931 1056 q 921 636 931 818 q 987 601 963 628 q 1011 539 1011 575 q 988 476 1011 503 q 921 444 964 450 l 931 136 q 826 -14 931 -14 q 721 136 721 -14 l 729 451 l 536 456 l 349 451 l 358 136 q 253 -14 358 -14 q 147 136 147 -14 l 157 444 q 91 477 114 450 q 68 540 68 504 q 92 601 68 575 q 157 636 117 628 l 149 903 q 254 1054 149 1054 q 360 903 360 1054 q 350 629 360 814 l 536 625 q 729 629 631 625 z "},"i":{"ha":681,"x_min":58,"x_max":626,"o":"m 174 1050 l 343 1042 l 513 1050 q 595 1025 564 1050 q 626 958 626 1000 q 595 890 626 915 q 513 865 564 865 l 447 869 q 438 520 438 664 q 447 171 438 376 q 513 176 497 176 q 595 151 564 176 q 626 84 626 126 q 595 17 626 42 q 513 -8 564 -8 l 343 0 l 174 -10 q 90 15 121 -10 q 58 83 58 40 q 90 151 58 126 q 174 175 121 175 l 239 169 q 249 519 249 375 q 239 869 249 664 q 159 865 197 865 q 90 890 121 865 q 58 957 58 914 q 90 1025 58 1000 q 174 1050 121 1050 z "},"j":{"ha":832,"x_min":60,"x_max":768,"o":"m 461 1042 l 654 1050 q 737 1025 706 1050 q 768 957 768 1000 q 679 865 768 882 q 678 365 678 761 q 649 183 678 261 q 569 63 619 106 q 347 -21 472 -21 q 140 33 221 -21 q 60 143 60 86 q 85 206 60 182 q 145 229 110 229 q 233 192 181 229 q 344 156 286 156 q 446 213 403 156 q 489 393 489 269 l 486 871 l 294 863 q 211 888 242 863 q 181 956 181 913 q 212 1024 181 999 q 294 1050 243 1050 l 461 1042 z "},"k":{"ha":974,"x_min":142,"x_max":947,"o":"m 353 903 q 343 649 353 882 q 406 651 390 651 q 476 644 421 651 q 578 774 531 690 q 654 947 625 857 q 758 1056 688 1056 q 823 1030 796 1056 q 850 965 850 1004 q 782 753 850 883 q 629 532 714 624 q 778 281 696 392 q 893 153 860 169 q 917 147 901 149 q 940 138 933 144 q 947 113 947 132 q 913 26 947 67 q 828 -14 879 -14 q 734 20 776 -14 q 633 143 692 54 q 453 443 574 232 q 378 435 403 435 q 343 438 354 435 l 353 138 q 247 -14 353 -14 q 142 138 142 -14 l 153 528 l 142 903 q 247 1054 142 1054 q 353 903 353 1054 z "},"l":{"ha":826,"x_min":142,"x_max":779,"o":"m 474 169 l 664 178 q 748 153 717 178 q 779 86 779 129 q 748 17 779 43 q 664 -8 717 -8 l 474 0 l 264 -8 q 178 25 213 -8 q 144 114 144 58 l 153 528 l 142 904 q 247 1056 142 1056 q 353 904 353 1056 l 342 528 q 351 172 342 457 q 474 169 424 169 z "},"m":{"ha":1689,"x_min":101,"x_max":1603,"o":"m 314 544 l 322 136 q 218 -14 322 -14 q 101 163 101 -14 q 138 539 101 301 q 122 738 138 604 q 107 933 107 871 q 135 1027 107 994 q 213 1060 163 1060 q 314 903 314 1060 q 597 1056 429 1056 q 772 1007 697 1056 q 886 878 846 958 q 1017 1004 936 953 q 1190 1056 1097 1056 q 1434 947 1347 1056 q 1521 681 1521 838 l 1513 326 q 1529 178 1513 193 q 1565 161 1543 165 q 1595 148 1588 157 q 1603 122 1603 139 q 1563 24 1603 64 q 1471 -17 1524 -17 q 1350 44 1383 -17 q 1317 222 1317 104 l 1324 594 q 1285 800 1324 722 q 1172 878 1247 878 q 1017 777 1096 878 q 907 544 939 676 l 915 136 q 811 -14 915 -14 q 694 163 694 -14 q 731 539 694 301 q 693 788 731 697 q 579 878 656 878 q 424 777 503 878 q 314 544 346 676 z "},"n":{"ha":1122,"x_min":100,"x_max":1036,"o":"m 750 222 l 757 594 q 715 800 757 722 q 593 878 674 878 q 429 777 513 878 q 313 544 346 676 l 321 136 q 217 -14 321 -14 q 100 163 100 -14 q 136 539 100 301 q 121 738 136 604 q 106 933 106 871 q 133 1027 106 994 q 211 1060 161 1060 q 313 903 313 1060 q 603 1056 433 1056 q 864 947 774 1056 q 954 681 954 838 l 946 326 q 963 178 946 194 q 992 164 972 168 q 1024 151 1011 160 q 1036 122 1036 143 q 997 24 1036 64 q 904 -17 957 -17 q 783 44 817 -17 q 750 222 750 104 z "},"o":{"ha":1143,"x_min":88,"x_max":1056,"o":"m 572 154 q 633 154 572 154 q 776 265 694 154 q 858 523 858 376 q 777 778 858 669 q 572 888 696 888 q 366 778 447 888 q 285 523 285 669 q 367 265 285 376 q 572 154 449 154 m 573 1063 q 676 1063 573 1063 q 917 905 779 1063 q 1056 522 1056 747 q 917 138 1056 296 q 572 -21 778 -21 q 226 138 365 -21 q 88 522 88 296 q 227 905 88 747 q 573 1063 367 1063 z "},"p":{"ha":913,"x_min":86,"x_max":889,"o":"m 135 136 l 146 514 q 136 821 146 578 q 86 910 86 849 q 128 985 86 953 q 232 1033 169 1017 q 449 1063 349 1063 q 776 960 664 1063 q 889 711 889 858 q 777 461 889 564 q 489 358 665 358 q 338 364 383 358 l 346 136 q 240 -14 346 -14 q 135 136 135 -14 m 335 547 q 495 532 417 532 q 633 581 574 532 q 692 709 692 631 q 629 837 692 788 q 456 886 567 886 q 342 869 394 886 q 335 547 335 699 z "},"q":{"ha":1146,"x_min":86,"x_max":1060,"o":"m 1060 519 q 1003 269 1060 385 q 851 79 947 154 q 911 -44 911 -6 q 888 -107 911 -83 q 829 -131 864 -131 q 766 -102 794 -131 q 704 -4 738 -74 q 571 -21 649 -21 q 225 137 364 -21 q 86 520 86 294 q 226 904 86 746 q 574 1063 365 1063 q 921 905 782 1063 q 1060 519 1060 747 m 863 519 q 780 778 863 668 q 572 888 697 888 q 365 778 447 888 q 283 522 283 668 q 366 265 283 376 q 572 154 449 154 q 613 157 588 154 q 558 247 567 225 q 550 294 550 268 q 574 344 550 321 q 632 368 599 368 q 692 342 665 368 q 751 240 719 317 q 833 365 804 292 q 863 519 863 439 z "},"r":{"ha":785,"x_min":100,"x_max":753,"o":"m 310 489 q 321 133 310 489 q 217 -17 321 -17 q 100 160 100 -17 q 136 536 100 285 q 121 735 136 601 q 106 930 106 868 q 133 1024 106 992 q 210 1057 161 1057 q 287 1019 260 1057 q 314 915 314 982 q 422 1021 357 981 q 568 1061 486 1061 q 701 1019 650 1061 q 753 928 753 978 q 722 849 753 879 q 654 818 692 818 q 577 851 617 818 q 524 883 538 883 q 403 751 475 883 q 310 489 331 618 z "},"s":{"ha":844,"x_min":69,"x_max":776,"o":"m 776 296 q 675 70 776 161 q 413 -21 574 -21 q 176 41 283 -21 q 69 171 69 103 q 95 233 69 208 q 159 257 121 257 q 234 231 197 257 q 315 180 271 206 q 422 154 358 154 q 533 192 485 154 q 581 296 581 231 q 461 436 581 365 q 384 481 438 450 q 303 528 331 511 q 230 578 275 544 q 161 642 185 613 q 103 797 103 714 q 197 984 103 906 q 417 1063 290 1063 q 635 1014 544 1063 q 725 904 725 965 q 700 842 725 864 q 638 819 675 819 q 540 853 600 819 q 428 888 481 888 q 338 862 376 888 q 300 797 300 836 q 353 717 300 756 q 462 647 394 686 q 558 591 529 608 q 637 536 588 574 q 711 468 686 499 q 756 392 736 438 q 776 296 776 346 z "},"t":{"ha":840,"x_min":44,"x_max":803,"o":"m 160 1050 l 424 1042 l 688 1050 q 772 1025 740 1050 q 803 957 803 1000 q 772 889 803 914 q 688 864 740 864 l 531 872 q 524 514 524 689 l 535 136 q 429 -14 535 -14 q 324 136 324 -14 l 335 514 q 325 872 335 628 l 160 864 q 76 889 107 864 q 44 957 44 914 q 76 1025 44 1000 q 160 1050 107 1050 z "},"u":{"ha":1140,"x_min":100,"x_max":1054,"o":"m 763 499 l 754 907 q 858 1057 754 1057 q 975 881 975 1057 q 939 504 975 742 q 954 311 939 429 q 996 175 969 193 q 1032 154 1021 158 q 1047 147 1043 150 q 1054 119 1054 140 q 1018 26 1054 67 q 924 -14 982 -14 q 829 35 867 -14 q 778 161 792 85 q 649 38 733 89 q 465 -12 564 -12 q 211 97 301 -12 q 121 363 121 206 l 129 717 q 115 840 129 774 q 100 951 100 906 q 131 1026 100 996 q 213 1056 163 1056 q 328 881 328 1056 l 318 449 q 360 243 318 321 q 482 165 401 165 q 646 266 563 165 q 763 499 729 367 z "},"v":{"ha":925,"x_min":42,"x_max":888,"o":"m 585 88 q 531 10 567 33 q 459 -14 496 -14 q 386 12 422 -14 q 332 92 350 38 q 162 589 224 418 q 78 822 100 760 q 42 958 42 922 q 65 1025 42 994 q 133 1056 89 1056 q 235 969 207 1056 q 328 672 267 869 q 460 274 450 274 q 544 494 471 274 q 689 958 617 715 q 788 1056 718 1056 q 860 1026 833 1056 q 888 965 888 997 q 857 847 888 933 q 744 538 826 760 q 585 88 663 317 z "},"w":{"ha":1324,"x_min":44,"x_max":1275,"o":"m 1000 69 q 958 6 983 26 q 888 -14 932 -14 q 772 88 807 -14 q 731 232 754 139 q 669 443 676 443 q 638 359 661 443 q 607 250 614 275 q 557 73 583 160 q 444 -14 531 -14 q 332 65 358 -14 q 233 359 314 104 q 121 706 153 614 q 75 838 89 799 q 44 966 44 924 q 71 1032 44 1008 q 138 1056 97 1056 q 243 957 213 1056 q 342 633 272 856 q 453 297 447 297 q 531 558 464 297 l 553 646 q 665 776 585 776 q 744 744 717 776 q 789 646 772 711 q 896 300 885 300 q 1085 947 910 300 q 1178 1056 1115 1056 q 1250 1027 1225 1056 q 1275 969 1275 999 q 1267 905 1275 940 q 1248 838 1258 869 q 1215 741 1238 807 q 1172 607 1193 675 q 1111 418 1150 539 q 1000 69 1031 163 z "},"x":{"ha":983,"x_min":53,"x_max":931,"o":"m 367 546 q 167 836 232 761 q 89 883 135 876 q 69 889 76 886 q 53 940 53 897 q 84 1021 53 983 q 161 1058 115 1058 q 308 960 240 1058 l 474 700 q 560 842 515 763 q 626 960 604 922 q 679 1027 649 999 q 745 1056 710 1056 q 806 1028 781 1056 q 832 966 832 1001 q 810 893 832 931 q 717 754 788 856 q 579 538 647 653 q 817 204 738 296 q 894 156 849 164 q 914 151 907 154 q 931 100 931 143 q 899 19 931 57 q 822 -18 868 -18 q 676 81 744 -18 l 469 383 q 368 215 428 321 q 281 67 308 108 q 175 -12 228 -12 q 112 15 138 -12 q 86 76 86 42 q 115 160 86 111 q 222 319 144 208 q 367 546 299 431 z "},"y":{"ha":836,"x_min":28,"x_max":808,"o":"m 310 136 q 319 407 310 203 q 197 627 275 497 q 74 840 119 757 q 28 962 28 922 q 52 1028 28 1001 q 115 1056 76 1056 q 174 1042 153 1056 q 218 991 194 1029 q 263 910 242 953 q 421 608 347 733 q 550 850 500 747 q 623 991 600 953 q 666 1042 646 1029 q 723 1056 686 1056 q 784 1027 760 1056 q 808 962 808 999 q 761 841 808 925 q 635 627 714 757 q 511 406 556 497 q 521 136 521 221 q 415 -14 521 -14 q 310 136 310 -14 z "},"z":{"ha":857,"x_min":57,"x_max":804,"o":"m 464 169 l 690 178 q 773 153 742 178 q 804 85 804 128 q 773 17 804 43 q 690 -8 742 -8 l 464 0 l 168 -8 q 57 81 57 -8 q 122 228 57 135 q 353 586 235 388 l 522 871 q 411 872 490 872 l 186 864 q 103 889 135 864 q 72 956 72 914 q 103 1024 72 999 q 186 1050 135 1050 l 411 1042 l 674 1050 q 785 964 785 1050 q 763 878 785 919 q 663 725 740 836 q 515 496 586 614 l 321 171 q 464 169 365 169 z "},"{":{"ha":563,"x_min":26,"x_max":499,"o":"m 342 519 q 394 300 394 451 q 385 192 394 253 q 376 108 376 131 q 395 72 376 86 q 437 51 414 57 q 478 24 460 46 q 497 -35 497 3 q 472 -99 497 -74 q 403 -124 446 -124 q 244 -70 311 -124 q 176 82 176 -17 q 186 192 176 121 q 196 315 196 264 q 186 397 196 367 q 160 394 169 394 q 66 426 106 394 q 26 518 26 458 q 66 610 26 578 q 161 642 106 642 q 188 639 171 642 q 197 721 197 669 q 188 844 197 772 q 178 954 178 915 q 245 1106 178 1053 q 404 1160 313 1160 q 473 1135 447 1160 q 499 1072 499 1110 q 480 1012 499 1033 q 439 985 461 990 q 378 925 378 969 q 387 844 378 906 q 396 736 396 783 q 342 519 396 589 z "},"|":{"ha":411,"x_min":111,"x_max":300,"o":"m 293 471 l 299 39 q 204 -110 299 -110 q 113 39 113 -110 l 118 471 l 111 903 q 206 1056 111 1056 q 300 903 300 1056 l 293 471 z "},"}":{"ha":563,"x_min":64,"x_max":536,"o":"m 221 519 q 167 736 167 589 q 176 844 167 783 q 185 928 185 906 q 166 965 185 950 q 124 985 147 979 q 83 1012 101 990 q 64 1072 64 1033 q 90 1135 64 1110 q 158 1160 115 1160 q 317 1106 250 1160 q 385 954 385 1053 q 375 844 385 915 q 365 721 365 772 q 375 639 365 669 q 401 642 392 642 q 497 610 457 642 q 536 518 536 578 q 497 426 536 458 q 403 394 457 394 q 376 397 393 394 q 367 315 367 367 q 376 192 367 264 q 386 82 386 121 q 319 -70 386 -17 q 160 -124 251 -124 q 91 -99 117 -124 q 65 -35 65 -74 q 84 24 65 3 q 125 51 103 46 q 186 111 186 67 q 177 192 186 131 q 168 300 168 253 q 221 519 168 451 z "},"~":{"ha":864,"x_min":81,"x_max":792,"o":"m 792 554 q 721 456 792 507 q 572 406 650 406 q 443 440 522 406 q 338 474 364 474 q 264 438 313 474 q 174 403 215 403 q 106 426 132 403 q 81 486 81 449 q 149 588 81 540 q 318 636 218 636 q 448 601 369 636 q 563 567 526 567 q 647 597 600 567 q 725 626 694 626 q 774 606 756 626 q 792 554 792 585 z "}," ":{"ha":403,"x_min":0,"x_max":0,"o":""},"¡":{"ha":436,"x_min":111,"x_max":325,"o":"m 125 297 l 124 504 q 149 590 124 558 q 219 622 175 622 q 288 590 263 622 q 314 504 314 558 q 311 297 314 504 l 321 18 q 294 -83 321 -47 q 218 -118 267 -118 q 142 -83 169 -118 q 115 18 115 -47 l 125 297 m 215 731 q 191 731 215 731 q 139 762 167 731 q 111 839 111 793 q 143 922 111 885 q 223 958 175 958 q 298 926 271 958 q 325 849 325 894 q 294 767 325 803 q 215 731 263 731 z "},"¢":{"ha":988,"x_min":86,"x_max":914,"o":"m 914 168 q 842 63 914 117 q 660 -11 771 10 q 568 -114 644 -114 q 479 -14 494 -114 q 197 155 307 13 q 86 486 86 297 q 196 816 86 675 q 478 986 306 957 q 569 1093 492 1093 q 661 982 647 1093 q 822 917 757 963 q 888 826 888 872 q 861 756 888 781 q 803 732 835 732 q 750 741 771 732 q 702 767 729 750 q 661 792 675 785 q 657 484 657 513 q 661 168 657 456 q 753 210 699 178 q 841 242 808 242 q 894 221 874 242 q 914 168 914 200 m 476 803 q 336 685 389 774 q 283 487 283 596 q 337 288 283 378 q 478 167 390 197 q 482 506 482 454 q 479 669 482 557 q 476 803 476 782 z "},"£":{"ha":824,"x_min":90,"x_max":744,"o":"m 432 168 l 632 178 q 714 153 683 178 q 744 85 744 128 q 714 17 744 42 q 632 -7 683 -7 l 432 0 l 233 -7 q 149 21 181 -7 q 118 98 118 49 q 142 186 118 147 q 192 276 167 225 q 217 403 217 328 q 90 488 90 403 q 193 569 90 564 q 165 739 165 688 q 242 918 165 846 q 456 990 319 990 q 635 942 560 990 q 711 839 711 894 q 690 777 711 804 q 630 750 668 750 q 535 782 592 750 q 442 814 478 814 q 383 792 406 814 q 361 733 361 771 q 386 567 361 696 l 546 571 q 626 548 597 571 q 656 487 656 525 q 626 426 656 449 q 546 403 597 403 l 407 407 q 356 169 404 265 l 432 168 z "},"¤":{"ha":939,"x_min":93,"x_max":844,"o":"m 753 657 q 782 517 782 593 q 753 378 782 442 q 829 302 814 322 q 844 250 844 282 q 816 192 844 218 q 752 165 788 165 q 696 179 717 165 q 632 240 675 193 q 470 200 563 200 q 306 240 378 200 q 243 179 263 193 q 187 165 224 165 q 122 191 150 165 q 93 250 93 217 q 108 303 93 283 q 183 378 122 324 q 156 517 156 444 q 183 657 156 590 q 108 731 122 711 q 93 785 93 751 q 122 844 93 818 q 187 869 150 869 q 243 856 224 869 q 306 794 263 842 q 470 835 378 835 q 632 794 563 835 q 696 856 675 842 q 752 869 717 869 q 816 843 788 869 q 844 785 844 817 q 829 733 844 753 q 753 657 814 713 m 597 517 q 597 547 597 517 q 559 622 597 578 q 469 667 521 667 q 378 623 417 667 q 339 517 339 579 q 377 410 339 456 q 468 365 415 365 q 559 410 521 365 q 597 517 597 456 z "},"¥":{"ha":932,"x_min":81,"x_max":861,"o":"m 574 136 q 468 -14 574 -14 q 363 136 363 -14 l 363 181 q 224 179 326 179 q 151 203 181 179 q 122 264 122 228 q 151 324 122 300 q 238 349 181 349 q 371 346 296 349 q 325 432 331 422 l 224 432 q 151 456 181 432 q 122 517 122 481 q 151 577 122 553 q 228 601 181 601 q 181 681 192 661 q 155 724 169 700 q 134 762 140 749 q 117 795 128 775 q 101 827 106 815 q 90 853 96 839 q 81 909 81 879 q 105 966 81 939 q 167 993 129 993 q 224 981 204 993 q 267 932 243 969 q 313 853 292 894 q 474 546 421 642 q 615 813 575 731 q 678 932 654 894 q 721 981 701 969 q 776 993 740 993 q 837 965 813 993 q 861 900 861 936 q 806 764 861 857 q 783 726 797 750 q 760 688 769 703 q 735 646 751 674 q 710 603 719 618 q 785 578 756 603 q 814 517 814 554 q 785 456 814 481 q 702 431 757 431 q 611 432 647 431 l 565 344 q 715 350 674 350 q 785 325 757 350 q 814 264 814 300 q 785 203 814 228 q 703 178 757 178 q 572 182 650 178 q 574 136 574 167 z "},"¦":{"ha":425,"x_min":119,"x_max":306,"o":"m 299 826 l 306 711 q 280 629 306 661 q 210 597 254 597 q 143 628 167 597 q 119 711 119 660 q 125 826 119 711 l 121 942 q 144 1024 121 993 q 210 1056 167 1056 q 279 1024 254 1056 q 304 942 304 993 l 299 826 m 299 215 l 306 100 q 280 18 306 50 q 210 -14 254 -14 q 143 17 167 -14 q 119 100 119 49 l 125 215 l 121 331 q 144 413 121 382 q 210 444 167 444 q 279 413 254 444 q 304 331 304 382 l 299 215 z "},"§":{"ha":819,"x_min":82,"x_max":742,"o":"m 638 274 q 696 139 696 215 q 609 -42 696 35 q 383 -118 522 -118 q 181 -58 279 -118 q 82 60 82 1 q 105 117 82 96 q 164 139 128 139 q 262 99 200 139 q 379 58 324 58 q 468 81 435 58 q 501 135 501 103 q 463 193 501 167 q 359 252 424 219 q 259 306 294 285 q 181 358 224 326 q 97 514 97 424 q 132 617 97 571 q 228 692 167 664 q 142 849 142 764 q 224 998 142 933 q 420 1063 307 1063 q 613 1018 533 1063 q 692 914 692 974 q 668 860 692 882 q 611 838 644 838 q 526 863 578 838 q 431 888 474 888 q 338 843 338 888 q 363 798 338 822 q 414 759 389 774 q 495 715 439 744 q 583 666 551 685 q 658 614 614 647 q 742 449 742 547 q 638 274 742 350 m 551 457 q 494 524 551 489 q 391 560 438 560 q 315 548 344 560 q 286 517 286 536 q 327 468 286 497 q 476 379 368 439 q 551 457 551 401 z "},"¨":{"ha":753,"x_min":104,"x_max":649,"o":"m 545 1006 q 569 1006 545 1006 q 621 974 593 1006 q 649 897 649 943 q 617 815 649 851 q 537 778 585 778 q 462 810 489 778 q 435 888 435 842 q 466 969 435 933 q 545 1006 497 1006 m 215 1006 q 239 1006 215 1006 q 290 974 263 1006 q 318 897 318 943 q 286 815 318 851 q 206 778 254 778 q 131 810 158 778 q 104 888 104 842 q 135 969 104 933 q 215 1006 167 1006 z "},"©":{"ha":1094,"x_min":96,"x_max":997,"o":"m 554 861 q 664 833 614 861 q 714 767 714 804 q 643 699 714 699 q 600 713 626 699 q 560 726 574 726 q 500 697 521 726 q 479 626 479 667 q 503 558 479 586 q 560 529 526 529 q 607 542 575 529 q 661 554 639 554 q 702 537 683 554 q 721 488 721 519 q 674 426 721 457 q 554 394 626 394 q 395 464 460 394 q 331 629 331 533 q 393 793 331 725 q 554 861 456 861 m 866 934 q 932 870 866 934 q 997 624 997 806 q 866 313 997 442 q 548 185 735 185 q 228 314 361 185 q 96 624 96 443 q 228 934 96 806 q 548 1063 361 1063 q 866 934 735 1063 m 546 333 q 606 333 546 333 q 752 418 667 333 q 838 624 838 503 q 752 831 838 746 q 546 915 667 915 q 340 831 425 915 q 256 624 256 746 q 340 417 256 501 q 546 333 425 333 z "},"ª":{"ha":604,"x_min":72,"x_max":531,"o":"m 343 832 l 342 894 q 278 918 307 918 q 231 892 250 918 q 211 828 211 865 q 223 767 211 792 q 258 743 235 743 q 306 770 281 743 q 343 832 332 797 m 496 947 q 488 878 496 936 q 479 790 479 819 q 488 746 479 761 q 506 729 496 731 q 531 706 531 725 q 505 634 531 661 q 438 607 479 607 q 368 664 396 607 q 251 607 315 607 q 119 674 167 607 q 72 830 72 742 q 131 988 72 918 q 281 1057 190 1057 q 368 1031 325 1057 q 418 1057 389 1057 q 496 947 496 1057 z "},"«":{"ha":849,"x_min":68,"x_max":756,"o":"m 322 603 q 250 522 250 540 q 322 440 250 503 q 361 406 349 418 q 396 338 396 371 q 372 280 396 304 q 322 256 347 256 q 281 265 297 256 q 256 283 265 274 q 222 320 246 293 q 182 364 199 347 q 140 404 165 381 q 101 440 114 428 q 78 474 89 453 q 68 522 68 496 q 78 570 68 549 q 101 603 89 592 q 140 639 114 615 q 182 679 165 663 q 222 723 199 696 q 256 760 246 750 q 315 788 283 788 q 372 763 347 788 q 396 713 396 739 q 384 668 396 688 q 360 637 372 649 q 322 603 349 625 m 682 603 q 610 522 610 540 q 682 440 610 503 q 719 406 708 418 q 756 338 756 371 q 731 280 756 304 q 682 256 707 256 q 641 265 657 256 q 615 283 625 274 q 582 320 606 293 q 542 364 558 347 q 499 404 525 381 q 461 440 474 428 q 438 474 449 453 q 428 522 428 496 q 438 570 428 549 q 461 603 449 592 q 499 639 474 615 q 542 679 525 663 q 582 723 558 696 q 615 760 606 750 q 675 788 643 788 q 731 763 707 788 q 756 713 756 739 q 744 668 756 688 q 720 637 732 649 q 682 603 708 625 z "},"¬":{"ha":982,"x_min":115,"x_max":867,"o":"m 864 418 l 867 326 q 841 250 867 279 q 774 221 815 221 q 706 250 732 221 q 681 326 681 279 l 683 424 l 475 425 l 221 419 q 145 444 175 419 q 115 506 115 468 q 144 566 115 543 q 221 589 174 589 l 475 585 l 760 589 q 832 567 797 589 q 867 493 867 546 l 864 418 z "},"­":{"ha":608,"x_min":83,"x_max":525,"o":"m 306 440 l 425 447 q 497 422 468 447 q 525 361 525 397 q 497 300 525 325 q 425 275 468 275 l 306 282 l 185 276 q 113 301 142 276 q 83 361 83 325 q 113 422 83 397 q 185 446 142 446 l 306 440 z "},"®":{"ha":1093,"x_min":96,"x_max":997,"o":"m 506 653 l 536 647 q 573 660 560 647 q 586 690 586 672 q 573 724 586 708 q 538 739 560 739 q 506 733 517 739 l 506 653 m 866 934 q 932 870 866 934 q 997 624 997 806 q 866 313 997 442 q 548 185 735 185 q 228 314 361 185 q 96 624 96 443 q 228 934 96 806 q 548 1063 361 1063 q 866 934 735 1063 m 546 333 q 606 333 546 333 q 752 418 667 333 q 838 624 838 503 q 752 831 838 746 q 546 915 667 915 q 340 831 425 915 q 256 624 256 746 q 340 417 256 501 q 546 333 425 333 m 382 639 l 376 775 q 418 844 376 826 q 543 863 460 863 q 675 814 626 863 q 724 698 724 765 q 657 582 724 631 q 682 538 667 553 q 708 522 697 524 q 739 486 739 518 q 715 428 739 454 q 665 403 692 403 q 615 423 639 403 q 575 467 590 443 q 518 532 532 532 q 519 482 519 517 q 501 424 519 447 q 450 401 483 401 q 376 479 376 401 l 382 639 z "},"¯":{"ha":689,"x_min":85,"x_max":610,"o":"m 349 1011 l 510 1018 q 581 993 553 1018 q 610 932 610 968 q 581 871 610 896 q 510 846 553 846 l 349 853 l 186 847 q 114 872 143 847 q 85 932 85 896 q 114 992 85 968 q 186 1017 143 1017 l 349 1011 z "},"°":{"ha":565,"x_min":75,"x_max":490,"o":"m 283 1060 q 329 1060 283 1060 q 433 999 375 1060 q 490 852 490 939 q 433 705 490 765 q 283 644 375 644 q 133 704 190 644 q 75 851 75 764 q 133 999 75 939 q 283 1060 190 1060 m 283 785 q 296 785 283 785 q 324 803 308 785 q 339 851 339 822 q 324 899 339 879 q 283 919 308 919 q 242 899 258 919 q 226 851 226 879 q 242 803 226 822 q 283 785 258 785 z "},"±":{"ha":892,"x_min":100,"x_max":792,"o":"m 447 236 l 692 243 q 763 218 735 243 q 792 157 792 193 q 763 96 792 121 q 692 71 735 71 l 447 78 l 201 72 q 129 97 158 72 q 100 157 100 121 q 129 217 100 193 q 201 242 158 242 l 447 236 m 360 729 l 356 850 q 380 929 356 900 q 446 958 404 958 q 513 928 488 958 q 538 849 538 899 l 533 729 l 690 732 q 762 707 733 732 q 790 645 790 682 q 762 584 790 608 q 697 560 733 560 q 533 563 661 560 l 538 425 q 513 344 538 375 q 447 314 489 314 q 380 345 404 314 q 356 426 356 376 l 360 564 l 201 561 q 128 585 157 561 q 100 647 100 610 q 129 708 100 683 q 195 732 158 732 q 360 729 232 732 z "},"²":{"ha":600,"x_min":75,"x_max":526,"o":"m 306 619 l 419 624 q 497 603 467 624 q 526 543 526 583 q 419 461 526 461 l 294 465 l 175 461 q 106 483 136 461 q 75 545 75 504 q 136 655 75 586 q 258 785 197 724 q 318 864 318 846 q 282 904 318 904 q 222 877 256 904 q 158 850 188 850 q 110 871 129 850 q 92 918 92 892 q 152 1015 92 968 q 301 1061 213 1061 q 442 1012 389 1061 q 496 899 496 963 q 450 778 496 838 q 306 619 400 714 z "},"³":{"ha":600,"x_min":74,"x_max":529,"o":"m 286 1042 l 390 1046 q 436 1041 414 1046 q 482 1015 458 1036 q 506 963 506 993 q 492 913 506 932 q 449 870 478 894 q 408 835 419 846 q 529 656 529 778 q 463 508 529 572 q 286 443 397 443 q 138 485 203 443 q 74 567 74 528 q 95 628 74 607 q 144 649 117 649 q 208 622 171 649 q 278 596 244 596 q 333 612 313 596 q 353 653 353 628 q 301 729 353 713 q 234 697 271 697 q 172 720 197 697 q 146 774 146 743 q 211 844 146 821 q 263 896 242 869 q 181 892 188 892 q 110 910 136 892 q 83 965 83 929 q 110 1023 83 1000 q 181 1046 136 1046 l 286 1042 z "},"´":{"ha":475,"x_min":104,"x_max":367,"o":"m 367 940 q 294 811 367 872 q 172 750 222 750 q 122 767 140 750 q 104 808 104 785 q 133 874 104 832 q 165 923 161 917 q 178 952 168 929 q 194 985 188 975 q 211 1010 200 996 q 278 1036 235 1036 q 344 1006 322 1036 q 367 940 367 976 z "},"µ":{"ha":1217,"x_min":156,"x_max":1088,"o":"m 796 499 l 788 907 q 892 1057 788 1057 q 1008 881 1008 1057 q 972 504 1008 742 q 988 311 972 429 q 1029 175 1003 193 q 1065 154 1054 158 q 1081 147 1076 150 q 1088 119 1088 140 q 1051 26 1088 67 q 958 -14 1015 -14 q 863 35 900 -14 q 811 161 825 85 q 688 38 768 89 q 521 -12 607 -12 q 367 25 435 -12 q 261 -131 360 -131 q 156 21 156 -131 l 167 469 l 157 903 q 263 1056 157 1056 q 368 903 368 1056 l 356 469 q 357 368 356 401 q 517 165 383 165 q 679 266 596 165 q 796 499 763 367 z "},"¶":{"ha":1017,"x_min":67,"x_max":869,"o":"m 863 375 l 869 17 q 771 -118 867 -118 q 699 -82 724 -118 q 675 17 675 -46 l 682 375 l 676 883 l 526 883 q 519 375 519 554 l 528 17 q 503 -81 528 -44 q 431 -117 478 -117 q 358 -81 383 -117 q 332 17 332 -44 l 340 417 q 142 518 217 435 q 67 717 67 601 q 163 956 67 869 q 425 1046 258 1043 l 608 1042 l 760 1046 q 839 1010 810 1046 q 868 913 868 974 l 863 375 z "},"·":{"ha":403,"x_min":94,"x_max":308,"o":"m 205 642 q 229 642 205 642 q 281 610 253 642 q 308 533 308 579 q 276 451 308 488 q 197 414 244 414 q 122 446 149 414 q 94 524 94 478 q 126 606 94 569 q 205 642 157 642 z "},"¸":{"ha":474,"x_min":33,"x_max":385,"o":"m 142 28 l 289 28 q 329 -97 293 -58 q 385 -212 385 -158 q 334 -306 385 -265 q 210 -347 283 -347 q 85 -306 138 -347 q 33 -224 33 -264 q 48 -184 33 -200 q 87 -168 63 -168 q 142 -185 111 -168 q 190 -203 172 -203 q 222 -176 222 -203 q 196 -137 222 -164 q 156 -85 169 -111 q 142 28 142 -58 z "},"¹":{"ha":496,"x_min":40,"x_max":394,"o":"m 390 756 l 394 565 q 370 488 394 517 q 305 460 346 460 q 240 488 264 460 q 215 565 215 517 q 217 650 215 581 q 218 792 218 719 q 124 722 161 722 q 64 743 88 722 q 40 794 40 764 q 58 849 40 824 q 114 913 76 874 q 178 983 151 953 q 214 1022 204 1014 q 302 1056 257 1056 q 371 1024 347 1056 q 394 938 394 992 l 390 756 z "},"º":{"ha":599,"x_min":74,"x_max":525,"o":"m 299 1063 q 349 1063 299 1063 q 462 997 399 1063 q 525 833 525 932 q 463 670 525 733 q 299 607 400 607 q 135 670 197 607 q 74 833 74 733 q 136 997 74 932 q 299 1063 199 1063 m 364 835 q 347 898 364 874 q 299 922 331 922 q 251 898 268 922 q 235 835 235 874 q 299 747 235 747 q 364 835 364 747 z "},"»":{"ha":847,"x_min":93,"x_max":781,"o":"m 526 440 q 599 522 599 503 q 526 603 599 540 q 489 636 500 625 q 453 706 453 672 q 477 763 453 739 q 526 788 501 788 q 567 778 551 788 q 593 760 583 769 q 626 723 603 750 q 667 679 650 696 q 709 639 683 663 q 747 603 735 615 q 770 570 760 592 q 781 522 781 549 q 770 474 781 496 q 747 440 760 453 q 709 404 735 428 q 667 364 683 381 q 626 320 650 347 q 593 283 603 293 q 533 256 565 256 q 477 280 501 256 q 453 330 453 304 q 465 375 453 356 q 488 406 476 394 q 526 440 500 418 m 167 440 q 239 522 239 503 q 167 603 239 540 q 128 636 140 625 q 93 706 93 672 q 117 763 93 739 q 167 788 142 788 q 208 778 192 788 q 233 760 224 769 q 267 723 243 750 q 307 679 290 696 q 349 639 324 663 q 388 603 375 615 q 410 570 400 592 q 421 522 421 549 q 410 474 421 496 q 388 440 400 453 q 349 404 375 428 q 307 364 324 381 q 267 320 290 347 q 233 283 243 293 q 174 256 206 256 q 117 280 142 256 q 93 330 93 304 q 105 375 93 356 q 128 406 117 394 q 167 440 140 418 z "},"¼":{"ha":1417,"x_min":64,"x_max":1346,"o":"m 414 756 l 418 565 q 394 488 418 517 q 328 460 369 460 q 263 488 288 460 q 239 565 239 517 q 240 650 239 581 q 242 792 242 719 q 148 722 185 722 q 88 743 111 722 q 64 794 64 764 q 82 849 64 824 q 138 913 100 874 q 201 983 175 953 q 239 1022 228 1014 q 326 1056 281 1056 q 394 1024 371 1056 q 418 938 418 992 l 414 756 m 891 882 q 882 855 891 882 q 824 708 872 828 q 747 512 776 589 q 672 291 718 435 q 605 88 626 147 q 560 7 583 28 q 501 -14 536 -14 q 438 10 467 -14 q 408 78 408 33 q 442 203 408 119 q 488 322 475 288 q 526 417 501 356 q 573 540 550 479 q 714 960 596 600 q 755 1035 732 1014 q 814 1056 778 1056 q 880 1033 850 1056 q 910 974 910 1011 q 891 882 910 936 m 1267 164 l 1269 83 q 1182 -14 1269 -14 q 1094 79 1094 -14 q 1097 167 1094 82 l 921 164 q 852 188 874 164 q 831 241 831 213 q 863 317 831 269 q 1047 563 896 365 q 1163 629 1097 629 q 1238 596 1207 629 q 1269 515 1269 563 l 1265 314 q 1346 240 1346 306 q 1267 164 1346 172 m 1025 303 l 1106 303 l 1106 417 q 1025 303 1058 353 z "},"½":{"ha":1376,"x_min":64,"x_max":1299,"o":"m 414 756 l 418 565 q 394 488 418 517 q 328 460 369 460 q 263 488 288 460 q 239 565 239 517 q 240 650 239 581 q 242 792 242 719 q 148 722 185 722 q 88 743 111 722 q 64 794 64 764 q 82 849 64 824 q 138 913 100 874 q 201 983 175 953 q 239 1022 228 1014 q 326 1056 281 1056 q 394 1024 371 1056 q 418 938 418 992 l 414 756 m 891 882 q 882 855 891 882 q 824 708 872 828 q 747 512 776 589 q 672 291 718 435 q 605 88 626 147 q 560 7 583 28 q 501 -14 536 -14 q 438 10 467 -14 q 408 78 408 33 q 442 203 408 119 q 488 322 475 288 q 526 417 501 356 q 573 540 550 479 q 714 960 596 600 q 755 1035 732 1014 q 814 1056 778 1056 q 880 1033 850 1056 q 910 974 910 1011 q 891 882 910 936 m 1078 156 l 1192 160 q 1269 140 1239 160 q 1299 79 1299 119 q 1192 -3 1299 -3 l 1067 1 l 947 -3 q 878 19 908 -3 q 847 81 847 40 q 908 191 847 122 q 1029 321 968 260 q 1090 400 1090 382 q 1054 440 1090 440 q 994 413 1028 440 q 931 386 960 386 q 883 407 901 386 q 864 454 864 428 q 924 551 864 504 q 1073 597 985 597 q 1215 548 1161 597 q 1268 435 1268 499 q 1222 314 1268 374 q 1078 156 1172 250 z "},"¾":{"ha":1506,"x_min":82,"x_max":1438,"o":"m 983 882 q 973 855 983 882 q 916 708 964 828 q 839 512 868 589 q 764 291 810 435 q 697 88 718 147 q 651 7 675 28 q 593 -14 628 -14 q 529 10 558 -14 q 500 78 500 33 q 533 203 500 119 q 580 322 567 288 q 617 417 593 356 q 665 540 642 479 q 806 960 688 600 q 847 1035 824 1014 q 906 1056 869 1056 q 972 1033 942 1056 q 1001 974 1001 1011 q 983 882 1001 936 m 1358 164 l 1361 83 q 1274 -14 1361 -14 q 1186 79 1186 -14 q 1189 167 1186 82 l 1013 164 q 944 188 965 164 q 922 241 922 213 q 955 317 922 269 q 1139 563 988 365 q 1254 629 1189 629 q 1330 596 1299 629 q 1361 515 1361 563 l 1357 314 q 1438 240 1438 306 q 1358 164 1438 172 m 1117 303 l 1197 303 l 1197 417 q 1117 303 1150 353 m 294 1042 l 399 1046 q 444 1041 422 1046 q 490 1015 467 1036 q 514 963 514 993 q 500 913 514 932 q 457 870 486 894 q 417 835 428 846 q 538 656 538 778 q 472 508 538 572 q 294 443 406 443 q 147 485 211 443 q 82 567 82 528 q 103 628 82 607 q 153 649 125 649 q 217 622 181 649 q 288 596 254 596 q 341 612 321 596 q 361 653 361 628 q 310 729 361 713 q 242 697 279 697 q 180 720 206 697 q 154 774 154 743 q 219 844 154 821 q 271 896 250 869 q 189 892 196 892 q 118 910 144 892 q 92 965 92 929 q 118 1023 92 1000 q 189 1046 144 1046 l 294 1042 z "},"¿":{"ha":749,"x_min":72,"x_max":681,"o":"m 72 157 q 113 277 72 215 q 201 381 153 339 q 331 544 331 492 q 422 661 331 661 q 491 631 464 661 q 518 549 518 600 q 492 452 518 497 q 431 372 467 407 q 358 303 394 336 q 269 157 269 222 q 305 87 269 114 q 385 60 340 60 q 465 87 431 60 q 528 141 499 114 q 596 168 558 168 q 657 142 633 168 q 681 82 681 117 q 590 -51 681 17 q 392 -118 500 -118 q 161 -39 250 -118 q 72 157 72 40 m 424 739 q 400 739 424 739 q 349 770 376 739 q 321 847 321 801 q 353 930 321 893 q 433 967 385 967 q 508 935 481 967 q 535 857 535 903 q 503 775 535 811 q 424 739 472 739 z "},"À":{"ha":961,"x_min":71,"x_max":899,"o":"m 631 307 q 451 313 522 313 q 326 310 381 313 q 285 181 310 267 q 249 60 261 96 q 157 -14 224 -14 q 94 10 118 -14 q 71 76 71 33 q 143 306 71 118 q 71 389 71 322 q 200 479 71 479 q 275 694 219 539 q 347 898 331 850 q 372 967 363 946 q 396 1011 381 988 q 483 1056 425 1056 q 560 1029 526 1056 q 597 965 581 1013 q 631 865 614 917 q 669 758 649 813 q 724 599 689 703 q 765 479 760 494 q 790 481 772 481 q 868 453 838 481 q 899 388 899 426 q 821 303 899 324 q 899 69 899 101 q 873 12 899 38 q 806 -14 847 -14 q 714 56 743 -14 q 631 307 707 72 m 376 469 q 479 467 411 467 q 582 469 547 467 q 481 797 492 797 q 400 551 471 797 l 376 469 m 328 1288 q 350 1353 328 1324 q 405 1383 372 1383 q 454 1377 438 1383 q 483 1357 471 1371 q 501 1333 494 1343 q 517 1299 507 1322 q 530 1270 526 1276 q 562 1222 533 1264 q 590 1156 590 1179 q 572 1115 590 1132 q 522 1097 554 1097 q 400 1158 472 1097 q 328 1288 328 1219 z "},"Á":{"ha":961,"x_min":71,"x_max":899,"o":"m 631 307 q 451 313 522 313 q 326 310 381 313 q 285 181 310 267 q 249 60 261 96 q 157 -14 224 -14 q 94 10 118 -14 q 71 76 71 33 q 143 306 71 118 q 71 389 71 322 q 200 479 71 479 q 275 694 219 539 q 347 898 331 850 q 372 967 363 946 q 396 1011 381 988 q 483 1056 425 1056 q 560 1029 526 1056 q 597 965 581 1013 q 631 865 614 917 q 669 758 649 813 q 724 599 689 703 q 765 479 760 494 q 790 481 772 481 q 868 453 838 481 q 899 388 899 426 q 821 303 899 324 q 899 69 899 101 q 873 12 899 38 q 806 -14 847 -14 q 714 56 743 -14 q 631 307 707 72 m 376 469 q 479 467 411 467 q 582 469 547 467 q 481 797 492 797 q 400 551 471 797 l 376 469 m 646 1288 q 574 1158 646 1219 q 451 1097 501 1097 q 401 1115 419 1097 q 383 1156 383 1132 q 412 1222 383 1179 q 444 1270 440 1264 q 457 1299 447 1276 q 473 1333 467 1322 q 492 1357 479 1343 q 558 1383 514 1383 q 624 1353 601 1383 q 646 1288 646 1324 z "},"Â":{"ha":961,"x_min":71,"x_max":899,"o":"m 631 307 q 451 313 522 313 q 326 310 381 313 q 285 181 310 267 q 249 60 261 96 q 157 -14 224 -14 q 94 10 118 -14 q 71 76 71 33 q 143 306 71 118 q 71 389 71 322 q 200 479 71 479 q 275 694 219 539 q 347 898 331 850 q 372 967 363 946 q 396 1011 381 988 q 483 1056 425 1056 q 560 1029 526 1056 q 597 965 581 1013 q 631 865 614 917 q 669 758 649 813 q 724 599 689 703 q 765 479 760 494 q 790 481 772 481 q 868 453 838 481 q 899 388 899 426 q 821 303 899 324 q 899 69 899 101 q 873 12 899 38 q 806 -14 847 -14 q 714 56 743 -14 q 631 307 707 72 m 376 469 q 479 467 411 467 q 582 469 547 467 q 481 797 492 797 q 400 551 471 797 l 376 469 m 400 1383 q 406 1390 400 1383 q 434 1406 413 1396 q 485 1417 456 1417 q 536 1404 515 1417 q 590 1354 557 1392 q 637 1302 622 1317 q 676 1265 651 1288 q 708 1235 700 1243 q 732 1181 732 1211 q 708 1126 732 1150 q 649 1101 683 1101 q 579 1135 615 1101 q 517 1201 543 1168 q 481 1235 492 1235 q 444 1203 469 1235 q 310 1103 365 1103 q 253 1127 278 1103 q 229 1175 229 1151 q 237 1213 229 1199 q 253 1236 244 1228 q 285 1267 261 1244 q 325 1304 310 1289 q 364 1345 340 1319 q 400 1383 388 1371 z "},"Ã":{"ha":961,"x_min":71,"x_max":899,"o":"m 631 307 q 451 313 522 313 q 326 310 381 313 q 285 181 310 267 q 249 60 261 96 q 157 -14 224 -14 q 94 10 118 -14 q 71 76 71 33 q 143 306 71 118 q 71 389 71 322 q 200 479 71 479 q 275 694 219 539 q 347 898 331 850 q 372 967 363 946 q 396 1011 381 988 q 483 1056 425 1056 q 560 1029 526 1056 q 597 965 581 1013 q 631 865 614 917 q 669 758 649 813 q 724 599 689 703 q 765 479 760 494 q 790 481 772 481 q 868 453 838 481 q 899 388 899 426 q 821 303 899 324 q 899 69 899 101 q 873 12 899 38 q 806 -14 847 -14 q 714 56 743 -14 q 631 307 707 72 m 376 469 q 479 467 411 467 q 582 469 547 467 q 481 797 492 797 q 400 551 471 797 l 376 469 m 788 1276 q 730 1178 788 1229 q 619 1128 672 1128 q 497 1162 567 1128 q 405 1196 426 1196 q 341 1158 383 1196 q 261 1119 299 1119 q 199 1145 224 1119 q 174 1208 174 1171 q 233 1308 174 1263 q 381 1354 293 1354 q 500 1321 425 1354 q 606 1288 575 1288 q 669 1318 636 1288 q 728 1349 703 1349 q 771 1328 754 1349 q 788 1276 788 1307 z "},"Ä":{"ha":961,"x_min":71,"x_max":899,"o":"m 631 307 q 451 313 522 313 q 326 310 381 313 q 285 181 310 267 q 249 60 261 96 q 157 -14 224 -14 q 94 10 118 -14 q 71 76 71 33 q 143 306 71 118 q 71 389 71 322 q 200 479 71 479 q 275 694 219 539 q 347 898 331 850 q 372 967 363 946 q 396 1011 381 988 q 483 1056 425 1056 q 560 1029 526 1056 q 597 965 581 1013 q 631 865 614 917 q 669 758 649 813 q 724 599 689 703 q 765 479 760 494 q 790 481 772 481 q 868 453 838 481 q 899 388 899 426 q 821 303 899 324 q 899 69 899 101 q 873 12 899 38 q 806 -14 847 -14 q 714 56 743 -14 q 631 307 707 72 m 376 469 q 479 467 411 467 q 582 469 547 467 q 481 797 492 797 q 400 551 471 797 l 376 469 m 649 1346 q 673 1346 649 1346 q 725 1315 697 1346 q 753 1238 753 1283 q 721 1155 753 1192 q 641 1118 689 1118 q 566 1150 593 1118 q 539 1228 539 1182 q 570 1310 539 1274 q 649 1346 601 1346 m 319 1346 q 343 1346 319 1346 q 394 1315 367 1346 q 422 1238 422 1283 q 390 1155 422 1192 q 310 1118 358 1118 q 235 1150 263 1118 q 208 1228 208 1182 q 240 1310 208 1274 q 319 1346 271 1346 z "},"Å":{"ha":961,"x_min":71,"x_max":899,"o":"m 631 307 q 451 313 522 313 q 326 310 381 313 q 285 181 310 267 q 249 60 261 96 q 157 -14 224 -14 q 94 10 118 -14 q 71 76 71 33 q 143 306 71 118 q 71 389 71 322 q 200 479 71 479 q 275 694 219 539 q 347 898 331 850 q 372 967 363 946 q 396 1011 381 988 q 483 1056 425 1056 q 560 1029 526 1056 q 597 965 581 1013 q 631 865 614 917 q 669 758 649 813 q 724 599 689 703 q 765 479 760 494 q 790 481 772 481 q 868 453 838 481 q 899 388 899 426 q 821 303 899 324 q 899 69 899 101 q 873 12 899 38 q 806 -14 847 -14 q 714 56 743 -14 q 631 307 707 72 m 376 469 q 479 467 411 467 q 582 469 547 467 q 481 797 492 797 q 400 551 471 797 l 376 469 m 481 1411 q 513 1411 481 1411 q 587 1370 544 1411 q 629 1270 629 1329 q 588 1172 629 1211 q 481 1132 547 1132 q 373 1172 414 1132 q 332 1270 332 1211 q 374 1370 332 1329 q 481 1411 417 1411 m 512 1240 q 518 1247 512 1240 q 524 1269 524 1253 q 512 1299 524 1286 q 481 1311 500 1311 q 449 1299 461 1311 q 436 1269 436 1286 q 449 1240 436 1253 q 481 1228 461 1228 q 512 1240 500 1228 z "},"Æ":{"ha":1204,"x_min":61,"x_max":1182,"o":"m 507 469 l 457 769 q 386 544 447 769 l 367 469 q 444 467 408 467 q 507 469 481 467 m 849 169 l 1067 178 q 1151 153 1119 178 q 1182 86 1182 129 q 1151 17 1182 43 q 1067 -8 1119 -8 l 849 0 l 678 -7 q 556 82 572 -7 q 517 313 526 250 l 417 313 q 317 310 322 310 q 276 181 300 267 q 239 60 251 96 q 147 -14 214 -14 q 85 10 108 -14 q 61 76 61 33 q 133 306 61 118 q 61 389 61 322 q 190 479 61 479 q 265 694 210 539 q 340 910 321 850 q 468 1049 386 1049 l 746 1042 l 978 1050 q 1062 1024 1031 1050 q 1093 956 1093 999 q 1062 888 1093 913 q 978 864 1031 864 l 760 872 q 610 867 685 872 q 651 643 628 785 l 911 651 q 993 626 961 651 q 1025 558 1025 600 q 993 491 1025 515 q 918 467 961 467 q 799 470 875 467 q 683 474 724 474 q 740 171 731 210 q 849 169 778 169 z "},"Ç":{"ha":978,"x_min":88,"x_max":915,"o":"m 915 168 q 830 53 915 111 q 617 -17 744 -4 q 663 -89 624 -37 q 703 -189 703 -140 q 652 -278 703 -237 q 528 -319 601 -319 q 403 -278 456 -319 q 351 -196 351 -236 q 366 -156 351 -172 q 405 -140 381 -140 q 460 -158 429 -140 q 508 -175 490 -175 q 540 -149 540 -175 q 503 -94 540 -140 q 461 -11 465 -49 q 192 174 296 25 q 88 522 88 324 q 222 906 88 749 q 557 1063 356 1063 q 787 1010 685 1063 q 889 890 889 957 q 863 826 889 850 q 797 801 836 801 q 685 844 757 801 q 557 886 614 886 q 362 778 439 886 q 285 523 285 671 q 361 265 285 375 q 556 154 438 154 q 653 168 610 154 q 721 197 697 182 q 831 242 786 242 q 895 221 875 242 q 915 168 915 200 z "},"È":{"ha":874,"x_min":72,"x_max":814,"o":"m 481 0 l 269 -8 q 184 25 218 -8 q 150 114 150 58 l 158 463 q 72 553 72 475 q 96 614 72 590 q 157 644 119 638 l 150 899 q 135 967 135 928 q 267 1050 135 1050 l 478 1042 l 696 1050 q 780 1024 749 1050 q 811 956 811 999 q 780 888 811 913 q 696 864 749 864 l 478 872 q 347 868 403 872 l 347 638 q 407 636 369 636 l 631 646 q 713 620 681 646 q 744 552 744 594 q 713 485 744 510 q 631 461 681 461 l 411 469 l 392 469 q 347 468 372 468 q 350 172 347 275 q 481 169 388 169 l 699 178 q 783 153 751 178 q 814 86 814 129 q 783 17 814 43 q 699 -8 751 -8 l 481 0 m 304 1288 q 326 1353 304 1324 q 381 1383 349 1383 q 431 1377 414 1383 q 459 1357 447 1371 q 477 1333 471 1343 q 493 1299 483 1322 q 506 1270 503 1276 q 538 1222 510 1264 q 567 1156 567 1179 q 549 1115 567 1132 q 499 1097 531 1097 q 376 1158 449 1097 q 304 1288 304 1219 z "},"É":{"ha":874,"x_min":72,"x_max":814,"o":"m 481 0 l 269 -8 q 184 25 218 -8 q 150 114 150 58 l 158 463 q 72 553 72 475 q 96 614 72 590 q 157 644 119 638 l 150 899 q 135 967 135 928 q 267 1050 135 1050 l 478 1042 l 696 1050 q 780 1024 749 1050 q 811 956 811 999 q 780 888 811 913 q 696 864 749 864 l 478 872 q 347 868 403 872 l 347 638 q 407 636 369 636 l 631 646 q 713 620 681 646 q 744 552 744 594 q 713 485 744 510 q 631 461 681 461 l 411 469 l 392 469 q 347 468 372 468 q 350 172 347 275 q 481 169 388 169 l 699 178 q 783 153 751 178 q 814 86 814 129 q 783 17 814 43 q 699 -8 751 -8 l 481 0 m 636 1288 q 564 1158 636 1219 q 442 1097 492 1097 q 392 1115 410 1097 q 374 1156 374 1132 q 402 1222 374 1179 q 434 1270 431 1264 q 447 1299 438 1276 q 463 1333 457 1322 q 481 1357 469 1343 q 548 1383 504 1383 q 614 1353 592 1383 q 636 1288 636 1324 z "},"Ê":{"ha":874,"x_min":72,"x_max":814,"o":"m 481 0 l 269 -8 q 184 25 218 -8 q 150 114 150 58 l 158 463 q 72 553 72 475 q 96 614 72 590 q 157 644 119 638 l 150 899 q 135 967 135 928 q 267 1050 135 1050 l 478 1042 l 696 1050 q 780 1024 749 1050 q 811 956 811 999 q 780 888 811 913 q 696 864 749 864 l 478 872 q 347 868 403 872 l 347 638 q 407 636 369 636 l 631 646 q 713 620 681 646 q 744 552 744 594 q 713 485 744 510 q 631 461 681 461 l 411 469 l 392 469 q 347 468 372 468 q 350 172 347 275 q 481 169 388 169 l 699 178 q 783 153 751 178 q 814 86 814 129 q 783 17 814 43 q 699 -8 751 -8 l 481 0 m 381 1383 q 387 1390 381 1383 q 415 1406 393 1396 q 466 1417 436 1417 q 517 1404 496 1417 q 570 1354 538 1392 q 617 1302 603 1317 q 656 1265 632 1288 q 689 1235 681 1243 q 713 1181 713 1211 q 688 1126 713 1150 q 630 1101 664 1101 q 560 1135 596 1101 q 498 1201 524 1168 q 461 1235 472 1235 q 425 1203 450 1235 q 290 1103 346 1103 q 234 1127 258 1103 q 210 1175 210 1151 q 217 1213 210 1199 q 233 1236 225 1228 q 266 1267 242 1244 q 306 1304 290 1289 q 344 1345 321 1319 q 381 1383 368 1371 z "},"Ë":{"ha":874,"x_min":72,"x_max":814,"o":"m 481 0 l 269 -8 q 184 25 218 -8 q 150 114 150 58 l 158 463 q 72 553 72 475 q 96 614 72 590 q 157 644 119 638 l 150 899 q 135 967 135 928 q 267 1050 135 1050 l 478 1042 l 696 1050 q 780 1024 749 1050 q 811 956 811 999 q 780 888 811 913 q 696 864 749 864 l 478 872 q 347 868 403 872 l 347 638 q 407 636 369 636 l 631 646 q 713 620 681 646 q 744 552 744 594 q 713 485 744 510 q 631 461 681 461 l 411 469 l 392 469 q 347 468 372 468 q 350 172 347 275 q 481 169 388 169 l 699 178 q 783 153 751 178 q 814 86 814 129 q 783 17 814 43 q 699 -8 751 -8 l 481 0 m 635 1350 q 659 1350 635 1350 q 711 1319 683 1350 q 739 1242 739 1288 q 707 1159 739 1196 q 627 1122 675 1122 q 552 1154 579 1122 q 525 1232 525 1186 q 556 1314 525 1278 q 635 1350 588 1350 m 305 1350 q 329 1350 305 1350 q 381 1319 353 1350 q 408 1242 408 1288 q 376 1159 408 1196 q 297 1122 344 1122 q 222 1154 249 1122 q 194 1232 194 1186 q 226 1314 194 1278 q 305 1350 257 1350 z "},"Ì":{"ha":681,"x_min":58,"x_max":626,"o":"m 174 1050 l 343 1042 l 513 1050 q 595 1025 564 1050 q 626 958 626 1000 q 595 890 626 915 q 513 865 564 865 l 447 869 q 438 520 438 664 q 447 171 438 376 q 513 176 497 176 q 595 151 564 176 q 626 84 626 126 q 595 17 626 42 q 513 -8 564 -8 l 343 0 l 174 -10 q 90 15 121 -10 q 58 83 58 40 q 90 151 58 126 q 174 175 121 175 l 239 169 q 249 519 249 375 q 239 869 249 664 q 159 865 197 865 q 90 890 121 865 q 58 957 58 914 q 90 1025 58 1000 q 174 1050 121 1050 m 181 1290 q 203 1356 181 1326 q 258 1386 225 1386 q 307 1380 290 1386 q 335 1360 324 1374 q 353 1335 347 1346 q 369 1302 360 1325 q 383 1273 379 1279 q 415 1224 386 1267 q 443 1158 443 1182 q 425 1117 443 1135 q 375 1100 407 1100 q 253 1161 325 1100 q 181 1290 181 1222 z "},"Í":{"ha":681,"x_min":58,"x_max":626,"o":"m 174 1050 l 343 1042 l 513 1050 q 595 1025 564 1050 q 626 958 626 1000 q 595 890 626 915 q 513 865 564 865 l 447 869 q 438 520 438 664 q 447 171 438 376 q 513 176 497 176 q 595 151 564 176 q 626 84 626 126 q 595 17 626 42 q 513 -8 564 -8 l 343 0 l 174 -10 q 90 15 121 -10 q 58 83 58 40 q 90 151 58 126 q 174 175 121 175 l 239 169 q 249 519 249 375 q 239 869 249 664 q 159 865 197 865 q 90 890 121 865 q 58 957 58 914 q 90 1025 58 1000 q 174 1050 121 1050 m 513 1288 q 440 1158 513 1219 q 318 1097 368 1097 q 268 1115 286 1097 q 250 1156 250 1132 q 278 1222 250 1179 q 310 1270 307 1264 q 324 1299 314 1276 q 340 1333 333 1322 q 358 1357 346 1343 q 424 1383 381 1383 q 490 1353 468 1383 q 513 1288 513 1324 z "},"Î":{"ha":681,"x_min":58,"x_max":626,"o":"m 174 1050 l 343 1042 l 513 1050 q 595 1025 564 1050 q 626 958 626 1000 q 595 890 626 915 q 513 865 564 865 l 447 869 q 438 520 438 664 q 447 171 438 376 q 513 176 497 176 q 595 151 564 176 q 626 84 626 126 q 595 17 626 42 q 513 -8 564 -8 l 343 0 l 174 -10 q 90 15 121 -10 q 58 83 58 40 q 90 151 58 126 q 174 175 121 175 l 239 169 q 249 519 249 375 q 239 869 249 664 q 159 865 197 865 q 90 890 121 865 q 58 957 58 914 q 90 1025 58 1000 q 174 1050 121 1050 m 260 1386 q 266 1392 260 1386 q 294 1409 272 1399 q 345 1419 315 1419 q 396 1407 375 1419 q 449 1357 417 1394 q 497 1305 482 1319 q 535 1268 511 1290 q 568 1238 560 1246 q 592 1183 592 1214 q 567 1128 592 1153 q 509 1104 543 1104 q 439 1138 475 1104 q 377 1204 403 1171 q 340 1238 351 1238 q 303 1206 329 1238 q 169 1106 225 1106 q 113 1130 138 1106 q 89 1178 89 1154 q 97 1216 89 1201 q 113 1239 104 1231 q 145 1269 121 1247 q 185 1307 169 1292 q 224 1348 200 1322 q 260 1386 247 1374 z "},"Ï":{"ha":681,"x_min":58,"x_max":626,"o":"m 174 1050 l 343 1042 l 513 1050 q 595 1025 564 1050 q 626 958 626 1000 q 595 890 626 915 q 513 865 564 865 l 447 869 q 438 520 438 664 q 447 171 438 376 q 513 176 497 176 q 595 151 564 176 q 626 84 626 126 q 595 17 626 42 q 513 -8 564 -8 l 343 0 l 174 -10 q 90 15 121 -10 q 58 83 58 40 q 90 151 58 126 q 174 175 121 175 l 239 169 q 249 519 249 375 q 239 869 249 664 q 159 865 197 865 q 90 890 121 865 q 58 957 58 914 q 90 1025 58 1000 q 174 1050 121 1050 m 509 1342 q 533 1342 509 1342 q 585 1310 557 1342 q 613 1233 613 1279 q 581 1151 613 1188 q 501 1114 549 1114 q 426 1146 453 1114 q 399 1224 399 1178 q 430 1306 399 1269 q 509 1342 461 1342 m 178 1342 q 202 1342 178 1342 q 254 1310 226 1342 q 282 1233 282 1279 q 250 1151 282 1188 q 170 1114 218 1114 q 95 1146 122 1114 q 68 1224 68 1178 q 99 1306 68 1269 q 178 1342 131 1342 z "},"Ð":{"ha":1081,"x_min":14,"x_max":993,"o":"m 161 604 l 156 838 q 99 917 99 854 q 159 993 99 958 q 297 1044 219 1028 q 444 1060 375 1060 q 688 1014 581 1060 q 861 892 796 968 q 993 517 993 735 q 865 150 993 307 q 698 26 803 72 q 449 -21 593 -21 q 199 21 304 -21 q 93 125 93 63 q 158 203 93 188 l 161 436 l 115 436 q 43 460 72 436 q 14 521 14 485 q 43 581 14 557 q 110 606 72 606 q 161 604 147 606 m 351 604 l 411 607 q 483 582 454 607 q 511 521 511 557 q 483 460 511 485 q 413 435 454 435 q 351 436 372 435 q 357 164 351 243 q 457 154 401 154 q 649 208 569 154 q 797 522 797 313 q 706 779 797 672 q 444 886 615 886 q 356 874 397 886 q 351 604 351 807 z "},"Ñ":{"ha":1063,"x_min":146,"x_max":921,"o":"m 910 528 l 914 111 q 810 -14 914 -14 q 714 43 749 -14 l 350 653 q 347 542 347 619 l 357 136 q 251 -14 357 -14 q 146 136 146 -14 l 157 514 q 151 701 157 565 q 146 932 146 838 q 249 1056 146 1056 q 351 1000 319 1056 l 722 364 l 721 528 l 710 906 q 815 1056 710 1056 q 921 906 921 1056 l 910 528 m 840 1290 q 783 1192 840 1243 q 672 1142 725 1142 q 549 1176 619 1142 q 458 1210 479 1210 q 394 1172 436 1210 q 314 1133 351 1133 q 251 1159 276 1133 q 226 1222 226 1185 q 286 1322 226 1276 q 433 1368 346 1368 q 553 1335 478 1368 q 658 1301 628 1301 q 722 1332 689 1301 q 781 1363 756 1363 q 824 1342 807 1363 q 840 1290 840 1321 z "},"Ò":{"ha":1143,"x_min":88,"x_max":1056,"o":"m 572 154 q 633 154 572 154 q 776 265 694 154 q 858 523 858 376 q 777 778 858 669 q 572 888 696 888 q 366 778 447 888 q 285 523 285 669 q 367 265 285 376 q 572 154 449 154 m 573 1063 q 676 1063 573 1063 q 917 905 779 1063 q 1056 522 1056 747 q 917 138 1056 296 q 572 -21 778 -21 q 226 138 365 -21 q 88 522 88 296 q 227 905 88 747 q 573 1063 367 1063 m 413 1290 q 435 1356 413 1326 q 490 1386 457 1386 q 539 1380 522 1386 q 567 1360 556 1374 q 585 1335 579 1346 q 601 1302 592 1325 q 615 1273 611 1279 q 647 1224 618 1267 q 675 1158 675 1182 q 657 1117 675 1135 q 607 1100 639 1100 q 485 1161 557 1100 q 413 1290 413 1222 z "},"Ó":{"ha":1143,"x_min":88,"x_max":1056,"o":"m 572 154 q 633 154 572 154 q 776 265 694 154 q 858 523 858 376 q 777 778 858 669 q 572 888 696 888 q 366 778 447 888 q 285 523 285 669 q 367 265 285 376 q 572 154 449 154 m 573 1063 q 676 1063 573 1063 q 917 905 779 1063 q 1056 522 1056 747 q 917 138 1056 296 q 572 -21 778 -21 q 226 138 365 -21 q 88 522 88 296 q 227 905 88 747 q 573 1063 367 1063 m 731 1290 q 658 1161 731 1222 q 536 1100 586 1100 q 486 1117 504 1100 q 468 1158 468 1135 q 497 1224 468 1182 q 528 1273 525 1267 q 542 1302 532 1279 q 558 1335 551 1325 q 575 1360 564 1346 q 642 1386 599 1386 q 708 1356 686 1386 q 731 1290 731 1326 z "},"Ô":{"ha":1143,"x_min":88,"x_max":1056,"o":"m 572 154 q 633 154 572 154 q 776 265 694 154 q 858 523 858 376 q 777 778 858 669 q 572 888 696 888 q 366 778 447 888 q 285 523 285 669 q 367 265 285 376 q 572 154 449 154 m 573 1063 q 676 1063 573 1063 q 917 905 779 1063 q 1056 522 1056 747 q 917 138 1056 296 q 572 -21 778 -21 q 226 138 365 -21 q 88 522 88 296 q 227 905 88 747 q 573 1063 367 1063 m 490 1372 q 497 1378 490 1372 q 524 1395 503 1385 q 576 1406 546 1406 q 626 1393 606 1406 q 680 1343 647 1381 q 727 1291 713 1306 q 766 1254 742 1276 q 799 1224 790 1232 q 822 1169 822 1200 q 798 1115 822 1139 q 740 1090 774 1090 q 669 1124 706 1090 q 608 1190 633 1157 q 571 1224 582 1224 q 533 1192 560 1224 q 400 1092 456 1092 q 344 1116 368 1092 q 319 1164 319 1140 q 327 1202 319 1188 q 343 1225 335 1217 q 376 1256 351 1233 q 415 1293 400 1278 q 454 1334 431 1308 q 490 1372 478 1360 z "},"Õ":{"ha":1143,"x_min":88,"x_max":1056,"o":"m 572 154 q 633 154 572 154 q 776 265 694 154 q 858 523 858 376 q 777 778 858 669 q 572 888 696 888 q 366 778 447 888 q 285 523 285 669 q 367 265 285 376 q 572 154 449 154 m 573 1063 q 676 1063 573 1063 q 917 905 779 1063 q 1056 522 1056 747 q 917 138 1056 296 q 572 -21 778 -21 q 226 138 365 -21 q 88 522 88 296 q 227 905 88 747 q 573 1063 367 1063 m 878 1279 q 820 1181 878 1232 q 710 1131 763 1131 q 587 1165 657 1131 q 495 1199 517 1199 q 431 1160 474 1199 q 351 1122 389 1122 q 289 1148 314 1122 q 264 1211 264 1174 q 324 1311 264 1265 q 471 1357 383 1357 q 590 1324 515 1357 q 696 1290 665 1290 q 760 1321 726 1290 q 819 1351 793 1351 q 861 1331 844 1351 q 878 1279 878 1310 z "},"Ö":{"ha":1143,"x_min":88,"x_max":1056,"o":"m 572 154 q 633 154 572 154 q 776 265 694 154 q 858 523 858 376 q 777 778 858 669 q 572 888 696 888 q 366 778 447 888 q 285 523 285 669 q 367 265 285 376 q 572 154 449 154 m 573 1063 q 676 1063 573 1063 q 917 905 779 1063 q 1056 522 1056 747 q 917 138 1056 296 q 572 -21 778 -21 q 226 138 365 -21 q 88 522 88 296 q 227 905 88 747 q 573 1063 367 1063 m 740 1343 q 764 1343 740 1343 q 815 1312 788 1343 q 843 1235 843 1281 q 811 1152 843 1189 q 731 1115 779 1115 q 656 1147 683 1115 q 629 1225 629 1179 q 660 1307 629 1271 q 740 1343 692 1343 m 409 1343 q 433 1343 409 1343 q 485 1312 457 1343 q 513 1235 513 1281 q 481 1152 513 1189 q 401 1115 449 1115 q 326 1147 353 1115 q 299 1225 299 1179 q 330 1307 299 1271 q 409 1343 361 1343 z "},"×":{"ha":811,"x_min":104,"x_max":707,"o":"m 675 394 q 707 329 707 367 q 683 265 707 292 q 622 239 658 239 q 528 293 586 239 q 481 338 515 304 q 407 406 447 371 q 330 336 365 371 q 285 293 294 301 q 190 239 226 239 q 130 265 154 239 q 106 329 106 292 q 138 394 106 367 q 211 458 160 417 q 288 524 263 499 q 210 592 261 550 q 131 658 158 633 q 104 719 104 682 q 128 783 104 757 q 189 810 153 810 q 283 756 225 810 q 328 713 293 747 q 406 643 364 678 q 480 711 446 678 q 526 756 514 744 q 621 810 585 810 q 681 783 657 810 q 706 719 706 757 q 678 658 706 682 q 600 592 651 633 q 522 524 549 550 q 599 459 547 500 q 675 394 651 418 z "},"Ø":{"ha":1143,"x_min":88,"x_max":1056,"o":"m 572 1063 l 600 1061 q 703 1165 631 1165 q 773 1137 746 1165 q 800 1075 800 1108 q 792 1006 800 1042 q 984 809 913 939 q 1056 521 1056 679 q 917 138 1056 296 q 571 -21 778 -21 l 540 -19 q 440 -117 510 -117 q 370 -88 397 -117 q 343 -15 343 -60 q 350 36 343 4 q 158 234 229 104 q 88 521 88 364 q 227 905 88 747 q 572 1063 367 1063 m 858 521 q 827 688 858 610 q 740 818 796 767 q 581 154 664 549 q 779 269 700 158 q 858 521 858 379 m 401 225 q 561 888 503 596 q 363 774 440 882 q 285 521 285 665 q 315 356 285 435 q 401 225 346 278 z "},"Ù":{"ha":1032,"x_min":119,"x_max":911,"o":"m 911 906 l 897 356 q 798 90 897 200 q 515 -21 699 -21 q 233 89 332 -21 q 133 354 133 199 l 119 904 q 225 1056 119 1056 q 331 904 331 1056 l 321 458 q 418 178 321 238 q 516 154 458 154 q 613 178 574 154 q 672 247 653 203 q 710 460 710 331 l 700 906 q 806 1057 700 1057 q 911 906 911 1057 m 340 1288 q 363 1353 340 1324 q 417 1383 385 1383 q 467 1377 450 1383 q 495 1357 483 1371 q 513 1333 507 1343 q 529 1299 519 1322 q 542 1270 539 1276 q 574 1222 546 1264 q 603 1156 603 1179 q 585 1115 603 1132 q 535 1097 567 1097 q 413 1158 485 1097 q 340 1288 340 1219 z "},"Ú":{"ha":1032,"x_min":119,"x_max":911,"o":"m 911 906 l 897 356 q 798 90 897 200 q 515 -21 699 -21 q 233 89 332 -21 q 133 354 133 199 l 119 904 q 225 1056 119 1056 q 331 904 331 1056 l 321 458 q 418 178 321 238 q 516 154 458 154 q 613 178 574 154 q 672 247 653 203 q 710 460 710 331 l 700 906 q 806 1057 700 1057 q 911 906 911 1057 m 689 1290 q 617 1161 689 1222 q 494 1100 544 1100 q 444 1117 463 1100 q 426 1158 426 1135 q 455 1224 426 1182 q 487 1273 483 1267 q 500 1302 490 1279 q 516 1335 510 1325 q 533 1360 522 1346 q 601 1386 557 1386 q 667 1356 644 1386 q 689 1290 689 1326 z "},"Û":{"ha":1032,"x_min":119,"x_max":911,"o":"m 911 906 l 897 356 q 798 90 897 200 q 515 -21 699 -21 q 233 89 332 -21 q 133 354 133 199 l 119 904 q 225 1056 119 1056 q 331 904 331 1056 l 321 458 q 418 178 321 238 q 516 154 458 154 q 613 178 574 154 q 672 247 653 203 q 710 460 710 331 l 700 906 q 806 1057 700 1057 q 911 906 911 1057 m 439 1383 q 445 1390 439 1383 q 473 1406 451 1396 q 524 1417 494 1417 q 575 1404 554 1417 q 628 1354 596 1392 q 676 1302 661 1317 q 715 1265 690 1288 q 747 1235 739 1243 q 771 1181 771 1211 q 747 1126 771 1150 q 688 1101 722 1101 q 618 1135 654 1101 q 556 1201 582 1168 q 519 1235 531 1235 q 483 1203 508 1235 q 349 1103 404 1103 q 292 1127 317 1103 q 268 1175 268 1151 q 276 1213 268 1199 q 292 1236 283 1228 q 324 1267 300 1244 q 364 1304 349 1289 q 403 1345 379 1319 q 439 1383 426 1371 z "},"Ü":{"ha":1032,"x_min":119,"x_max":911,"o":"m 911 906 l 897 356 q 798 90 897 200 q 515 -21 699 -21 q 233 89 332 -21 q 133 354 133 199 l 119 904 q 225 1056 119 1056 q 331 904 331 1056 l 321 458 q 418 178 321 238 q 516 154 458 154 q 613 178 574 154 q 672 247 653 203 q 710 460 710 331 l 700 906 q 806 1057 700 1057 q 911 906 911 1057 m 683 1349 q 707 1349 683 1349 q 758 1317 731 1349 q 786 1240 786 1286 q 754 1158 786 1194 q 674 1121 722 1121 q 599 1153 626 1121 q 572 1231 572 1185 q 603 1313 572 1276 q 683 1349 635 1349 m 352 1349 q 376 1349 352 1349 q 428 1317 400 1349 q 456 1240 456 1286 q 424 1158 456 1194 q 344 1121 392 1121 q 269 1153 296 1121 q 242 1231 242 1185 q 273 1313 242 1276 q 352 1349 304 1349 z "},"Ý":{"ha":836,"x_min":28,"x_max":808,"o":"m 310 136 q 319 407 310 203 q 197 627 275 497 q 74 840 119 757 q 28 962 28 922 q 52 1028 28 1001 q 115 1056 76 1056 q 174 1042 153 1056 q 218 991 194 1029 q 263 910 242 953 q 421 608 347 733 q 550 850 500 747 q 623 991 600 953 q 666 1042 646 1029 q 723 1056 686 1056 q 784 1027 760 1056 q 808 962 808 999 q 761 841 808 925 q 635 627 714 757 q 511 406 556 497 q 521 136 521 221 q 415 -14 521 -14 q 310 136 310 -14 m 589 1288 q 517 1158 589 1219 q 394 1097 444 1097 q 344 1115 363 1097 q 326 1156 326 1132 q 355 1222 326 1179 q 387 1270 383 1264 q 400 1299 390 1276 q 416 1333 410 1322 q 433 1357 422 1343 q 501 1383 457 1383 q 567 1353 544 1383 q 589 1288 589 1324 z "},"Þ":{"ha":864,"x_min":129,"x_max":818,"o":"m 332 693 q 331 574 331 656 q 332 444 331 492 q 458 433 383 433 q 578 470 532 433 q 624 568 624 507 q 577 666 624 629 q 457 703 531 703 q 332 693 383 703 m 140 522 l 129 903 q 156 1013 129 971 q 235 1056 182 1056 q 314 1019 289 1056 q 339 932 339 983 q 336 871 339 918 q 457 879 392 879 q 718 790 618 879 q 818 568 818 701 q 719 346 818 435 q 458 257 619 257 q 335 265 393 257 q 339 104 339 150 q 313 22 339 58 q 238 -14 288 -14 q 160 19 188 -14 q 132 108 132 51 l 140 522 z "},"ß":{"ha":896,"x_min":32,"x_max":849,"o":"m 332 519 l 343 142 q 238 -8 343 -8 q 132 142 132 -8 q 136 225 132 181 q 144 554 144 343 q 32 635 32 554 q 143 717 32 717 l 143 782 q 228 988 143 922 q 447 1054 314 1054 q 658 986 581 1054 q 735 819 735 918 q 710 729 735 774 q 658 656 686 685 q 605 594 629 626 q 581 539 581 563 q 608 489 581 515 q 675 437 636 463 q 753 380 714 411 q 821 303 793 349 q 849 206 849 258 q 779 44 849 108 q 596 -21 710 -21 q 459 22 522 -21 q 396 107 396 64 q 417 174 396 150 q 470 197 438 197 q 540 171 503 197 q 599 144 578 144 q 636 161 619 144 q 653 206 653 178 q 625 260 653 233 q 558 310 597 286 q 480 363 519 335 q 413 435 440 390 q 385 531 385 481 q 423 634 385 582 q 499 734 461 686 q 538 815 538 782 q 510 867 538 847 q 440 886 483 886 q 366 858 396 886 q 336 769 336 831 l 332 519 z "},"à":{"ha":1122,"x_min":86,"x_max":1036,"o":"m 836 1063 q 926 1016 893 1063 q 958 899 958 969 q 919 508 958 829 q 935 310 919 433 q 978 169 951 188 q 1014 149 1003 153 q 1029 142 1025 144 q 1036 114 1036 135 q 1000 21 1036 61 q 906 -19 964 -19 q 811 30 849 -19 q 760 156 774 79 q 457 -21 631 -21 q 290 27 364 -21 q 174 153 217 75 q 86 504 86 311 q 208 897 86 732 q 525 1063 331 1063 q 742 1001 639 1063 q 836 1063 763 1063 m 744 496 l 738 801 q 525 886 639 886 q 356 777 429 886 q 283 514 283 668 q 331 258 283 360 q 465 156 379 156 q 638 269 550 156 q 744 496 726 383 m 363 1288 q 385 1353 363 1324 q 440 1383 407 1383 q 489 1377 472 1383 q 517 1357 506 1371 q 535 1333 529 1343 q 551 1299 542 1322 q 565 1270 561 1276 q 597 1222 568 1264 q 625 1156 625 1179 q 607 1115 625 1132 q 557 1097 589 1097 q 435 1158 507 1097 q 363 1288 363 1219 z "},"á":{"ha":1122,"x_min":86,"x_max":1036,"o":"m 836 1063 q 926 1016 893 1063 q 958 899 958 969 q 919 508 958 829 q 935 310 919 433 q 978 169 951 188 q 1014 149 1003 153 q 1029 142 1025 144 q 1036 114 1036 135 q 1000 21 1036 61 q 906 -19 964 -19 q 811 30 849 -19 q 760 156 774 79 q 457 -21 631 -21 q 290 27 364 -21 q 174 153 217 75 q 86 504 86 311 q 208 897 86 732 q 525 1063 331 1063 q 742 1001 639 1063 q 836 1063 763 1063 m 744 496 l 738 801 q 525 886 639 886 q 356 777 429 886 q 283 514 283 668 q 331 258 283 360 q 465 156 379 156 q 638 269 550 156 q 744 496 726 383 m 738 1288 q 665 1158 738 1219 q 543 1097 593 1097 q 493 1115 511 1097 q 475 1156 475 1132 q 503 1222 475 1179 q 535 1270 532 1264 q 549 1299 539 1276 q 565 1333 558 1322 q 583 1357 571 1343 q 649 1383 606 1383 q 715 1353 693 1383 q 738 1288 738 1324 z "},"â":{"ha":1122,"x_min":86,"x_max":1036,"o":"m 836 1063 q 926 1016 893 1063 q 958 899 958 969 q 919 508 958 829 q 935 310 919 433 q 978 169 951 188 q 1014 149 1003 153 q 1029 142 1025 144 q 1036 114 1036 135 q 1000 21 1036 61 q 906 -19 964 -19 q 811 30 849 -19 q 760 156 774 79 q 457 -21 631 -21 q 290 27 364 -21 q 174 153 217 75 q 86 504 86 311 q 208 897 86 732 q 525 1063 331 1063 q 742 1001 639 1063 q 836 1063 763 1063 m 744 496 l 738 801 q 525 886 639 886 q 356 777 429 886 q 283 514 283 668 q 331 258 283 360 q 465 156 379 156 q 638 269 550 156 q 744 496 726 383 m 481 1383 q 487 1390 481 1383 q 515 1406 493 1396 q 566 1417 536 1417 q 617 1404 596 1417 q 670 1354 638 1392 q 717 1302 703 1317 q 756 1265 732 1288 q 789 1235 781 1243 q 813 1181 813 1211 q 788 1126 813 1150 q 730 1101 764 1101 q 660 1135 696 1101 q 598 1201 624 1168 q 561 1235 572 1235 q 525 1203 550 1235 q 390 1103 446 1103 q 334 1127 358 1103 q 310 1175 310 1151 q 317 1213 310 1199 q 333 1236 325 1228 q 366 1267 342 1244 q 406 1304 390 1289 q 444 1345 421 1319 q 481 1383 468 1371 z "},"ã":{"ha":1122,"x_min":86,"x_max":1036,"o":"m 836 1063 q 926 1016 893 1063 q 958 899 958 969 q 919 508 958 829 q 935 310 919 433 q 978 169 951 188 q 1014 149 1003 153 q 1029 142 1025 144 q 1036 114 1036 135 q 1000 21 1036 61 q 906 -19 964 -19 q 811 30 849 -19 q 760 156 774 79 q 457 -21 631 -21 q 290 27 364 -21 q 174 153 217 75 q 86 504 86 311 q 208 897 86 732 q 525 1063 331 1063 q 742 1001 639 1063 q 836 1063 763 1063 m 744 496 l 738 801 q 525 886 639 886 q 356 777 429 886 q 283 514 283 668 q 331 258 283 360 q 465 156 379 156 q 638 269 550 156 q 744 496 726 383 m 869 1276 q 812 1178 869 1229 q 701 1128 754 1128 q 578 1162 649 1128 q 487 1196 508 1196 q 423 1158 465 1196 q 343 1119 381 1119 q 281 1145 306 1119 q 256 1208 256 1171 q 315 1308 256 1263 q 463 1354 375 1354 q 582 1321 507 1354 q 688 1288 657 1288 q 751 1318 718 1288 q 810 1349 785 1349 q 853 1328 836 1349 q 869 1276 869 1307 z "},"ä":{"ha":1122,"x_min":86,"x_max":1036,"o":"m 836 1063 q 926 1016 893 1063 q 958 899 958 969 q 919 508 958 829 q 935 310 919 433 q 978 169 951 188 q 1014 149 1003 153 q 1029 142 1025 144 q 1036 114 1036 135 q 1000 21 1036 61 q 906 -19 964 -19 q 811 30 849 -19 q 760 156 774 79 q 457 -21 631 -21 q 290 27 364 -21 q 174 153 217 75 q 86 504 86 311 q 208 897 86 732 q 525 1063 331 1063 q 742 1001 639 1063 q 836 1063 763 1063 m 744 496 l 738 801 q 525 886 639 886 q 356 777 429 886 q 283 514 283 668 q 331 258 283 360 q 465 156 379 156 q 638 269 550 156 q 744 496 726 383 m 702 1349 q 726 1349 702 1349 q 778 1317 750 1349 q 806 1240 806 1286 q 774 1158 806 1194 q 694 1121 742 1121 q 619 1153 646 1121 q 592 1231 592 1185 q 623 1313 592 1276 q 702 1349 654 1349 m 372 1349 q 395 1349 372 1349 q 447 1317 419 1349 q 475 1240 475 1286 q 443 1158 475 1194 q 363 1121 411 1121 q 288 1153 315 1121 q 261 1231 261 1185 q 292 1313 261 1276 q 372 1349 324 1349 z "},"å":{"ha":1122,"x_min":86,"x_max":1036,"o":"m 836 1063 q 926 1016 893 1063 q 958 899 958 969 q 919 508 958 829 q 935 310 919 433 q 978 169 951 188 q 1014 149 1003 153 q 1029 142 1025 144 q 1036 114 1036 135 q 1000 21 1036 61 q 906 -19 964 -19 q 811 30 849 -19 q 760 156 774 79 q 457 -21 631 -21 q 290 27 364 -21 q 174 153 217 75 q 86 504 86 311 q 208 897 86 732 q 525 1063 331 1063 q 742 1001 639 1063 q 836 1063 763 1063 m 744 496 l 738 801 q 525 886 639 886 q 356 777 429 886 q 283 514 283 668 q 331 258 283 360 q 465 156 379 156 q 638 269 550 156 q 744 496 726 383 m 536 1411 q 568 1411 536 1411 q 642 1370 600 1411 q 685 1270 685 1329 q 644 1172 685 1211 q 536 1132 603 1132 q 428 1172 469 1132 q 388 1270 388 1211 q 430 1370 388 1329 q 536 1411 472 1411 m 567 1240 q 573 1247 567 1240 q 579 1269 579 1253 q 567 1299 579 1286 q 536 1311 556 1311 q 504 1299 517 1311 q 492 1269 492 1286 q 504 1240 492 1253 q 536 1228 517 1228 q 567 1240 556 1228 z "},"æ":{"ha":1613,"x_min":61,"x_max":1524,"o":"m 1524 744 q 1461 554 1524 632 q 1096 413 1346 413 q 903 424 999 413 q 995 231 925 313 q 1138 150 1065 150 q 1262 172 1210 150 q 1350 216 1314 194 q 1417 238 1386 238 q 1469 217 1447 238 q 1492 164 1492 196 q 1389 45 1492 110 q 1156 -19 1286 -19 q 797 161 926 -19 q 436 -19 671 -19 q 169 83 278 -19 q 61 347 61 186 q 170 574 61 481 q 443 668 279 668 q 693 636 565 668 q 624 829 685 771 q 476 888 564 888 q 374 860 422 888 q 286 806 326 833 q 208 779 246 779 q 144 801 171 779 q 118 867 118 824 q 225 997 118 932 q 486 1063 332 1063 q 680 1019 592 1063 q 824 899 768 975 q 1172 1063 957 1063 q 1422 972 1321 1063 q 1524 744 1524 881 m 258 343 q 313 211 258 264 q 440 158 368 158 q 610 238 536 158 q 690 458 685 317 q 474 490 581 490 q 313 446 368 490 q 258 343 258 401 m 904 599 q 1101 579 1006 579 q 1262 624 1197 579 q 1326 749 1326 668 q 1286 844 1326 800 q 1172 888 1246 888 q 1003 802 1074 888 q 904 599 933 717 z "},"ç":{"ha":978,"x_min":88,"x_max":915,"o":"m 915 168 q 830 53 915 111 q 617 -17 744 -4 q 663 -89 624 -37 q 703 -189 703 -140 q 652 -278 703 -237 q 528 -319 601 -319 q 403 -278 456 -319 q 351 -196 351 -236 q 366 -156 351 -172 q 405 -140 381 -140 q 460 -158 429 -140 q 508 -175 490 -175 q 540 -149 540 -175 q 503 -94 540 -140 q 461 -11 465 -49 q 192 174 296 25 q 88 522 88 324 q 222 906 88 749 q 557 1063 356 1063 q 787 1010 685 1063 q 889 890 889 957 q 863 826 889 850 q 797 801 836 801 q 685 844 757 801 q 557 886 614 886 q 362 778 439 886 q 285 523 285 671 q 361 265 285 375 q 556 154 438 154 q 653 168 610 154 q 721 197 697 182 q 831 242 786 242 q 895 221 875 242 q 915 168 915 200 z "},"è":{"ha":1033,"x_min":58,"x_max":974,"o":"m 776 753 q 736 844 776 803 q 621 886 696 886 q 453 803 522 886 q 357 603 385 719 q 544 583 440 583 q 712 628 647 583 q 776 753 776 672 m 942 168 q 839 47 942 114 q 619 -21 736 -21 q 419 20 503 -21 q 281 131 335 61 q 153 468 167 274 q 58 583 58 506 q 84 647 58 622 q 147 671 110 671 q 172 667 158 671 q 338 951 221 839 q 610 1063 454 1063 q 870 973 767 1063 q 974 759 974 883 q 911 556 974 635 q 546 411 793 411 q 356 429 464 411 q 443 233 376 313 q 596 154 510 154 q 800 219 692 154 q 867 242 836 242 q 919 221 897 242 q 942 168 942 200 m 433 1288 q 456 1353 433 1324 q 510 1383 478 1383 q 560 1377 543 1383 q 588 1357 576 1371 q 606 1333 600 1343 q 622 1299 613 1322 q 635 1270 632 1276 q 667 1222 639 1264 q 696 1156 696 1179 q 678 1115 696 1132 q 628 1097 660 1097 q 506 1158 578 1097 q 433 1288 433 1219 z "},"é":{"ha":1033,"x_min":58,"x_max":974,"o":"m 776 753 q 736 844 776 803 q 621 886 696 886 q 453 803 522 886 q 357 603 385 719 q 544 583 440 583 q 712 628 647 583 q 776 753 776 672 m 942 168 q 839 47 942 114 q 619 -21 736 -21 q 419 20 503 -21 q 281 131 335 61 q 153 468 167 274 q 58 583 58 506 q 84 647 58 622 q 147 671 110 671 q 172 667 158 671 q 338 951 221 839 q 610 1063 454 1063 q 870 973 767 1063 q 974 759 974 883 q 911 556 974 635 q 546 411 793 411 q 356 429 464 411 q 443 233 376 313 q 596 154 510 154 q 800 219 692 154 q 867 242 836 242 q 919 221 897 242 q 942 168 942 200 m 781 1288 q 708 1158 781 1219 q 586 1097 636 1097 q 536 1115 554 1097 q 518 1156 518 1132 q 547 1222 518 1179 q 578 1270 575 1264 q 592 1299 582 1276 q 608 1333 601 1322 q 625 1357 614 1343 q 692 1383 649 1383 q 758 1353 736 1383 q 781 1288 781 1324 z "},"ê":{"ha":1033,"x_min":58,"x_max":974,"o":"m 776 753 q 736 844 776 803 q 621 886 696 886 q 453 803 522 886 q 357 603 385 719 q 544 583 440 583 q 712 628 647 583 q 776 753 776 672 m 942 168 q 839 47 942 114 q 619 -21 736 -21 q 419 20 503 -21 q 281 131 335 61 q 153 468 167 274 q 58 583 58 506 q 84 647 58 622 q 147 671 110 671 q 172 667 158 671 q 338 951 221 839 q 610 1063 454 1063 q 870 973 767 1063 q 974 759 974 883 q 911 556 974 635 q 546 411 793 411 q 356 429 464 411 q 443 233 376 313 q 596 154 510 154 q 800 219 692 154 q 867 242 836 242 q 919 221 897 242 q 942 168 942 200 m 525 1369 q 531 1376 525 1369 q 559 1392 538 1382 q 610 1403 581 1403 q 661 1390 640 1403 q 715 1340 682 1378 q 762 1288 747 1303 q 801 1251 776 1274 q 833 1221 825 1229 q 857 1167 857 1197 q 833 1112 857 1136 q 774 1088 808 1088 q 704 1121 740 1088 q 642 1188 668 1154 q 606 1221 617 1221 q 569 1189 594 1221 q 435 1089 490 1089 q 378 1113 403 1089 q 354 1161 354 1138 q 362 1199 354 1185 q 378 1222 369 1214 q 410 1253 386 1231 q 450 1290 435 1275 q 489 1331 465 1306 q 525 1369 513 1357 z "},"ë":{"ha":1033,"x_min":58,"x_max":974,"o":"m 776 753 q 736 844 776 803 q 621 886 696 886 q 453 803 522 886 q 357 603 385 719 q 544 583 440 583 q 712 628 647 583 q 776 753 776 672 m 942 168 q 839 47 942 114 q 619 -21 736 -21 q 419 20 503 -21 q 281 131 335 61 q 153 468 167 274 q 58 583 58 506 q 84 647 58 622 q 147 671 110 671 q 172 667 158 671 q 338 951 221 839 q 610 1063 454 1063 q 870 973 767 1063 q 974 759 974 883 q 911 556 974 635 q 546 411 793 411 q 356 429 464 411 q 443 233 376 313 q 596 154 510 154 q 800 219 692 154 q 867 242 836 242 q 919 221 897 242 q 942 168 942 200 m 783 1344 q 807 1344 783 1344 q 858 1313 831 1344 q 886 1236 886 1282 q 854 1153 886 1190 q 774 1117 822 1117 q 699 1149 726 1117 q 672 1226 672 1181 q 703 1308 672 1272 q 783 1344 735 1344 m 452 1344 q 476 1344 452 1344 q 528 1313 500 1344 q 556 1236 556 1282 q 524 1153 556 1190 q 444 1117 492 1117 q 369 1149 396 1117 q 342 1226 342 1181 q 373 1308 342 1272 q 452 1344 404 1344 z "},"ì":{"ha":681,"x_min":58,"x_max":626,"o":"m 174 1050 l 343 1042 l 513 1050 q 595 1025 564 1050 q 626 958 626 1000 q 595 890 626 915 q 513 865 564 865 l 447 869 q 438 520 438 664 q 447 171 438 376 q 513 176 497 176 q 595 151 564 176 q 626 84 626 126 q 595 17 626 42 q 513 -8 564 -8 l 343 0 l 174 -10 q 90 15 121 -10 q 58 83 58 40 q 90 151 58 126 q 174 175 121 175 l 239 169 q 249 519 249 375 q 239 869 249 664 q 159 865 197 865 q 90 890 121 865 q 58 957 58 914 q 90 1025 58 1000 q 174 1050 121 1050 m 181 1290 q 203 1356 181 1326 q 258 1386 225 1386 q 307 1380 290 1386 q 335 1360 324 1374 q 353 1335 347 1346 q 369 1302 360 1325 q 383 1273 379 1279 q 415 1224 386 1267 q 443 1158 443 1182 q 425 1117 443 1135 q 375 1100 407 1100 q 253 1161 325 1100 q 181 1290 181 1222 z "},"í":{"ha":681,"x_min":58,"x_max":626,"o":"m 174 1050 l 343 1042 l 513 1050 q 595 1025 564 1050 q 626 958 626 1000 q 595 890 626 915 q 513 865 564 865 l 447 869 q 438 520 438 664 q 447 171 438 376 q 513 176 497 176 q 595 151 564 176 q 626 84 626 126 q 595 17 626 42 q 513 -8 564 -8 l 343 0 l 174 -10 q 90 15 121 -10 q 58 83 58 40 q 90 151 58 126 q 174 175 121 175 l 239 169 q 249 519 249 375 q 239 869 249 664 q 159 865 197 865 q 90 890 121 865 q 58 957 58 914 q 90 1025 58 1000 q 174 1050 121 1050 m 513 1288 q 440 1158 513 1219 q 318 1097 368 1097 q 268 1115 286 1097 q 250 1156 250 1132 q 278 1222 250 1179 q 310 1270 307 1264 q 324 1299 314 1276 q 340 1333 333 1322 q 358 1357 346 1343 q 424 1383 381 1383 q 490 1353 468 1383 q 513 1288 513 1324 z "},"î":{"ha":681,"x_min":58,"x_max":626,"o":"m 174 1050 l 343 1042 l 513 1050 q 595 1025 564 1050 q 626 958 626 1000 q 595 890 626 915 q 513 865 564 865 l 447 869 q 438 520 438 664 q 447 171 438 376 q 513 176 497 176 q 595 151 564 176 q 626 84 626 126 q 595 17 626 42 q 513 -8 564 -8 l 343 0 l 174 -10 q 90 15 121 -10 q 58 83 58 40 q 90 151 58 126 q 174 175 121 175 l 239 169 q 249 519 249 375 q 239 869 249 664 q 159 865 197 865 q 90 890 121 865 q 58 957 58 914 q 90 1025 58 1000 q 174 1050 121 1050 m 260 1386 q 266 1392 260 1386 q 294 1409 272 1399 q 345 1419 315 1419 q 396 1407 375 1419 q 449 1357 417 1394 q 497 1305 482 1319 q 535 1268 511 1290 q 568 1238 560 1246 q 592 1183 592 1214 q 567 1128 592 1153 q 509 1104 543 1104 q 439 1138 475 1104 q 377 1204 403 1171 q 340 1238 351 1238 q 303 1206 329 1238 q 169 1106 225 1106 q 113 1130 138 1106 q 89 1178 89 1154 q 97 1216 89 1201 q 113 1239 104 1231 q 145 1269 121 1247 q 185 1307 169 1292 q 224 1348 200 1322 q 260 1386 247 1374 z "},"ï":{"ha":681,"x_min":58,"x_max":626,"o":"m 174 1050 l 343 1042 l 513 1050 q 595 1025 564 1050 q 626 958 626 1000 q 595 890 626 915 q 513 865 564 865 l 447 869 q 438 520 438 664 q 447 171 438 376 q 513 176 497 176 q 595 151 564 176 q 626 84 626 126 q 595 17 626 42 q 513 -8 564 -8 l 343 0 l 174 -10 q 90 15 121 -10 q 58 83 58 40 q 90 151 58 126 q 174 175 121 175 l 239 169 q 249 519 249 375 q 239 869 249 664 q 159 865 197 865 q 90 890 121 865 q 58 957 58 914 q 90 1025 58 1000 q 174 1050 121 1050 m 509 1342 q 533 1342 509 1342 q 585 1310 557 1342 q 613 1233 613 1279 q 581 1151 613 1188 q 501 1114 549 1114 q 426 1146 453 1114 q 399 1224 399 1178 q 430 1306 399 1269 q 509 1342 461 1342 m 178 1342 q 202 1342 178 1342 q 254 1310 226 1342 q 282 1233 282 1279 q 250 1151 282 1188 q 170 1114 218 1114 q 95 1146 122 1114 q 68 1224 68 1178 q 99 1306 68 1269 q 178 1342 131 1342 z "},"ð":{"ha":888,"x_min":74,"x_max":794,"o":"m 565 949 q 733 715 672 860 q 794 394 794 571 q 697 99 794 218 q 433 -21 599 -21 q 171 86 268 -21 q 74 336 74 193 q 163 588 74 479 q 407 696 253 696 q 557 658 485 696 q 421 819 507 761 l 357 757 q 287 725 322 725 q 228 748 251 725 q 204 808 204 771 q 238 878 204 844 q 149 909 176 882 q 122 974 122 936 q 157 1037 122 1011 q 263 1063 192 1063 q 411 1036 335 1063 q 528 1114 479 1114 q 586 1091 563 1114 q 610 1031 610 1068 q 565 949 610 993 m 424 519 q 388 519 424 519 q 310 467 351 519 q 269 338 269 415 q 315 208 269 261 q 430 156 361 156 q 544 206 499 156 q 589 330 589 256 q 542 462 589 404 q 424 519 496 519 z "},"ñ":{"ha":1122,"x_min":100,"x_max":1036,"o":"m 750 222 l 757 594 q 715 800 757 722 q 593 878 674 878 q 429 777 513 878 q 313 544 346 676 l 321 136 q 217 -14 321 -14 q 100 163 100 -14 q 136 539 100 301 q 121 738 136 604 q 106 933 106 871 q 133 1027 106 994 q 211 1060 161 1060 q 313 903 313 1060 q 603 1056 433 1056 q 864 947 774 1056 q 954 681 954 838 l 946 326 q 963 178 946 194 q 992 164 972 168 q 1024 151 1011 160 q 1036 122 1036 143 q 997 24 1036 64 q 904 -17 957 -17 q 783 44 817 -17 q 750 222 750 104 m 858 1279 q 801 1181 858 1232 q 690 1131 743 1131 q 567 1165 638 1131 q 476 1199 497 1199 q 412 1160 454 1199 q 332 1122 369 1122 q 269 1148 294 1122 q 244 1211 244 1174 q 304 1311 244 1265 q 451 1357 364 1357 q 571 1324 496 1357 q 676 1290 646 1290 q 740 1321 707 1290 q 799 1351 774 1351 q 842 1331 825 1351 q 858 1279 858 1310 z "},"ò":{"ha":1143,"x_min":88,"x_max":1056,"o":"m 572 154 q 633 154 572 154 q 776 265 694 154 q 858 523 858 376 q 777 778 858 669 q 572 888 696 888 q 366 778 447 888 q 285 523 285 669 q 367 265 285 376 q 572 154 449 154 m 573 1063 q 676 1063 573 1063 q 917 905 779 1063 q 1056 522 1056 747 q 917 138 1056 296 q 572 -21 778 -21 q 226 138 365 -21 q 88 522 88 296 q 227 905 88 747 q 573 1063 367 1063 m 413 1290 q 435 1356 413 1326 q 490 1386 457 1386 q 539 1380 522 1386 q 567 1360 556 1374 q 585 1335 579 1346 q 601 1302 592 1325 q 615 1273 611 1279 q 647 1224 618 1267 q 675 1158 675 1182 q 657 1117 675 1135 q 607 1100 639 1100 q 485 1161 557 1100 q 413 1290 413 1222 z "},"ó":{"ha":1143,"x_min":88,"x_max":1056,"o":"m 572 154 q 633 154 572 154 q 776 265 694 154 q 858 523 858 376 q 777 778 858 669 q 572 888 696 888 q 366 778 447 888 q 285 523 285 669 q 367 265 285 376 q 572 154 449 154 m 573 1063 q 676 1063 573 1063 q 917 905 779 1063 q 1056 522 1056 747 q 917 138 1056 296 q 572 -21 778 -21 q 226 138 365 -21 q 88 522 88 296 q 227 905 88 747 q 573 1063 367 1063 m 731 1290 q 658 1161 731 1222 q 536 1100 586 1100 q 486 1117 504 1100 q 468 1158 468 1135 q 497 1224 468 1182 q 528 1273 525 1267 q 542 1302 532 1279 q 558 1335 551 1325 q 575 1360 564 1346 q 642 1386 599 1386 q 708 1356 686 1386 q 731 1290 731 1326 z "},"ô":{"ha":1143,"x_min":88,"x_max":1056,"o":"m 572 154 q 633 154 572 154 q 776 265 694 154 q 858 523 858 376 q 777 778 858 669 q 572 888 696 888 q 366 778 447 888 q 285 523 285 669 q 367 265 285 376 q 572 154 449 154 m 573 1063 q 676 1063 573 1063 q 917 905 779 1063 q 1056 522 1056 747 q 917 138 1056 296 q 572 -21 778 -21 q 226 138 365 -21 q 88 522 88 296 q 227 905 88 747 q 573 1063 367 1063 m 490 1372 q 497 1378 490 1372 q 524 1395 503 1385 q 576 1406 546 1406 q 626 1393 606 1406 q 680 1343 647 1381 q 727 1291 713 1306 q 766 1254 742 1276 q 799 1224 790 1232 q 822 1169 822 1200 q 798 1115 822 1139 q 740 1090 774 1090 q 669 1124 706 1090 q 608 1190 633 1157 q 571 1224 582 1224 q 533 1192 560 1224 q 400 1092 456 1092 q 344 1116 368 1092 q 319 1164 319 1140 q 327 1202 319 1188 q 343 1225 335 1217 q 376 1256 351 1233 q 415 1293 400 1278 q 454 1334 431 1308 q 490 1372 478 1360 z "},"õ":{"ha":1143,"x_min":88,"x_max":1056,"o":"m 572 154 q 633 154 572 154 q 776 265 694 154 q 858 523 858 376 q 777 778 858 669 q 572 888 696 888 q 366 778 447 888 q 285 523 285 669 q 367 265 285 376 q 572 154 449 154 m 573 1063 q 676 1063 573 1063 q 917 905 779 1063 q 1056 522 1056 747 q 917 138 1056 296 q 572 -21 778 -21 q 226 138 365 -21 q 88 522 88 296 q 227 905 88 747 q 573 1063 367 1063 m 878 1279 q 820 1181 878 1232 q 710 1131 763 1131 q 587 1165 657 1131 q 495 1199 517 1199 q 431 1160 474 1199 q 351 1122 389 1122 q 289 1148 314 1122 q 264 1211 264 1174 q 324 1311 264 1265 q 471 1357 383 1357 q 590 1324 515 1357 q 696 1290 665 1290 q 760 1321 726 1290 q 819 1351 793 1351 q 861 1331 844 1351 q 878 1279 878 1310 z "},"ö":{"ha":1143,"x_min":88,"x_max":1056,"o":"m 572 154 q 633 154 572 154 q 776 265 694 154 q 858 523 858 376 q 777 778 858 669 q 572 888 696 888 q 366 778 447 888 q 285 523 285 669 q 367 265 285 376 q 572 154 449 154 m 573 1063 q 676 1063 573 1063 q 917 905 779 1063 q 1056 522 1056 747 q 917 138 1056 296 q 572 -21 778 -21 q 226 138 365 -21 q 88 522 88 296 q 227 905 88 747 q 573 1063 367 1063 m 740 1343 q 764 1343 740 1343 q 815 1312 788 1343 q 843 1235 843 1281 q 811 1152 843 1189 q 731 1115 779 1115 q 656 1147 683 1115 q 629 1225 629 1179 q 660 1307 629 1271 q 740 1343 692 1343 m 409 1343 q 433 1343 409 1343 q 485 1312 457 1343 q 513 1235 513 1281 q 481 1152 513 1189 q 401 1115 449 1115 q 326 1147 353 1115 q 299 1225 299 1179 q 330 1307 299 1271 q 409 1343 361 1343 z "},"÷":{"ha":875,"x_min":92,"x_max":783,"o":"m 439 601 l 683 608 q 755 583 726 608 q 783 522 783 558 q 755 461 783 486 q 683 436 726 436 l 439 443 l 193 438 q 121 462 150 438 q 92 522 92 486 q 121 583 92 558 q 193 607 150 607 l 439 601 m 441 364 q 465 364 441 364 q 517 333 489 364 q 544 256 544 301 q 513 173 544 210 q 433 136 481 136 q 358 168 385 136 q 331 246 331 200 q 362 328 331 292 q 441 364 393 364 m 440 903 q 464 903 440 903 q 515 872 488 903 q 543 794 543 840 q 511 712 543 749 q 431 675 479 675 q 356 707 383 675 q 329 785 329 739 q 360 867 329 831 q 440 903 392 903 z "},"ø":{"ha":1143,"x_min":88,"x_max":1056,"o":"m 572 1063 l 600 1061 q 703 1165 631 1165 q 773 1137 746 1165 q 800 1075 800 1108 q 792 1006 800 1042 q 984 809 913 939 q 1056 521 1056 679 q 917 138 1056 296 q 571 -21 778 -21 l 540 -19 q 440 -117 510 -117 q 370 -88 397 -117 q 343 -15 343 -60 q 350 36 343 4 q 158 234 229 104 q 88 521 88 364 q 227 905 88 747 q 572 1063 367 1063 m 858 521 q 827 688 858 610 q 740 818 796 767 q 581 154 664 549 q 779 269 700 158 q 858 521 858 379 m 401 225 q 561 888 503 596 q 363 774 440 882 q 285 521 285 665 q 315 356 285 435 q 401 225 346 278 z "},"ù":{"ha":1140,"x_min":100,"x_max":1054,"o":"m 763 499 l 754 907 q 858 1057 754 1057 q 975 881 975 1057 q 939 504 975 742 q 954 311 939 429 q 996 175 969 193 q 1032 154 1021 158 q 1047 147 1043 150 q 1054 119 1054 140 q 1018 26 1054 67 q 924 -14 982 -14 q 829 35 867 -14 q 778 161 792 85 q 649 38 733 89 q 465 -12 564 -12 q 211 97 301 -12 q 121 363 121 206 l 129 717 q 115 840 129 774 q 100 951 100 906 q 131 1026 100 996 q 213 1056 163 1056 q 328 881 328 1056 l 318 449 q 360 243 318 321 q 482 165 401 165 q 646 266 563 165 q 763 499 729 367 m 361 1288 q 383 1353 361 1324 q 438 1383 406 1383 q 488 1377 471 1383 q 516 1357 504 1371 q 534 1333 528 1343 q 550 1299 540 1322 q 563 1270 560 1276 q 595 1222 567 1264 q 624 1156 624 1179 q 606 1115 624 1132 q 556 1097 588 1097 q 433 1158 506 1097 q 361 1288 361 1219 z "},"ú":{"ha":1140,"x_min":100,"x_max":1054,"o":"m 763 499 l 754 907 q 858 1057 754 1057 q 975 881 975 1057 q 939 504 975 742 q 954 311 939 429 q 996 175 969 193 q 1032 154 1021 158 q 1047 147 1043 150 q 1054 119 1054 140 q 1018 26 1054 67 q 924 -14 982 -14 q 829 35 867 -14 q 778 161 792 85 q 649 38 733 89 q 465 -12 564 -12 q 211 97 301 -12 q 121 363 121 206 l 129 717 q 115 840 129 774 q 100 951 100 906 q 131 1026 100 996 q 213 1056 163 1056 q 328 881 328 1056 l 318 449 q 360 243 318 321 q 482 165 401 165 q 646 266 563 165 q 763 499 729 367 m 693 1288 q 621 1158 693 1219 q 499 1097 549 1097 q 449 1115 467 1097 q 431 1156 431 1132 q 459 1222 431 1179 q 491 1270 488 1264 q 504 1299 494 1276 q 520 1333 514 1322 q 539 1357 526 1343 q 605 1383 561 1383 q 671 1353 649 1383 q 693 1288 693 1324 z "},"û":{"ha":1140,"x_min":100,"x_max":1054,"o":"m 763 499 l 754 907 q 858 1057 754 1057 q 975 881 975 1057 q 939 504 975 742 q 954 311 939 429 q 996 175 969 193 q 1032 154 1021 158 q 1047 147 1043 150 q 1054 119 1054 140 q 1018 26 1054 67 q 924 -14 982 -14 q 829 35 867 -14 q 778 161 792 85 q 649 38 733 89 q 465 -12 564 -12 q 211 97 301 -12 q 121 363 121 206 l 129 717 q 115 840 129 774 q 100 951 100 906 q 131 1026 100 996 q 213 1056 163 1056 q 328 881 328 1056 l 318 449 q 360 243 318 321 q 482 165 401 165 q 646 266 563 165 q 763 499 729 367 m 447 1383 q 453 1390 447 1383 q 481 1406 460 1396 q 533 1417 503 1417 q 583 1404 563 1417 q 637 1354 604 1392 q 684 1302 669 1317 q 723 1265 699 1288 q 756 1235 747 1243 q 779 1181 779 1211 q 755 1126 779 1150 q 697 1101 731 1101 q 626 1135 663 1101 q 565 1201 590 1168 q 528 1235 539 1235 q 492 1203 517 1235 q 357 1103 413 1103 q 301 1127 325 1103 q 276 1175 276 1151 q 284 1213 276 1199 q 300 1236 292 1228 q 333 1267 308 1244 q 372 1304 357 1289 q 411 1345 388 1319 q 447 1383 435 1371 z "},"ü":{"ha":1140,"x_min":100,"x_max":1054,"o":"m 763 499 l 754 907 q 858 1057 754 1057 q 975 881 975 1057 q 939 504 975 742 q 954 311 939 429 q 996 175 969 193 q 1032 154 1021 158 q 1047 147 1043 150 q 1054 119 1054 140 q 1018 26 1054 67 q 924 -14 982 -14 q 829 35 867 -14 q 778 161 792 85 q 649 38 733 89 q 465 -12 564 -12 q 211 97 301 -12 q 121 363 121 206 l 129 717 q 115 840 129 774 q 100 951 100 906 q 131 1026 100 996 q 213 1056 163 1056 q 328 881 328 1056 l 318 449 q 360 243 318 321 q 482 165 401 165 q 646 266 563 165 q 763 499 729 367 m 697 1349 q 720 1349 697 1349 q 772 1317 744 1349 q 800 1240 800 1286 q 768 1158 800 1194 q 688 1121 736 1121 q 613 1153 640 1121 q 586 1231 586 1185 q 617 1313 586 1276 q 697 1349 649 1349 m 366 1349 q 390 1349 366 1349 q 442 1317 414 1349 q 469 1240 469 1286 q 438 1158 469 1194 q 358 1121 406 1121 q 283 1153 310 1121 q 256 1231 256 1185 q 287 1313 256 1276 q 366 1349 318 1349 z "},"ý":{"ha":836,"x_min":28,"x_max":808,"o":"m 310 136 q 319 407 310 203 q 197 627 275 497 q 74 840 119 757 q 28 962 28 922 q 52 1028 28 1001 q 115 1056 76 1056 q 174 1042 153 1056 q 218 991 194 1029 q 263 910 242 953 q 421 608 347 733 q 550 850 500 747 q 623 991 600 953 q 666 1042 646 1029 q 723 1056 686 1056 q 784 1027 760 1056 q 808 962 808 999 q 761 841 808 925 q 635 627 714 757 q 511 406 556 497 q 521 136 521 221 q 415 -14 521 -14 q 310 136 310 -14 m 589 1288 q 517 1158 589 1219 q 394 1097 444 1097 q 344 1115 363 1097 q 326 1156 326 1132 q 355 1222 326 1179 q 387 1270 383 1264 q 400 1299 390 1276 q 416 1333 410 1322 q 433 1357 422 1343 q 501 1383 457 1383 q 567 1353 544 1383 q 589 1288 589 1324 z "},"þ":{"ha":864,"x_min":129,"x_max":818,"o":"m 332 693 q 331 574 331 656 q 332 444 331 492 q 458 433 383 433 q 578 470 532 433 q 624 568 624 507 q 577 666 624 629 q 457 703 531 703 q 332 693 383 703 m 140 522 l 129 903 q 156 1013 129 971 q 235 1056 182 1056 q 314 1019 289 1056 q 339 932 339 983 q 336 871 339 918 q 457 879 392 879 q 718 790 618 879 q 818 568 818 701 q 719 346 818 435 q 458 257 619 257 q 335 265 393 257 q 339 104 339 150 q 313 22 339 58 q 238 -14 288 -14 q 160 19 188 -14 q 132 108 132 51 l 140 522 z "},"ÿ":{"ha":836,"x_min":28,"x_max":808,"o":"m 310 136 q 319 407 310 203 q 197 627 275 497 q 74 840 119 757 q 28 962 28 922 q 52 1028 28 1001 q 115 1056 76 1056 q 174 1042 153 1056 q 218 991 194 1029 q 263 910 242 953 q 421 608 347 733 q 550 850 500 747 q 623 991 600 953 q 666 1042 646 1029 q 723 1056 686 1056 q 784 1027 760 1056 q 808 962 808 999 q 761 841 808 925 q 635 627 714 757 q 511 406 556 497 q 521 136 521 221 q 415 -14 521 -14 q 310 136 310 -14 m 587 1343 q 611 1343 587 1343 q 663 1312 635 1343 q 690 1235 690 1281 q 658 1152 690 1189 q 578 1115 626 1115 q 503 1147 531 1115 q 476 1225 476 1179 q 508 1307 476 1271 q 587 1343 539 1343 m 256 1343 q 280 1343 256 1343 q 332 1312 304 1343 q 360 1235 360 1281 q 328 1152 360 1189 q 248 1115 296 1115 q 173 1147 200 1115 q 146 1225 146 1179 q 177 1307 146 1271 q 256 1343 208 1343 z "},"Ħ":{"ha":1094,"x_min":31,"x_max":1064,"o":"m 156 136 l 165 444 q 99 477 122 450 q 76 540 76 504 q 101 601 76 575 q 165 636 125 628 q 158 785 165 657 l 132 785 q 60 809 89 785 q 31 869 31 833 q 60 930 31 906 q 132 954 89 954 l 163 954 q 264 1054 183 1054 q 363 951 344 1054 q 567 949 515 949 q 733 951 619 949 q 833 1056 753 1056 q 932 956 914 1056 l 963 953 q 1035 928 1006 953 q 1064 868 1064 904 q 1035 808 1064 832 q 963 783 1006 783 l 936 783 q 929 636 932 689 q 995 601 971 628 q 1019 539 1019 575 q 996 476 1019 503 q 929 444 972 450 l 939 136 q 834 -14 939 -14 q 729 136 729 -14 l 738 451 l 544 456 l 357 451 l 367 136 q 261 -14 367 -14 q 156 136 156 -14 m 358 629 l 544 625 q 738 629 639 625 q 731 788 738 644 q 544 790 578 790 l 365 786 q 363 708 365 761 l 358 629 z "},"ħ":{"ha":1094,"x_min":31,"x_max":1064,"o":"m 156 136 l 165 444 q 99 477 122 450 q 76 540 76 504 q 101 601 76 575 q 165 636 125 628 q 158 785 165 657 l 132 785 q 60 809 89 785 q 31 869 31 833 q 60 930 31 906 q 132 954 89 954 l 163 954 q 264 1054 183 1054 q 363 951 344 1054 q 567 949 515 949 q 733 951 619 949 q 833 1056 753 1056 q 932 956 914 1056 l 963 953 q 1035 928 1006 953 q 1064 868 1064 904 q 1035 808 1064 832 q 963 783 1006 783 l 936 783 q 929 636 932 689 q 995 601 971 628 q 1019 539 1019 575 q 996 476 1019 503 q 929 444 972 450 l 939 136 q 834 -14 939 -14 q 729 136 729 -14 l 738 451 l 544 456 l 357 451 l 367 136 q 261 -14 367 -14 q 156 136 156 -14 m 358 629 l 544 625 q 738 629 639 625 q 731 788 738 644 q 544 790 578 790 l 365 786 q 363 708 365 761 l 358 629 z "},"Ĩ":{"ha":681,"x_min":33,"x_max":647,"o":"m 174 1050 l 343 1042 l 513 1050 q 595 1025 564 1050 q 626 958 626 1000 q 595 890 626 915 q 513 865 564 865 l 447 869 q 438 520 438 664 q 447 171 438 376 q 513 176 497 176 q 595 151 564 176 q 626 84 626 126 q 595 17 626 42 q 513 -8 564 -8 l 343 0 l 174 -10 q 90 15 121 -10 q 58 83 58 40 q 90 151 58 126 q 174 175 121 175 l 239 169 q 249 519 249 375 q 239 869 249 664 q 159 865 197 865 q 90 890 121 865 q 58 957 58 914 q 90 1025 58 1000 q 174 1050 121 1050 m 647 1279 q 590 1181 647 1232 q 479 1131 532 1131 q 356 1165 426 1131 q 265 1199 286 1199 q 201 1160 243 1199 q 121 1122 158 1122 q 58 1148 83 1122 q 33 1211 33 1174 q 93 1311 33 1265 q 240 1357 153 1357 q 360 1324 285 1357 q 465 1290 435 1290 q 529 1321 496 1290 q 588 1351 563 1351 q 631 1331 614 1351 q 647 1279 647 1310 z "},"ĩ":{"ha":681,"x_min":33,"x_max":647,"o":"m 174 1050 l 343 1042 l 513 1050 q 595 1025 564 1050 q 626 958 626 1000 q 595 890 626 915 q 513 865 564 865 l 447 869 q 438 520 438 664 q 447 171 438 376 q 513 176 497 176 q 595 151 564 176 q 626 84 626 126 q 595 17 626 42 q 513 -8 564 -8 l 343 0 l 174 -10 q 90 15 121 -10 q 58 83 58 40 q 90 151 58 126 q 174 175 121 175 l 239 169 q 249 519 249 375 q 239 869 249 664 q 159 865 197 865 q 90 890 121 865 q 58 957 58 914 q 90 1025 58 1000 q 174 1050 121 1050 m 647 1279 q 590 1181 647 1232 q 479 1131 532 1131 q 356 1165 426 1131 q 265 1199 286 1199 q 201 1160 243 1199 q 121 1122 158 1122 q 58 1148 83 1122 q 33 1211 33 1174 q 93 1311 33 1265 q 240 1357 153 1357 q 360 1324 285 1357 q 465 1290 435 1290 q 529 1321 496 1290 q 588 1351 563 1351 q 631 1331 614 1351 q 647 1279 647 1310 z "},"İ":{"ha":681,"x_min":58,"x_max":626,"o":"m 174 1050 l 343 1042 l 513 1050 q 595 1025 564 1050 q 626 958 626 1000 q 595 890 626 915 q 513 865 564 865 l 447 869 q 438 520 438 664 q 447 171 438 376 q 513 176 497 176 q 595 151 564 176 q 626 84 626 126 q 595 17 626 42 q 513 -8 564 -8 l 343 0 l 174 -10 q 90 15 121 -10 q 58 83 58 40 q 90 151 58 126 q 174 175 121 175 l 239 169 q 249 519 249 375 q 239 869 249 664 q 159 865 197 865 q 90 890 121 865 q 58 957 58 914 q 90 1025 58 1000 q 174 1050 121 1050 m 356 1343 q 380 1343 356 1343 q 432 1312 404 1343 q 460 1235 460 1281 q 428 1152 460 1189 q 348 1115 396 1115 q 273 1147 300 1115 q 246 1225 246 1179 q 277 1307 246 1271 q 356 1343 308 1343 z "},"ı":{"ha":681,"x_min":58,"x_max":626,"o":"m 174 1050 l 343 1042 l 513 1050 q 595 1025 564 1050 q 626 958 626 1000 q 595 890 626 915 q 513 865 564 865 l 447 869 q 438 520 438 664 q 447 171 438 376 q 513 176 497 176 q 595 151 564 176 q 626 84 626 126 q 595 17 626 42 q 513 -8 564 -8 l 343 0 l 174 -10 q 90 15 121 -10 q 58 83 58 40 q 90 151 58 126 q 174 175 121 175 l 239 169 q 249 519 249 375 q 239 869 249 664 q 159 865 197 865 q 90 890 121 865 q 58 957 58 914 q 90 1025 58 1000 q 174 1050 121 1050 z "},"Ĳ":{"ha":1451,"x_min":58,"x_max":1388,"o":"m 174 1050 l 343 1042 l 513 1050 q 595 1025 564 1050 q 626 958 626 1000 q 595 890 626 915 q 513 865 564 865 l 447 869 q 438 520 438 664 q 447 171 438 376 q 513 176 497 176 q 595 151 564 176 q 626 84 626 126 q 595 17 626 42 q 513 -8 564 -8 l 343 0 l 174 -10 q 90 15 121 -10 q 58 83 58 40 q 90 151 58 126 q 174 175 121 175 l 239 169 q 249 519 249 375 q 239 869 249 664 q 159 865 197 865 q 90 890 121 865 q 58 957 58 914 q 90 1025 58 1000 q 174 1050 121 1050 m 1081 1042 l 1274 1050 q 1356 1025 1325 1050 q 1388 957 1388 1000 q 1299 865 1388 882 q 1297 365 1297 761 q 1268 183 1297 261 q 1189 63 1239 106 q 966 -21 1092 -21 q 760 33 840 -21 q 679 143 679 86 q 704 206 679 182 q 765 229 729 229 q 853 192 800 229 q 964 156 906 156 q 1065 213 1022 156 q 1108 393 1108 269 l 1106 871 l 914 863 q 831 888 861 863 q 800 956 800 913 q 831 1024 800 999 q 914 1050 863 1050 l 1081 1042 z "},"ĳ":{"ha":1451,"x_min":58,"x_max":1388,"o":"m 174 1050 l 343 1042 l 513 1050 q 595 1025 564 1050 q 626 958 626 1000 q 595 890 626 915 q 513 865 564 865 l 447 869 q 438 520 438 664 q 447 171 438 376 q 513 176 497 176 q 595 151 564 176 q 626 84 626 126 q 595 17 626 42 q 513 -8 564 -8 l 343 0 l 174 -10 q 90 15 121 -10 q 58 83 58 40 q 90 151 58 126 q 174 175 121 175 l 239 169 q 249 519 249 375 q 239 869 249 664 q 159 865 197 865 q 90 890 121 865 q 58 957 58 914 q 90 1025 58 1000 q 174 1050 121 1050 m 1081 1042 l 1274 1050 q 1356 1025 1325 1050 q 1388 957 1388 1000 q 1299 865 1388 882 q 1297 365 1297 761 q 1268 183 1297 261 q 1189 63 1239 106 q 966 -21 1092 -21 q 760 33 840 -21 q 679 143 679 86 q 704 206 679 182 q 765 229 729 229 q 853 192 800 229 q 964 156 906 156 q 1065 213 1022 156 q 1108 393 1108 269 l 1106 871 l 914 863 q 831 888 861 863 q 800 956 800 913 q 831 1024 800 999 q 914 1050 863 1050 l 1081 1042 z "},"Ĵ":{"ha":832,"x_min":60,"x_max":768,"o":"m 461 1042 l 654 1050 q 737 1025 706 1050 q 768 957 768 1000 q 679 865 768 882 q 678 365 678 761 q 649 183 678 261 q 569 63 619 106 q 347 -21 472 -21 q 140 33 221 -21 q 60 143 60 86 q 85 206 60 182 q 145 229 110 229 q 233 192 181 229 q 344 156 286 156 q 446 213 403 156 q 489 393 489 269 l 486 871 l 294 863 q 211 888 242 863 q 181 956 181 913 q 212 1024 181 999 q 294 1050 243 1050 l 461 1042 m 396 1383 q 402 1390 396 1383 q 430 1406 408 1396 q 481 1417 451 1417 q 532 1404 511 1417 q 585 1354 553 1392 q 633 1302 618 1317 q 672 1265 647 1288 q 704 1235 696 1243 q 728 1181 728 1211 q 703 1126 728 1150 q 645 1101 679 1101 q 575 1135 611 1101 q 513 1201 539 1168 q 476 1235 488 1235 q 439 1203 465 1235 q 306 1103 361 1103 q 249 1127 274 1103 q 225 1175 225 1151 q 233 1213 225 1199 q 249 1236 240 1228 q 281 1267 257 1244 q 321 1304 306 1289 q 360 1345 336 1319 q 396 1383 383 1371 z "},"ĵ":{"ha":832,"x_min":60,"x_max":768,"o":"m 461 1042 l 654 1050 q 737 1025 706 1050 q 768 957 768 1000 q 679 865 768 882 q 678 365 678 761 q 649 183 678 261 q 569 63 619 106 q 347 -21 472 -21 q 140 33 221 -21 q 60 143 60 86 q 85 206 60 182 q 145 229 110 229 q 233 192 181 229 q 344 156 286 156 q 446 213 403 156 q 489 393 489 269 l 486 871 l 294 863 q 211 888 242 863 q 181 956 181 913 q 212 1024 181 999 q 294 1050 243 1050 l 461 1042 m 396 1383 q 402 1390 396 1383 q 430 1406 408 1396 q 481 1417 451 1417 q 532 1404 511 1417 q 585 1354 553 1392 q 633 1302 618 1317 q 672 1265 647 1288 q 704 1235 696 1243 q 728 1181 728 1211 q 703 1126 728 1150 q 645 1101 679 1101 q 575 1135 611 1101 q 513 1201 539 1168 q 476 1235 488 1235 q 439 1203 465 1235 q 306 1103 361 1103 q 249 1127 274 1103 q 225 1175 225 1151 q 233 1213 225 1199 q 249 1236 240 1228 q 281 1267 257 1244 q 321 1304 306 1289 q 360 1345 336 1319 q 396 1383 383 1371 z "},"Ķ":{"ha":974,"x_min":142,"x_max":947,"o":"m 508 -160 q 434 -289 508 -228 q 310 -350 360 -350 q 260 -333 278 -350 q 242 -292 242 -315 q 270 -226 242 -268 q 302 -177 299 -183 q 315 -148 306 -171 q 331 -115 325 -125 q 350 -90 338 -104 q 416 -64 372 -64 q 484 -94 460 -64 q 508 -160 508 -125 m 353 903 q 343 649 353 882 q 406 651 390 651 q 476 644 421 651 q 578 774 531 690 q 654 947 625 857 q 758 1056 688 1056 q 823 1030 796 1056 q 850 965 850 1004 q 782 753 850 883 q 629 532 714 624 q 778 281 696 392 q 893 153 860 169 q 917 147 901 149 q 940 138 933 144 q 947 113 947 132 q 913 26 947 67 q 828 -14 879 -14 q 734 20 776 -14 q 633 143 692 54 q 453 443 574 232 q 378 435 403 435 q 343 438 354 435 l 353 138 q 247 -14 353 -14 q 142 138 142 -14 l 153 528 l 142 903 q 247 1054 142 1054 q 353 903 353 1054 z "},"ķ":{"ha":974,"x_min":142,"x_max":947,"o":"m 508 -160 q 434 -289 508 -228 q 310 -350 360 -350 q 260 -333 278 -350 q 242 -292 242 -315 q 270 -226 242 -268 q 302 -177 299 -183 q 315 -148 306 -171 q 331 -115 325 -125 q 350 -90 338 -104 q 416 -64 372 -64 q 484 -94 460 -64 q 508 -160 508 -125 m 353 903 q 343 649 353 882 q 406 651 390 651 q 476 644 421 651 q 578 774 531 690 q 654 947 625 857 q 758 1056 688 1056 q 823 1030 796 1056 q 850 965 850 1004 q 782 753 850 883 q 629 532 714 624 q 778 281 696 392 q 893 153 860 169 q 917 147 901 149 q 940 138 933 144 q 947 113 947 132 q 913 26 947 67 q 828 -14 879 -14 q 734 20 776 -14 q 633 143 692 54 q 453 443 574 232 q 378 435 403 435 q 343 438 354 435 l 353 138 q 247 -14 353 -14 q 142 138 142 -14 l 153 528 l 142 903 q 247 1054 142 1054 q 353 903 353 1054 z "},"ĸ":{"ha":974,"x_min":142,"x_max":947,"o":"m 353 903 q 343 649 353 882 q 406 651 390 651 q 476 644 421 651 q 578 774 531 690 q 654 947 625 857 q 758 1056 688 1056 q 823 1030 796 1056 q 850 965 850 1004 q 782 753 850 883 q 629 532 714 624 q 778 281 696 392 q 893 153 860 169 q 917 147 901 149 q 940 138 933 144 q 947 113 947 132 q 913 26 947 67 q 828 -14 879 -14 q 734 20 776 -14 q 633 143 692 54 q 453 443 574 232 q 378 435 403 435 q 343 438 354 435 l 353 138 q 247 -14 353 -14 q 142 138 142 -14 l 153 528 l 142 903 q 247 1054 142 1054 q 353 903 353 1054 z "},"Ŀ":{"ha":826,"x_min":142,"x_max":779,"o":"m 474 169 l 664 178 q 748 153 717 178 q 779 86 779 129 q 748 17 779 43 q 664 -8 717 -8 l 474 0 l 264 -8 q 178 25 213 -8 q 144 114 144 58 l 153 528 l 142 904 q 247 1056 142 1056 q 353 904 353 1056 l 342 528 q 351 172 342 457 q 474 169 424 169 m 565 646 q 589 646 565 646 q 640 615 613 646 q 668 538 668 583 q 636 455 668 492 q 556 418 604 418 q 481 450 508 418 q 454 528 454 482 q 485 610 454 574 q 565 646 517 646 z "},"ŀ":{"ha":826,"x_min":142,"x_max":779,"o":"m 474 169 l 664 178 q 748 153 717 178 q 779 86 779 129 q 748 17 779 43 q 664 -8 717 -8 l 474 0 l 264 -8 q 178 25 213 -8 q 144 114 144 58 l 153 528 l 142 904 q 247 1056 142 1056 q 353 904 353 1056 l 342 528 q 351 172 342 457 q 474 169 424 169 m 565 646 q 589 646 565 646 q 640 615 613 646 q 668 538 668 583 q 636 455 668 492 q 556 418 604 418 q 481 450 508 418 q 454 528 454 482 q 485 610 454 574 q 565 646 517 646 z "},"Ł":{"ha":854,"x_min":19,"x_max":803,"o":"m 497 169 l 688 178 q 772 153 740 178 q 803 86 803 129 q 772 17 803 43 q 688 -8 740 -8 l 497 0 l 288 -8 q 202 25 236 -8 q 168 114 168 58 q 175 417 168 142 q 102 385 138 385 q 43 407 67 385 q 19 456 19 429 q 31 503 19 482 q 64 546 42 525 q 103 581 86 567 q 174 633 157 625 q 165 904 165 892 q 271 1056 165 1056 q 376 904 376 1056 q 375 807 376 839 q 413 839 400 829 q 481 868 447 868 q 540 844 515 868 q 565 794 565 821 q 555 747 565 767 q 521 705 544 726 q 477 667 497 683 q 421 625 457 651 q 365 583 385 599 q 375 172 365 457 q 497 169 447 169 z "},"ł":{"ha":854,"x_min":19,"x_max":803,"o":"m 497 169 l 688 178 q 772 153 740 178 q 803 86 803 129 q 772 17 803 43 q 688 -8 740 -8 l 497 0 l 288 -8 q 202 25 236 -8 q 168 114 168 58 q 175 417 168 142 q 102 385 138 385 q 43 407 67 385 q 19 456 19 429 q 31 503 19 482 q 64 546 42 525 q 103 581 86 567 q 174 633 157 625 q 165 904 165 892 q 271 1056 165 1056 q 376 904 376 1056 q 375 807 376 839 q 413 839 400 829 q 481 868 447 868 q 540 844 515 868 q 565 794 565 821 q 555 747 565 767 q 521 705 544 726 q 477 667 497 683 q 421 625 457 651 q 365 583 385 599 q 375 172 365 457 q 497 169 447 169 z "},"Ń":{"ha":1063,"x_min":146,"x_max":921,"o":"m 910 528 l 914 111 q 810 -14 914 -14 q 714 43 749 -14 l 350 653 q 347 542 347 619 l 357 136 q 251 -14 357 -14 q 146 136 146 -14 l 157 514 q 151 701 157 565 q 146 932 146 838 q 249 1056 146 1056 q 351 1000 319 1056 l 722 364 l 721 528 l 710 906 q 815 1056 710 1056 q 921 906 921 1056 l 910 528 m 722 1289 q 650 1160 722 1221 q 528 1099 578 1099 q 478 1116 496 1099 q 460 1157 460 1133 q 488 1223 460 1181 q 520 1272 517 1265 q 533 1301 524 1278 q 549 1334 543 1324 q 567 1358 556 1344 q 634 1385 590 1385 q 700 1355 678 1385 q 722 1289 722 1325 z "},"ń":{"ha":1122,"x_min":100,"x_max":1036,"o":"m 750 222 l 757 594 q 715 800 757 722 q 593 878 674 878 q 429 777 513 878 q 313 544 346 676 l 321 136 q 217 -14 321 -14 q 100 163 100 -14 q 136 539 100 301 q 121 738 136 604 q 106 933 106 871 q 133 1027 106 994 q 211 1060 161 1060 q 313 903 313 1060 q 603 1056 433 1056 q 864 947 774 1056 q 954 681 954 838 l 946 326 q 963 178 946 194 q 992 164 972 168 q 1024 151 1011 160 q 1036 122 1036 143 q 997 24 1036 64 q 904 -17 957 -17 q 783 44 817 -17 q 750 222 750 104 m 757 1301 q 685 1172 757 1233 q 563 1111 613 1111 q 513 1128 531 1111 q 494 1169 494 1146 q 523 1235 494 1193 q 555 1284 551 1278 q 568 1313 558 1290 q 584 1347 578 1336 q 603 1371 590 1357 q 669 1397 625 1397 q 735 1367 713 1397 q 757 1301 757 1338 z "},"Œ":{"ha":1364,"x_min":86,"x_max":1294,"o":"m 1179 864 l 986 872 q 886 869 958 872 q 974 639 950 776 q 1122 646 1101 646 q 1204 620 1172 646 q 1236 552 1236 594 q 1204 485 1236 510 q 1118 461 1172 461 q 982 465 1064 461 q 881 165 974 344 l 961 165 l 1179 174 q 1263 149 1232 174 q 1294 82 1294 125 q 1263 13 1294 39 q 1179 -12 1232 -12 l 961 -4 l 750 -12 q 685 3 721 -12 q 544 -21 625 -21 q 217 138 349 -21 q 86 522 86 296 q 219 905 86 747 q 547 1063 351 1063 q 675 1040 618 1063 q 735 1050 701 1050 l 961 1042 l 1179 1050 q 1263 1024 1232 1050 q 1294 956 1294 999 q 1263 888 1294 913 q 1179 864 1232 864 m 542 156 q 595 156 542 156 q 718 267 649 156 q 788 523 788 378 q 719 773 788 668 q 542 878 650 878 q 358 773 433 878 q 283 523 283 668 q 359 267 283 378 q 542 156 435 156 z "},"œ":{"ha":1768,"x_min":71,"x_max":1693,"o":"m 555 154 q 616 154 555 154 q 760 265 678 154 q 842 523 842 376 q 760 778 842 669 q 555 888 679 888 q 349 778 431 888 q 268 523 268 669 q 350 265 268 376 q 555 154 432 154 m 1340 1063 q 1590 973 1486 1063 q 1693 759 1693 883 q 1631 556 1693 635 q 1265 411 1513 411 q 1075 429 1183 411 q 1163 233 1096 313 q 1315 154 1229 154 q 1519 219 1411 154 q 1586 242 1556 242 q 1639 221 1617 242 q 1661 168 1661 200 q 1558 47 1661 114 q 1327 -21 1456 -21 q 1103 40 1199 -21 q 950 204 1008 100 q 781 40 883 100 q 554 -21 678 -21 q 210 138 349 -21 q 71 522 71 296 q 210 905 71 747 q 556 1063 350 1063 q 788 999 683 1063 q 958 825 893 935 q 1340 1063 1094 1063 m 1496 753 q 1456 844 1496 803 q 1340 886 1415 886 q 1173 803 1242 886 q 1076 603 1104 719 q 1263 583 1160 583 q 1431 628 1367 583 q 1496 753 1496 672 z "},"Ŕ":{"ha":971,"x_min":86,"x_max":940,"o":"m 142 136 l 153 514 q 144 828 153 619 q 86 908 86 851 q 128 978 86 947 q 233 1028 171 1010 q 450 1063 358 1063 q 764 967 657 1063 q 871 735 871 872 q 821 576 871 654 q 688 449 771 497 q 890 151 826 172 q 910 145 899 149 q 924 140 921 142 q 932 137 926 139 q 939 131 938 135 q 940 108 940 121 q 902 20 940 56 q 817 -15 864 -15 q 671 81 742 -15 q 504 389 600 178 q 424 386 468 386 q 342 394 381 386 q 353 136 353 206 q 247 -14 353 -14 q 142 136 142 -14 m 342 582 q 447 596 388 596 q 567 578 506 596 q 639 636 604 593 q 674 726 674 679 q 618 843 674 800 q 457 886 563 886 q 349 869 410 886 q 342 582 342 613 m 657 1304 q 585 1175 657 1236 q 463 1114 513 1114 q 413 1131 431 1114 q 394 1172 394 1149 q 423 1238 394 1196 q 455 1287 451 1281 q 468 1316 458 1293 q 484 1349 478 1339 q 503 1374 490 1360 q 569 1400 525 1400 q 635 1370 613 1400 q 657 1304 657 1340 z "},"Ŗ":{"ha":971,"x_min":86,"x_max":940,"o":"m 142 136 l 153 514 q 144 828 153 619 q 86 908 86 851 q 128 978 86 947 q 233 1028 171 1010 q 450 1063 358 1063 q 764 967 657 1063 q 871 735 871 872 q 821 576 871 654 q 688 449 771 497 q 890 151 826 172 q 910 145 899 149 q 924 140 921 142 q 932 137 926 139 q 939 131 938 135 q 940 108 940 121 q 902 20 940 56 q 817 -15 864 -15 q 671 81 742 -15 q 504 389 600 178 q 424 386 468 386 q 342 394 381 386 q 353 136 353 206 q 247 -14 353 -14 q 142 136 142 -14 m 342 582 q 447 596 388 596 q 567 578 506 596 q 639 636 604 593 q 674 726 674 679 q 618 843 674 800 q 457 886 563 886 q 349 869 410 886 q 342 582 342 613 m 506 -160 q 431 -289 506 -228 q 307 -350 357 -350 q 257 -333 275 -350 q 239 -292 239 -315 q 267 -226 239 -268 q 299 -177 296 -183 q 313 -148 303 -171 q 328 -115 322 -125 q 347 -90 335 -104 q 413 -64 369 -64 q 481 -94 457 -64 q 506 -160 506 -125 z "},"ŗ":{"ha":785,"x_min":22,"x_max":753,"o":"m 310 489 q 321 133 310 489 q 217 -17 321 -17 q 100 160 100 -17 q 136 536 100 285 q 121 735 136 601 q 106 930 106 868 q 133 1024 106 992 q 210 1057 161 1057 q 287 1019 260 1057 q 314 915 314 982 q 422 1021 357 981 q 568 1061 486 1061 q 701 1019 650 1061 q 753 928 753 978 q 722 849 753 879 q 654 818 692 818 q 577 851 617 818 q 524 883 538 883 q 403 751 475 883 q 310 489 331 618 m 289 -160 q 215 -289 289 -228 q 90 -350 140 -350 q 40 -333 58 -350 q 22 -292 22 -315 q 51 -226 22 -268 q 83 -177 79 -183 q 96 -148 86 -171 q 112 -115 106 -125 q 131 -90 118 -104 q 197 -64 153 -64 q 265 -94 240 -64 q 289 -160 289 -125 z "},"Ř":{"ha":971,"x_min":86,"x_max":940,"o":"m 142 136 l 153 514 q 144 828 153 619 q 86 908 86 851 q 128 978 86 947 q 233 1028 171 1010 q 450 1063 358 1063 q 764 967 657 1063 q 871 735 871 872 q 821 576 871 654 q 688 449 771 497 q 890 151 826 172 q 910 145 899 149 q 924 140 921 142 q 932 137 926 139 q 939 131 938 135 q 940 108 940 121 q 902 20 940 56 q 817 -15 864 -15 q 671 81 742 -15 q 504 389 600 178 q 424 386 468 386 q 342 394 381 386 q 353 136 353 206 q 247 -14 353 -14 q 142 136 142 -14 m 342 582 q 447 596 388 596 q 567 578 506 596 q 639 636 604 593 q 674 726 674 679 q 618 843 674 800 q 457 886 563 886 q 349 869 410 886 q 342 582 342 613 m 538 1149 q 531 1142 538 1149 q 503 1126 525 1136 q 456 1115 482 1115 q 409 1126 431 1115 q 375 1149 388 1136 q 339 1187 363 1161 q 300 1228 315 1213 q 260 1265 285 1243 q 228 1296 236 1288 q 204 1350 204 1319 q 228 1405 204 1381 q 287 1429 253 1429 q 357 1397 321 1429 q 419 1331 393 1364 q 456 1297 444 1297 q 492 1331 467 1297 q 626 1431 569 1431 q 683 1406 658 1431 q 707 1358 707 1382 q 699 1320 707 1335 q 683 1297 692 1306 q 651 1267 675 1289 q 610 1229 626 1244 q 572 1188 594 1214 q 538 1149 550 1161 z "},"ř":{"ha":785,"x_min":100,"x_max":753,"o":"m 310 489 q 321 133 310 489 q 217 -17 321 -17 q 100 160 100 -17 q 136 536 100 285 q 121 735 136 601 q 106 930 106 868 q 133 1024 106 992 q 210 1057 161 1057 q 287 1019 260 1057 q 314 915 314 982 q 422 1021 357 981 q 568 1061 486 1061 q 701 1019 650 1061 q 753 928 753 978 q 722 849 753 879 q 654 818 692 818 q 577 851 617 818 q 524 883 538 883 q 403 751 475 883 q 310 489 331 618 m 510 1150 q 503 1144 510 1150 q 476 1127 497 1138 q 428 1117 454 1117 q 381 1127 403 1117 q 347 1150 360 1138 q 311 1188 335 1163 q 272 1229 288 1214 q 233 1267 257 1244 q 200 1297 208 1289 q 176 1351 176 1321 q 201 1406 176 1382 q 259 1431 225 1431 q 329 1397 293 1431 q 391 1331 365 1364 q 428 1299 417 1299 q 464 1332 439 1299 q 599 1432 542 1432 q 655 1408 631 1432 q 679 1360 679 1383 q 672 1322 679 1336 q 656 1299 664 1307 q 623 1268 647 1290 q 583 1231 599 1246 q 544 1189 567 1215 q 510 1150 522 1163 z "},"ˆ":{"ha":667,"x_min":82,"x_max":585,"o":"m 253 1022 q 259 1028 253 1022 q 287 1045 265 1035 q 338 1056 308 1056 q 389 1043 368 1056 q 442 993 410 1031 q 490 941 475 956 q 528 904 504 926 q 561 874 553 882 q 585 819 585 850 q 560 765 585 789 q 502 740 536 740 q 432 774 468 740 q 370 840 396 807 q 333 874 344 874 q 297 842 322 874 q 163 742 218 742 q 106 766 131 742 q 82 814 82 790 q 90 852 82 838 q 106 875 97 867 q 138 906 114 883 q 178 943 163 928 q 217 984 193 958 q 253 1022 240 1010 z "},"ˇ":{"ha":667,"x_min":82,"x_max":585,"o":"m 415 774 q 409 767 415 774 q 381 751 403 761 q 334 740 360 740 q 287 751 308 740 q 253 774 265 761 q 217 812 240 786 q 178 853 193 838 q 138 890 163 868 q 106 921 114 913 q 82 975 82 944 q 106 1030 82 1006 q 165 1054 131 1054 q 235 1022 199 1054 q 297 956 271 989 q 333 922 322 922 q 369 956 344 922 q 504 1056 447 1056 q 560 1031 536 1056 q 585 983 585 1007 q 577 945 585 960 q 561 922 569 931 q 528 892 553 914 q 488 854 504 869 q 450 813 472 839 q 415 774 428 786 z "},"˘":{"ha":603,"x_min":51,"x_max":543,"o":"m 474 863 q 439 827 474 863 q 297 792 404 792 q 121 863 190 792 q 51 994 51 933 q 75 1056 51 1036 q 129 1076 99 1076 q 184 1059 160 1076 q 221 1021 208 1042 q 253 983 233 1000 q 297 965 274 965 q 341 983 321 965 q 374 1021 361 1000 q 410 1059 386 1042 q 465 1076 435 1076 q 519 1056 496 1076 q 543 994 543 1036 q 474 863 543 933 z "},"˙":{"ha":367,"x_min":76,"x_max":290,"o":"m 187 1056 q 211 1056 187 1056 q 263 1024 235 1056 q 290 947 290 993 q 258 865 290 901 q 178 828 226 828 q 103 860 131 828 q 76 938 76 892 q 108 1019 76 983 q 187 1056 139 1056 z "},"˚":{"ha":311,"x_min":7,"x_max":304,"o":"m 156 1064 q 188 1064 156 1064 q 262 1023 219 1064 q 304 923 304 982 q 263 824 304 864 q 156 785 222 785 q 48 824 89 785 q 7 923 7 864 q 49 1023 7 982 q 156 1064 92 1064 m 187 893 q 193 899 187 893 q 199 922 199 906 q 187 951 199 939 q 156 964 175 964 q 124 951 136 964 q 111 922 111 939 q 124 893 111 906 q 156 881 136 881 q 187 893 175 881 z "},"˛":{"ha":504,"x_min":96,"x_max":454,"o":"m 454 -226 q 399 -308 454 -269 q 269 -347 343 -347 q 146 -301 196 -347 q 96 -181 96 -256 q 200 18 96 -64 l 418 18 q 305 -72 353 -15 q 257 -151 257 -128 q 293 -196 257 -196 q 338 -182 304 -196 q 399 -168 372 -168 q 440 -187 425 -168 q 454 -226 454 -206 z "},"˜":{"ha":822,"x_min":104,"x_max":718,"o":"m 718 929 q 660 831 718 882 q 550 781 603 781 q 427 815 497 781 q 335 849 357 849 q 272 810 314 849 q 192 772 229 772 q 129 798 154 772 q 104 861 104 824 q 164 961 104 915 q 311 1007 224 1007 q 431 974 356 1007 q 536 940 506 940 q 600 971 567 940 q 659 1001 633 1001 q 701 981 685 1001 q 718 929 718 960 z "},"Ω":{"ha":1249,"x_min":46,"x_max":1204,"o":"m 311 0 l 161 -8 q 76 16 107 -8 q 46 82 46 40 q 76 148 46 124 q 161 172 107 172 q 212 170 175 172 q 274 168 249 168 q 149 526 149 336 q 292 853 149 715 q 626 990 435 990 q 960 853 818 990 q 1101 526 1101 715 q 976 168 1101 336 l 1089 172 q 1174 148 1143 172 q 1204 82 1204 124 q 1174 16 1204 40 q 1089 -8 1143 -8 l 939 0 l 801 -8 q 719 17 751 -8 q 688 86 688 42 q 743 161 688 131 q 859 306 813 199 q 906 529 906 413 q 826 730 906 646 q 625 814 747 814 q 424 730 503 814 q 344 529 344 646 q 391 306 344 413 q 507 161 438 199 q 563 86 563 131 q 531 17 563 42 q 449 -8 499 -8 l 311 0 z "},"–":{"ha":861,"x_min":99,"x_max":763,"o":"m 432 600 l 663 607 q 734 582 706 607 q 763 521 763 557 q 734 460 763 485 q 663 435 706 435 l 432 442 l 200 436 q 128 460 157 436 q 99 521 99 485 q 128 581 99 557 q 200 606 157 606 l 432 600 z "},"—":{"ha":1222,"x_min":85,"x_max":1138,"o":"m 613 600 l 1038 607 q 1109 582 1081 607 q 1138 521 1138 557 q 1109 460 1138 485 q 1038 435 1081 435 l 613 442 l 186 436 q 114 460 143 436 q 85 521 85 485 q 114 581 85 557 q 186 606 143 606 l 613 600 z "},"‘":{"ha":375,"x_min":76,"x_max":308,"o":"m 276 872 l 290 767 q 259 683 290 719 q 180 647 228 647 q 104 681 132 647 q 76 761 76 714 q 136 956 76 856 q 246 1056 196 1056 q 293 1036 278 1056 q 308 994 308 1017 q 292 936 308 972 q 276 872 276 900 z "},"’":{"ha":376,"x_min":74,"x_max":306,"o":"m 106 831 l 92 936 q 123 1019 92 983 q 202 1056 154 1056 q 278 1022 250 1056 q 306 942 306 989 q 246 747 306 847 q 136 647 186 647 q 89 667 104 647 q 74 708 74 686 q 90 767 74 731 q 106 831 106 803 z "},"‚":{"ha":389,"x_min":86,"x_max":300,"o":"m 100 -4 l 86 101 q 117 187 86 153 q 196 221 147 221 q 272 187 244 221 q 300 106 300 153 q 254 -90 300 7 q 158 -187 208 -187 q 111 -168 126 -187 q 96 -124 96 -149 l 100 -4 z "},"“":{"ha":718,"x_min":76,"x_max":651,"o":"m 276 872 l 290 767 q 259 683 290 719 q 180 647 228 647 q 104 681 132 647 q 76 761 76 714 q 136 956 76 856 q 246 1056 196 1056 q 293 1036 278 1056 q 308 994 308 1017 q 292 936 308 972 q 276 872 276 900 m 619 872 l 633 767 q 602 683 633 719 q 523 647 571 647 q 447 681 475 647 q 419 761 419 714 q 479 956 419 856 q 589 1056 539 1056 q 636 1036 621 1056 q 651 994 651 1017 q 635 936 651 972 q 619 872 619 900 z "},"”":{"ha":719,"x_min":74,"x_max":649,"o":"m 449 831 l 435 936 q 466 1019 435 983 q 545 1056 497 1056 q 621 1022 593 1056 q 649 942 649 989 q 589 747 649 847 q 479 647 529 647 q 432 667 447 647 q 417 708 417 686 q 433 767 417 731 q 449 831 449 803 m 106 831 l 92 936 q 123 1019 92 983 q 202 1056 154 1056 q 278 1022 250 1056 q 306 942 306 989 q 246 747 306 847 q 136 647 186 647 q 89 667 104 647 q 74 708 74 686 q 90 767 74 731 q 106 831 106 803 z "},"„":{"ha":736,"x_min":86,"x_max":647,"o":"m 100 -4 l 86 101 q 117 187 86 153 q 196 221 147 221 q 272 187 244 221 q 300 106 300 153 q 254 -90 300 7 q 158 -187 208 -187 q 111 -168 126 -187 q 96 -124 96 -149 l 100 -4 m 447 -4 l 433 101 q 464 187 433 153 q 543 221 494 221 q 619 187 592 221 q 647 106 647 153 q 601 -90 647 7 q 506 -187 556 -187 q 458 -168 474 -187 q 443 -124 443 -149 l 447 -4 z "},"†":{"ha":858,"x_min":63,"x_max":796,"o":"m 517 444 l 522 3 q 497 -84 522 -51 q 428 -117 472 -117 q 359 -85 385 -117 q 333 1 333 -53 q 336 72 333 6 q 342 444 342 269 l 342 608 l 164 606 q 91 628 119 606 q 63 688 63 650 q 91 748 63 725 q 164 771 119 771 l 339 767 l 335 938 q 360 1024 335 992 q 428 1057 385 1057 q 497 1024 472 1057 q 522 938 522 992 l 518 767 l 696 771 q 769 749 742 771 q 796 688 796 726 q 769 628 796 650 q 696 606 742 606 q 517 608 610 606 l 517 444 z "},"‡":{"ha":888,"x_min":76,"x_max":811,"o":"m 532 444 l 710 447 q 782 424 754 447 q 810 364 810 401 q 782 303 810 326 q 710 281 754 281 q 532 285 596 281 q 538 7 538 65 q 513 -84 538 -51 q 444 -117 488 -117 q 374 -85 400 -117 q 349 1 349 -53 q 356 285 349 8 l 178 281 q 105 303 133 281 q 76 364 76 326 q 105 424 76 401 q 178 447 133 447 l 357 444 l 357 608 l 179 606 q 106 628 135 606 q 78 688 78 650 q 106 748 78 725 q 179 771 135 771 l 354 767 l 350 938 q 375 1024 350 992 q 444 1057 400 1057 q 513 1024 488 1057 q 538 938 538 992 l 533 767 l 711 771 q 784 749 757 771 q 811 688 811 726 q 784 628 811 650 q 711 606 757 606 q 532 608 625 606 l 532 444 z "},"•":{"ha":493,"x_min":78,"x_max":417,"o":"m 260 743 q 299 743 260 743 q 377 690 338 743 q 417 553 417 636 q 365 404 417 471 q 236 338 313 338 q 119 393 160 338 q 78 531 78 449 q 130 678 78 613 q 260 743 182 743 z "},"…":{"ha":1121,"x_min":85,"x_max":1035,"o":"m 202 228 q 227 228 202 228 q 283 194 253 228 q 313 113 313 161 q 278 25 313 64 q 194 -14 244 -14 q 114 20 143 -14 q 85 103 85 54 q 118 190 85 151 q 202 228 151 228 m 563 228 q 589 228 563 228 q 644 194 614 228 q 674 113 674 161 q 640 25 674 64 q 555 -14 606 -14 q 475 20 504 -14 q 446 103 446 54 q 479 190 446 151 q 563 228 513 228 m 924 228 q 950 228 924 228 q 1005 194 975 228 q 1035 113 1035 161 q 1001 25 1035 64 q 916 -14 967 -14 q 836 20 865 -14 q 807 103 807 54 q 840 190 807 151 q 924 228 874 228 z "},"‰":{"ha":1856,"x_min":74,"x_max":1782,"o":"m 922 946 q 844 786 922 874 l 596 67 q 494 -21 565 -21 q 436 4 460 -21 q 413 63 413 29 q 449 192 413 97 q 544 442 485 288 q 642 721 603 597 q 594 717 628 717 q 538 725 560 717 q 471 545 535 618 q 304 472 407 472 q 138 544 201 472 q 74 729 74 617 q 140 917 74 842 q 307 993 206 993 q 468 935 368 993 q 633 876 568 876 q 688 886 658 876 q 744 1022 719 993 q 817 1054 774 1054 q 892 1024 861 1054 q 922 946 922 994 m 997 500 q 1049 500 997 500 q 1165 428 1101 500 q 1229 243 1229 356 q 1163 55 1229 131 q 993 -21 1097 -21 q 825 52 889 -21 q 761 238 761 125 q 827 425 761 350 q 997 500 893 500 m 358 652 q 367 668 358 652 q 376 732 376 683 q 358 813 376 781 q 307 844 340 844 q 254 813 274 844 q 235 733 235 781 q 254 653 235 685 q 306 621 274 621 q 358 652 339 621 m 1047 158 q 1056 173 1047 158 q 1065 238 1065 189 q 1047 318 1065 286 q 996 350 1029 350 q 943 318 963 350 q 924 238 924 286 q 943 158 924 190 q 995 126 963 126 q 1047 158 1028 126 m 1550 500 q 1602 500 1550 500 q 1718 428 1654 500 q 1782 243 1782 356 q 1716 55 1782 131 q 1546 -21 1650 -21 q 1378 52 1442 -21 q 1314 238 1314 125 q 1380 425 1314 350 q 1550 500 1446 500 m 1599 158 q 1609 173 1599 158 q 1618 238 1618 189 q 1600 318 1618 286 q 1549 350 1582 350 q 1496 318 1515 350 q 1476 238 1476 286 q 1496 158 1476 190 q 1548 126 1515 126 q 1599 158 1581 126 z "},"‹":{"ha":490,"x_min":69,"x_max":397,"o":"m 324 603 q 251 522 251 540 q 324 440 251 503 q 361 406 350 418 q 397 338 397 371 q 373 280 397 304 q 324 256 349 256 q 283 265 299 256 q 257 283 267 274 q 224 320 247 293 q 183 364 200 347 q 141 404 167 381 q 103 440 115 428 q 80 474 90 453 q 69 522 69 496 q 80 570 69 549 q 103 603 90 592 q 141 639 115 615 q 183 679 167 663 q 224 723 200 696 q 257 760 247 750 q 317 788 285 788 q 373 763 349 788 q 397 713 397 739 q 385 668 397 688 q 362 637 374 649 q 324 603 350 625 z "},"›":{"ha":490,"x_min":93,"x_max":421,"o":"m 167 440 q 239 522 239 503 q 167 603 239 540 q 128 636 140 625 q 93 706 93 672 q 117 763 93 739 q 167 788 142 788 q 208 778 192 788 q 233 760 224 769 q 267 723 243 750 q 307 679 290 696 q 349 639 324 663 q 388 603 375 615 q 410 570 400 592 q 421 522 421 549 q 410 474 421 496 q 388 440 400 453 q 349 404 375 428 q 307 364 324 381 q 267 320 290 347 q 233 283 243 293 q 174 256 206 256 q 117 280 142 256 q 93 330 93 304 q 105 375 93 356 q 128 406 117 394 q 167 440 140 418 z "},"⁄":{"ha":556,"x_min":28,"x_max":529,"o":"m 510 882 q 501 855 510 882 q 444 708 492 828 q 367 512 396 589 q 292 291 338 435 q 224 88 246 147 q 179 7 203 28 q 121 -14 156 -14 q 57 10 86 -14 q 28 78 28 33 q 61 203 28 119 q 108 322 94 288 q 145 417 121 356 q 192 540 169 479 q 333 960 215 600 q 374 1035 351 1014 q 433 1056 397 1056 q 499 1033 469 1056 q 529 974 529 1011 q 510 882 529 936 z "},"€":{"ha":956,"x_min":78,"x_max":846,"o":"m 379 678 l 599 681 q 676 658 646 681 q 706 597 706 635 q 676 537 706 560 q 599 514 646 514 l 399 518 l 185 514 q 107 537 136 514 q 78 598 78 560 q 108 658 78 636 q 193 681 138 681 q 328 905 229 819 q 571 990 428 990 q 765 938 683 990 q 846 826 846 885 q 824 772 846 797 q 761 747 803 747 q 676 782 719 747 q 571 817 633 817 q 379 678 431 817 m 399 451 l 599 456 q 676 433 646 456 q 706 372 706 410 q 676 312 706 335 q 596 289 646 289 q 476 290 546 289 q 379 292 406 292 q 571 153 431 153 q 676 188 633 153 q 761 222 719 222 q 824 197 803 222 q 846 143 846 172 q 765 32 846 85 q 571 -21 683 -21 q 328 65 428 -21 q 193 289 229 150 q 108 311 138 289 q 78 372 78 333 q 107 433 78 410 q 185 456 136 456 l 399 451 z "},"™":{"ha":1386,"x_min":100,"x_max":1253,"o":"m 1250 751 l 1253 560 q 1231 486 1253 514 q 1169 458 1208 458 q 1111 486 1131 458 q 1092 561 1092 514 q 1093 619 1092 571 q 1094 728 1094 667 q 1022 576 1046 613 q 972 540 999 540 q 922 575 944 540 q 850 728 900 610 l 853 561 q 833 486 853 514 q 775 458 814 458 q 714 486 736 458 q 692 560 692 514 l 694 751 l 693 943 q 719 1019 693 989 q 779 1049 744 1049 q 865 981 831 1049 q 971 744 964 744 q 1018 842 976 744 q 1079 981 1060 939 q 1168 1046 1110 1046 q 1227 1018 1203 1046 q 1251 943 1251 990 l 1250 751 m 440 756 l 443 576 q 363 460 443 460 q 282 576 282 460 l 285 756 q 283 893 285 871 l 196 889 q 126 910 151 889 q 100 968 100 931 q 196 1046 100 1046 q 326 1042 263 1042 q 431 1042 390 1042 q 488 1044 471 1043 q 515 1045 504 1044 q 529 1046 526 1046 q 599 1025 574 1046 q 625 968 625 1004 q 529 889 625 889 l 442 893 q 440 756 440 871 z "},"←":{"ha":1171,"x_min":29,"x_max":1113,"o":"m 321 607 l 999 613 q 1081 587 1049 613 q 1113 522 1113 561 q 1081 458 1113 483 q 999 433 1049 433 q 732 436 888 433 q 321 439 576 439 q 412 362 357 407 q 483 303 467 317 q 524 230 524 267 q 498 168 524 193 q 439 143 472 143 q 378 163 406 143 q 291 238 350 183 q 213 311 232 293 l 67 446 q 29 523 29 481 q 67 600 29 565 l 213 735 q 380 885 354 867 q 439 903 406 903 q 498 878 472 903 q 524 816 524 853 q 483 743 524 779 q 412 684 467 729 q 321 607 357 639 z "},"↑":{"ha":839,"x_min":35,"x_max":794,"o":"m 499 771 l 504 93 q 479 11 504 43 q 415 -21 454 -21 q 351 11 376 -21 q 325 93 325 43 q 328 360 325 204 q 331 771 331 515 q 253 680 299 735 q 194 608 208 625 q 122 568 158 568 q 60 594 85 568 q 35 653 35 619 q 55 714 35 686 q 130 801 75 742 q 203 879 185 860 l 338 1025 q 415 1063 372 1063 q 492 1025 457 1063 l 626 879 q 776 712 758 738 q 794 653 794 686 q 769 594 794 619 q 708 568 744 568 q 635 608 671 568 q 576 680 621 625 q 499 771 531 735 z "},"→":{"ha":1171,"x_min":58,"x_max":1142,"o":"m 850 439 l 172 433 q 90 458 122 433 q 58 522 58 483 q 90 587 58 561 q 172 613 122 613 q 439 610 283 613 q 850 607 594 607 q 759 684 814 639 q 688 743 704 729 q 647 816 647 779 q 673 878 647 853 q 732 903 699 903 q 793 883 765 903 q 880 808 821 863 q 958 735 939 753 l 1104 600 q 1142 523 1142 565 q 1104 446 1142 481 l 958 311 q 791 161 817 179 q 732 143 765 143 q 673 168 699 143 q 647 230 647 193 q 688 303 647 267 q 759 362 704 317 q 850 439 814 407 z "},"↓":{"ha":839,"x_min":35,"x_max":794,"o":"m 331 271 l 325 949 q 351 1031 325 999 q 415 1063 376 1063 q 479 1031 454 1063 q 504 949 504 999 q 501 682 504 838 q 499 271 499 526 q 576 362 531 307 q 635 433 621 417 q 708 474 671 474 q 769 448 744 474 q 794 389 794 422 q 774 328 794 356 q 699 241 754 300 q 626 163 644 182 l 492 17 q 415 -21 457 -21 q 338 17 372 -21 l 203 163 q 53 330 71 304 q 35 389 35 356 q 60 448 35 422 q 122 474 85 474 q 194 433 158 474 q 253 362 208 417 q 331 271 299 307 z "},"−":{"ha":975,"x_min":111,"x_max":858,"o":"m 486 601 l 758 608 q 830 583 801 608 q 858 522 858 558 q 830 461 858 486 q 758 436 801 436 l 486 443 l 213 438 q 140 462 169 438 q 111 522 111 486 q 140 583 111 558 q 213 607 169 607 l 486 601 z "},"≈":{"ha":943,"x_min":115,"x_max":828,"o":"m 828 414 q 757 316 828 367 q 608 265 686 265 q 479 299 558 265 q 375 333 400 333 q 303 298 350 333 q 215 263 257 263 q 144 285 172 263 q 117 346 117 308 q 185 448 117 400 q 354 496 254 496 q 484 461 406 496 q 599 426 563 426 q 683 456 636 426 q 761 486 731 486 q 810 465 792 486 q 828 414 828 444 m 826 721 q 756 623 826 674 q 607 572 685 572 q 478 606 558 572 q 372 640 397 640 q 299 605 347 640 q 208 569 250 569 q 141 592 167 569 q 115 653 115 615 q 184 755 115 707 q 353 803 253 803 q 483 768 404 803 q 586 733 561 733 q 682 763 636 733 q 759 793 728 793 q 808 772 790 793 q 826 721 826 751 z "},"≠":{"ha":893,"x_min":92,"x_max":801,"o":"m 701 586 l 586 589 l 497 453 q 678 457 631 457 q 754 433 725 457 q 783 372 783 408 q 754 312 783 336 q 682 288 725 288 q 404 293 682 288 l 349 201 q 265 149 317 149 q 207 173 231 149 q 183 230 183 197 q 197 286 183 263 q 121 310 150 286 q 92 372 92 335 q 120 433 92 408 q 197 458 149 458 q 310 454 244 458 l 396 592 q 215 588 263 588 q 139 612 168 588 q 110 672 110 636 q 139 733 110 708 q 211 757 168 757 l 489 751 l 544 843 q 628 896 576 896 q 686 872 663 896 q 710 815 710 847 q 696 758 710 782 l 701 758 q 773 733 744 758 q 801 672 801 708 q 773 611 801 636 q 701 586 744 586 z "},"≤":{"ha":890,"x_min":90,"x_max":790,"o":"m 763 724 q 771 716 763 724 q 785 690 779 708 q 790 648 790 671 q 784 606 790 625 q 763 572 778 588 q 733 544 747 556 q 690 520 719 533 q 641 499 661 507 q 580 475 621 490 q 499 444 539 460 q 394 399 460 428 q 296 356 328 369 q 176 322 214 322 q 115 344 139 322 q 92 401 92 367 q 164 488 92 458 q 190 497 165 488 q 249 517 215 506 q 326 543 283 528 q 410 574 369 558 q 485 603 450 589 q 561 647 561 636 q 506 683 561 660 q 410 723 450 707 q 326 754 369 739 q 249 781 283 769 q 190 801 215 792 q 164 810 165 810 q 92 896 92 839 q 115 953 92 931 q 168 975 139 975 q 231 965 197 975 q 296 941 264 954 q 394 899 328 928 q 499 853 460 869 q 580 822 539 838 q 641 798 621 806 q 690 776 661 790 q 733 751 719 763 q 763 724 747 740 m 442 233 l 690 240 q 762 215 733 240 q 790 154 790 190 q 762 93 790 118 q 690 68 733 68 l 442 75 l 192 69 q 119 94 149 69 q 90 154 90 118 q 119 215 90 190 q 192 239 149 239 l 442 233 z "},"≥":{"ha":890,"x_min":100,"x_max":800,"o":"m 128 572 q 120 580 128 572 q 106 606 113 588 q 100 648 100 625 q 106 690 100 671 q 127 724 111 708 q 157 751 143 740 q 200 776 171 763 q 249 798 229 790 q 310 822 269 806 q 391 853 351 838 q 497 899 431 869 q 594 942 563 928 q 714 975 676 975 q 775 953 751 975 q 799 896 799 931 q 726 810 799 839 q 700 801 725 810 q 641 781 675 792 q 564 754 607 769 q 481 723 521 739 q 406 692 440 707 q 329 647 329 660 q 564 543 329 626 q 641 517 607 528 q 700 497 675 506 q 726 488 725 488 q 799 401 799 458 q 775 344 799 367 q 722 322 751 322 q 660 333 693 322 q 594 356 626 343 q 497 399 563 369 q 391 444 431 428 q 310 475 351 460 q 249 499 269 490 q 200 520 229 507 q 157 544 171 533 q 128 572 143 556 m 449 75 l 200 68 q 128 93 157 68 q 100 154 100 118 q 128 215 100 190 q 200 240 157 240 l 449 233 l 699 239 q 771 215 742 239 q 800 154 800 190 q 771 94 800 118 q 699 69 742 69 l 449 75 z "},"":{"ha":349,"x_min":13,"x_max":279,"o":"m 279 -160 q 205 -289 279 -228 q 81 -350 131 -350 q 31 -333 49 -350 q 13 -292 13 -315 q 41 -226 13 -268 q 73 -177 69 -183 q 86 -148 76 -171 q 102 -115 96 -125 q 119 -90 108 -104 q 187 -64 143 -64 q 255 -94 231 -64 q 279 -160 279 -125 z "}}}
